%TF.GenerationSoftware,KiCad,Pcbnew,10.0.3*%
%TF.CreationDate,2026-08-14T13:03:01+01:00*%
%TF.ProjectId,Power_Monitor_V2,506f7765-725f-44d6-9f6e-69746f725f56,rev?*%
%TF.SameCoordinates,Original*%
%TF.FileFunction,Copper,L1,Top*%
%TF.FilePolarity,Positive*%
%FSLAX46Y46*%
G04 Gerber Fmt 4.6, Leading zero omitted, Abs format (unit mm)*
G04 Created by KiCad (PCBNEW 10.0.3) date 2026-08-14 13:03:01*
%MOMM*%
%LPD*%
G01*
G04 APERTURE LIST*
G04 Aperture macros list*
%AMRoundRect*
0 Rectangle with rounded corners*
0 $1 Rounding radius*
0 $2 $3 $4 $5 $6 $7 $8 $9 X,Y pos of 4 corners*
0 Add a 4 corners polygon primitive as box body*
4,1,4,$2,$3,$4,$5,$6,$7,$8,$9,$2,$3,0*
0 Add four circle primitives for the rounded corners*
1,1,$1+$1,$2,$3*
1,1,$1+$1,$4,$5*
1,1,$1+$1,$6,$7*
1,1,$1+$1,$8,$9*
0 Add four rect primitives between the rounded corners*
20,1,$1+$1,$2,$3,$4,$5,0*
20,1,$1+$1,$4,$5,$6,$7,0*
20,1,$1+$1,$6,$7,$8,$9,0*
20,1,$1+$1,$8,$9,$2,$3,0*%
G04 Aperture macros list end*
%TA.AperFunction,SMDPad,CuDef*%
%ADD10RoundRect,0.237500X-0.250000X-0.237500X0.250000X-0.237500X0.250000X0.237500X-0.250000X0.237500X0*%
%TD*%
%TA.AperFunction,SMDPad,CuDef*%
%ADD11RoundRect,0.250000X-0.337500X-0.475000X0.337500X-0.475000X0.337500X0.475000X-0.337500X0.475000X0*%
%TD*%
%TA.AperFunction,ComponentPad*%
%ADD12R,2.000000X2.000000*%
%TD*%
%TA.AperFunction,ComponentPad*%
%ADD13C,2.000000*%
%TD*%
%TA.AperFunction,ComponentPad*%
%ADD14C,1.600000*%
%TD*%
%TA.AperFunction,ComponentPad*%
%ADD15RoundRect,0.270000X-0.630000X-0.630000X0.630000X-0.630000X0.630000X0.630000X-0.630000X0.630000X0*%
%TD*%
%TA.AperFunction,SMDPad,CuDef*%
%ADD16RoundRect,0.270000X-0.630000X-0.630000X0.630000X-0.630000X0.630000X0.630000X-0.630000X0.630000X0*%
%TD*%
%TA.AperFunction,SMDPad,CuDef*%
%ADD17R,0.900000X1.500000*%
%TD*%
%TA.AperFunction,SMDPad,CuDef*%
%ADD18R,1.500000X0.900000*%
%TD*%
%TA.AperFunction,HeatsinkPad*%
%ADD19C,0.600000*%
%TD*%
%TA.AperFunction,HeatsinkPad*%
%ADD20R,3.900000X3.900000*%
%TD*%
%TA.AperFunction,SMDPad,CuDef*%
%ADD21RoundRect,0.250000X-0.475000X0.337500X-0.475000X-0.337500X0.475000X-0.337500X0.475000X0.337500X0*%
%TD*%
%TA.AperFunction,SMDPad,CuDef*%
%ADD22RoundRect,0.237500X0.237500X-0.250000X0.237500X0.250000X-0.237500X0.250000X-0.237500X-0.250000X0*%
%TD*%
%TA.AperFunction,ComponentPad*%
%ADD23C,2.800000*%
%TD*%
%TA.AperFunction,ComponentPad*%
%ADD24RoundRect,0.250001X-1.149999X-1.149999X1.149999X-1.149999X1.149999X1.149999X-1.149999X1.149999X0*%
%TD*%
%TA.AperFunction,SMDPad,CuDef*%
%ADD25RoundRect,0.075000X-0.075000X0.650000X-0.075000X-0.650000X0.075000X-0.650000X0.075000X0.650000X0*%
%TD*%
%TA.AperFunction,ComponentPad*%
%ADD26C,1.400000*%
%TD*%
%TA.AperFunction,ComponentPad*%
%ADD27C,1.250000*%
%TD*%
%TA.AperFunction,ComponentPad*%
%ADD28R,1.250000X1.250000*%
%TD*%
%TA.AperFunction,SMDPad,CuDef*%
%ADD29RoundRect,0.200000X0.275000X-0.200000X0.275000X0.200000X-0.275000X0.200000X-0.275000X-0.200000X0*%
%TD*%
%TA.AperFunction,FiducialPad,Global*%
%ADD30RoundRect,0.250000X-0.337500X-0.475000X0.337500X-0.475000X0.337500X0.475000X-0.337500X0.475000X0*%
%TD*%
%TA.AperFunction,SMDPad,CuDef*%
%ADD31RoundRect,0.250000X-0.250000X1.300000X-0.250000X-1.300000X0.250000X-1.300000X0.250000X1.300000X0*%
%TD*%
%TA.AperFunction,SMDPad,CuDef*%
%ADD32RoundRect,0.250000X0.250000X-1.300000X0.250000X1.300000X-0.250000X1.300000X-0.250000X-1.300000X0*%
%TD*%
%TA.AperFunction,ComponentPad*%
%ADD33RoundRect,0.250000X-1.350000X-1.350000X1.350000X-1.350000X1.350000X1.350000X-1.350000X1.350000X0*%
%TD*%
%TA.AperFunction,ComponentPad*%
%ADD34C,3.200000*%
%TD*%
%TA.AperFunction,ComponentPad*%
%ADD35R,1.350000X1.350000*%
%TD*%
%TA.AperFunction,ComponentPad*%
%ADD36C,1.350000*%
%TD*%
%TA.AperFunction,ViaPad*%
%ADD37C,0.600000*%
%TD*%
%TA.AperFunction,ViaPad*%
%ADD38C,0.800000*%
%TD*%
%TA.AperFunction,Conductor*%
%ADD39C,0.500000*%
%TD*%
%TA.AperFunction,Conductor*%
%ADD40C,0.200000*%
%TD*%
%TA.AperFunction,Conductor*%
%ADD41C,2.500000*%
%TD*%
%TA.AperFunction,Conductor*%
%ADD42C,0.250000*%
%TD*%
G04 APERTURE END LIST*
D10*
%TO.P,EN_PullUp1,2*%
%TO.N,Net-(U2-EN)*%
X141112500Y-62800000D03*
%TO.P,EN_PullUp1,1*%
%TO.N,+3.3V*%
X139287500Y-62800000D03*
%TD*%
D11*
%TO.P,C5,2*%
%TO.N,Net-(U2-EN)*%
X144787500Y-63050000D03*
%TO.P,C5,1*%
%TO.N,GNDREF*%
X142712500Y-63050000D03*
%TD*%
D12*
%TO.P,BZ1,1,+_1*%
%TO.N,Net-(BZ1-+)*%
X129900000Y-67000000D03*
D13*
%TO.P,BZ1,2,-_2*%
%TO.N,GNDREF*%
X129900000Y-74600000D03*
%TD*%
D14*
%TO.P,F1,2*%
%TO.N,+15V*%
X147000000Y-41000000D03*
%TO.P,F1,1*%
%TO.N,Net-(D1-K)*%
X142200000Y-41000000D03*
%TD*%
D15*
%TO.P,U1,1,In+_1*%
%TO.N,+15V*%
X137250000Y-51500000D03*
D16*
%TO.P,U1,2,In-_2*%
%TO.N,GNDREF*%
X137250000Y-60500000D03*
D15*
%TO.P,U1,3,Out+_3*%
%TO.N,+3.3V*%
X152250000Y-51500000D03*
%TO.P,U1,4,Out-_4*%
%TO.N,GNDREF*%
X152250000Y-60500000D03*
%TD*%
D17*
%TO.P,U2,1,GND_1*%
%TO.N,GNDREF*%
X152110000Y-66250000D03*
%TO.P,U2,2,3V3_2*%
%TO.N,+3.3V*%
X150840000Y-66250000D03*
%TO.P,U2,3,EN_3*%
%TO.N,Net-(U2-EN)*%
X149570000Y-66250000D03*
%TO.P,U2,4,IO4_4*%
%TO.N,unconnected-(U2-IO4-Pad4)*%
X148300000Y-66250000D03*
%TO.P,U2,5,IO5_5*%
%TO.N,unconnected-(U2-IO5-Pad5)*%
X147030000Y-66250000D03*
%TO.P,U2,6,IO6_6*%
%TO.N,unconnected-(U2-IO6-Pad6)*%
X145760000Y-66250000D03*
%TO.P,U2,7,IO7_7*%
%TO.N,unconnected-(U2-IO7-Pad7)*%
X144490000Y-66250000D03*
%TO.P,U2,8,IO15_8*%
%TO.N,unconnected-(U2-IO15-Pad8)*%
X143220000Y-66250000D03*
%TO.P,U2,9,IO16_9*%
%TO.N,unconnected-(U2-IO16-Pad9)*%
X141950000Y-66250000D03*
%TO.P,U2,10,IO17_10*%
%TO.N,unconnected-(U2-IO17-Pad10)*%
X140680000Y-66250000D03*
%TO.P,U2,11,IO18_11*%
%TO.N,unconnected-(U2-IO18-Pad11)*%
X139410000Y-66250000D03*
%TO.P,U2,12,IO8_12*%
%TO.N,unconnected-(U2-IO8-Pad12)*%
X138140000Y-66250000D03*
%TO.P,U2,13,USB_D-_13*%
%TO.N,unconnected-(U2-USB_D--Pad13)*%
X136870000Y-66250000D03*
%TO.P,U2,14,USB_D+_14*%
%TO.N,unconnected-(U2-USB_D+-Pad14)*%
X135600000Y-66250000D03*
D18*
%TO.P,U2,15,IO3_15*%
%TO.N,unconnected-(U2-IO3-Pad15)*%
X134350000Y-68015000D03*
%TO.P,U2,16,IO46_16*%
%TO.N,unconnected-(U2-IO46-Pad16)*%
X134350000Y-69285000D03*
%TO.P,U2,17,IO9_17*%
%TO.N,Net-(BZ1-+)*%
X134350000Y-70555000D03*
%TO.P,U2,18,IO10_18*%
%TO.N,unconnected-(U2-IO10-Pad18)*%
X134350000Y-71825000D03*
%TO.P,U2,19,IO11_19*%
%TO.N,unconnected-(U2-IO11-Pad19)*%
X134350000Y-73095000D03*
%TO.P,U2,20,IO12_20*%
%TO.N,unconnected-(U2-IO12-Pad20)*%
X134350000Y-74365000D03*
%TO.P,U2,21,IO13_21*%
%TO.N,unconnected-(U2-IO13-Pad21)*%
X134350000Y-75635000D03*
%TO.P,U2,22,IO14_22*%
%TO.N,unconnected-(U2-IO14-Pad22)*%
X134350000Y-76905000D03*
%TO.P,U2,23,IO21_23*%
%TO.N,unconnected-(U2-IO21-Pad23)*%
X134350000Y-78175000D03*
%TO.P,U2,24,IO47_24*%
%TO.N,Net-(U2-IO47)*%
X134350000Y-79445000D03*
%TO.P,U2,25,IO48_25*%
%TO.N,unconnected-(U2-IO48-Pad25)*%
X134350000Y-80715000D03*
%TO.P,U2,26,IO45_26*%
%TO.N,unconnected-(U2-IO45-Pad26)*%
X134350000Y-81985000D03*
D17*
%TO.P,U2,27,IO0_27*%
%TO.N,Net-(U2-IO0)*%
X135600000Y-83750000D03*
%TO.P,U2,28,IO35_28*%
%TO.N,unconnected-(U2-IO35-Pad28)*%
X136870000Y-83750000D03*
%TO.P,U2,29,IO36_29*%
%TO.N,unconnected-(U2-IO36-Pad29)*%
X138140000Y-83750000D03*
%TO.P,U2,30,IO37_30*%
%TO.N,unconnected-(U2-IO37-Pad30)*%
X139410000Y-83750000D03*
%TO.P,U2,31,IO38_31*%
%TO.N,/SDA*%
X140680000Y-83750000D03*
%TO.P,U2,32,IO39_32*%
%TO.N,/SCL*%
X141950000Y-83750000D03*
%TO.P,U2,33,IO40_33*%
%TO.N,unconnected-(U2-IO40-Pad33)*%
X143220000Y-83750000D03*
%TO.P,U2,34,IO41_34*%
%TO.N,unconnected-(U2-IO41-Pad34)*%
X144490000Y-83750000D03*
%TO.P,U2,35,IO42_35*%
%TO.N,unconnected-(U2-IO42-Pad35)*%
X145760000Y-83750000D03*
%TO.P,U2,36,RXD0_36*%
%TO.N,Net-(U2-RXD0)*%
X147030000Y-83750000D03*
%TO.P,U2,37,TXD0_37*%
%TO.N,Net-(U2-TXD0)*%
X148300000Y-83750000D03*
%TO.P,U2,38,IO2_38*%
%TO.N,unconnected-(U2-IO2-Pad38)*%
X149570000Y-83750000D03*
%TO.P,U2,39,IO1_39*%
%TO.N,unconnected-(U2-IO1-Pad39)*%
X150840000Y-83750000D03*
%TO.P,U2,40,GND_40*%
%TO.N,GNDREF*%
X152110000Y-83750000D03*
D19*
%TO.P,U2,41,GND_41*%
X145090000Y-72100000D03*
X143690000Y-72100000D03*
X145790000Y-72800000D03*
X144390000Y-72800000D03*
X142990000Y-72800000D03*
X145090000Y-73500000D03*
D20*
X144390000Y-73500000D03*
D19*
X143690000Y-73500000D03*
X145790000Y-74200000D03*
X144390000Y-74200000D03*
X142990000Y-74200000D03*
X145090000Y-74900000D03*
X143690000Y-74900000D03*
%TD*%
D21*
%TO.P,D2,1,K_1*%
%TO.N,GNDREF*%
X134100000Y-58962500D03*
%TO.P,D2,2,A_2*%
%TO.N,Net-(D2-A)*%
X134100000Y-61037500D03*
%TD*%
D22*
%TO.P,IO-0_PullUp1,1*%
%TO.N,+3.3V*%
X155220000Y-49912500D03*
%TO.P,IO-0_PullUp1,2*%
%TO.N,Net-(U2-IO0)*%
X155220000Y-48087500D03*
%TD*%
D23*
%TO.P,Output1,2,Pin_2_2*%
%TO.N,Net-(Output1-Pin_2)*%
X148225000Y-108842500D03*
D24*
%TO.P,Output1,1,Pin_1_1*%
%TO.N,GNDREF*%
X143225000Y-108842500D03*
%TD*%
D25*
%TO.P,U3,1,A1_1*%
%TO.N,GNDREF*%
X143728494Y-95100000D03*
%TO.P,U3,2,A0_2*%
X143228494Y-95100000D03*
%TO.P,U3,3,~{Alert}_3*%
%TO.N,unconnected-(U3-~{Alert}-Pad3)*%
X142728494Y-95100000D03*
%TO.P,U3,4,SDA_4*%
%TO.N,/SDA*%
X142228494Y-95100000D03*
%TO.P,U3,5,SCL_5*%
%TO.N,/SCL*%
X141728494Y-95100000D03*
%TO.P,U3,6,VS_6*%
%TO.N,+3.3V*%
X141728494Y-99400000D03*
%TO.P,U3,7,GND_7*%
%TO.N,GNDREF*%
X142228494Y-99400000D03*
%TO.P,U3,8,Vbus_8*%
%TO.N,Net-(Output1-Pin_2)*%
X142728494Y-99400000D03*
%TO.P,U3,9,Vin-_9*%
X143228494Y-99400000D03*
%TO.P,U3,10,Vin+_10*%
%TO.N,+15V*%
X143728494Y-99400000D03*
%TD*%
D26*
%TO.P,RShunt1,2*%
%TO.N,+15V*%
X140090000Y-103550000D03*
%TO.P,RShunt1,1*%
%TO.N,Net-(Output1-Pin_2)*%
X147710000Y-103550000D03*
%TD*%
%TO.P,R1,1*%
%TO.N,/SCL*%
X136000000Y-92500000D03*
%TO.P,R1,2*%
%TO.N,+3.3V*%
X136000000Y-100120000D03*
%TD*%
%TO.P,R2,1*%
%TO.N,/SDA*%
X138100000Y-92500000D03*
%TO.P,R2,2*%
%TO.N,+3.3V*%
X138100000Y-100120000D03*
%TD*%
D27*
%TO.P,U4,4,SDA_4*%
%TO.N,/SDA*%
X133900000Y-88590000D03*
%TO.P,U4,3,SCL_3*%
%TO.N,/SCL*%
X133900000Y-91130000D03*
%TO.P,U4,2,VCC_IN_2*%
%TO.N,+3.3V*%
X133900000Y-93670000D03*
D28*
%TO.P,U4,1,GND_1*%
%TO.N,GNDREF*%
X133900000Y-96210000D03*
%TD*%
D29*
%TO.P,R3,1*%
%TO.N,Net-(U2-IO47)*%
X131850000Y-79325000D03*
%TO.P,R3,2*%
%TO.N,Net-(D2-A)*%
X131850000Y-77675000D03*
%TD*%
D23*
%TO.P,Input1,2,Pin_2_2*%
%TO.N,Net-(D1-A)*%
X147925000Y-34017500D03*
D24*
%TO.P,Input1,1,Pin_1_1*%
%TO.N,GNDREF*%
X142925000Y-34017500D03*
%TD*%
D30*
%TO.P,C3,1*%
%TO.N,GNDREF*%
X147225000Y-63400000D03*
D11*
%TO.P,C3,2*%
%TO.N,+3.3V*%
X149300000Y-63400000D03*
%TD*%
D31*
%TO.P,Reset1,1,1_1*%
%TO.N,Net-(U2-EN)*%
X137429149Y-31494986D03*
X137429149Y-40394986D03*
%TO.P,Reset1,2,2_2*%
%TO.N,GNDREF*%
X133429149Y-31494986D03*
X133429149Y-40394986D03*
%TD*%
D32*
%TO.P,Boot1,1,1_1*%
%TO.N,Net-(U2-IO0)*%
X153500000Y-40400000D03*
X153500000Y-31500000D03*
%TO.P,Boot1,2,2_2*%
%TO.N,GNDREF*%
X157500000Y-40400000D03*
X157500000Y-31500000D03*
%TD*%
D33*
%TO.P,D1,1,K_1*%
%TO.N,Net-(D1-K)*%
X137000000Y-46000000D03*
D34*
%TO.P,D1,2,A_2*%
%TO.N,Net-(D1-A)*%
X152240000Y-46000000D03*
%TD*%
D35*
%TO.P,U5,1,GND_1*%
%TO.N,GNDREF*%
X151700000Y-99600000D03*
D36*
%TO.P,U5,2,5V_2*%
%TO.N,unconnected-(U5-5V-Pad2)*%
X151700000Y-97060000D03*
%TO.P,U5,4,RXD_4*%
%TO.N,Net-(U2-TXD0)*%
X151700000Y-91980000D03*
%TO.P,U5,5,DTR_5*%
%TO.N,unconnected-(U5-DTR-Pad5)*%
X151700000Y-89440000D03*
%TO.P,U5,3,TXD_3*%
%TO.N,Net-(U2-RXD0)*%
X151700000Y-94520000D03*
%TO.P,U5,6,3.3V_6*%
%TO.N,unconnected-(U5-3.3V-Pad6)*%
X151700000Y-86900000D03*
%TD*%
D37*
%TO.N,+3.3V*%
X137825000Y-53370000D03*
X148975000Y-53370000D03*
%TO.N,GNDREF*%
X135700000Y-33550000D03*
%TO.N,+15V*%
X144475000Y-101075000D03*
X142728494Y-101901455D03*
%TO.N,GNDREF*%
X139475000Y-39250000D03*
X136825000Y-77525000D03*
X132700000Y-72450000D03*
X132300000Y-98700000D03*
%TO.N,+3.3V*%
X141550000Y-100900000D03*
%TO.N,GNDREF*%
X152800000Y-62600000D03*
X155400000Y-45000000D03*
X141938515Y-101599328D03*
%TO.N,/SDA*%
X142250000Y-93500000D03*
%TO.N,+3.3V*%
X137000000Y-62400000D03*
%TO.N,/SCL*%
X140814247Y-94185753D03*
D38*
%TO.N,+3.3V*%
X150840000Y-64590000D03*
%TD*%
%TO.N,+3.3V*%
D39*
X137825000Y-53370000D02*
X148975000Y-53370000D01*
%TO.N,Net-(U2-RXD0)*%
D40*
X151700000Y-94520000D02*
X147030000Y-89850000D01*
X147030000Y-89850000D02*
X147030000Y-83750000D01*
%TO.N,+15V*%
X144475000Y-101075000D02*
X143725000Y-100325000D01*
X143725000Y-100325000D02*
X143725000Y-99403494D01*
X143725000Y-99403494D02*
X143728494Y-99400000D01*
%TO.N,Net-(Output1-Pin_2)*%
X142728494Y-99400000D02*
X143228494Y-99400000D01*
X147710000Y-103550000D02*
X146000000Y-103550000D01*
X146000000Y-103550000D02*
X143228494Y-100778494D01*
X143228494Y-100778494D02*
X143228494Y-99400000D01*
%TO.N,+15V*%
X142728494Y-101901455D02*
X141079949Y-103550000D01*
X141079949Y-103550000D02*
X140090000Y-103550000D01*
%TO.N,GNDREF*%
X142000672Y-101599328D02*
X142228494Y-101371506D01*
X142228494Y-101371506D02*
X142228494Y-99400000D01*
X141938515Y-101599328D02*
X142000672Y-101599328D01*
%TO.N,Net-(D1-A)*%
D41*
X147925000Y-34017500D02*
X149900000Y-35992500D01*
X149900000Y-35992500D02*
X149900000Y-43660000D01*
X149900000Y-43660000D02*
X152240000Y-46000000D01*
%TO.N,Net-(Output1-Pin_2)*%
X148200000Y-108775000D02*
X148250000Y-108725000D01*
X148250000Y-108725000D02*
X148250000Y-104090000D01*
X148250000Y-104090000D02*
X147710000Y-103550000D01*
%TO.N,Net-(BZ1-+)*%
D39*
X134350000Y-70555000D02*
X131855000Y-70555000D01*
X131855000Y-70555000D02*
X129900000Y-68600000D01*
X129900000Y-68600000D02*
X129900000Y-67000000D01*
%TO.N,Net-(Output1-Pin_2)*%
D40*
X147710000Y-104040000D02*
X147710000Y-103550000D01*
%TO.N,/SCL*%
X136000000Y-92500000D02*
X134630000Y-91130000D01*
X134630000Y-91130000D02*
X133900000Y-91130000D01*
%TO.N,+3.3V*%
X141728494Y-99400000D02*
X141728494Y-100721506D01*
X141728494Y-100721506D02*
X141550000Y-100900000D01*
%TO.N,Net-(D2-A)*%
D39*
X131850000Y-77675000D02*
X131825000Y-77700000D01*
X129900000Y-77700000D02*
X128200000Y-76000000D01*
X128200000Y-76000000D02*
X128200000Y-66000000D01*
X128200000Y-66000000D02*
X133000000Y-61200000D01*
X131825000Y-77700000D02*
X129900000Y-77700000D01*
X133000000Y-61200000D02*
X134247500Y-61200000D01*
%TO.N,GNDREF*%
D40*
X143228494Y-95100000D02*
X143728494Y-95100000D01*
%TO.N,+3.3V*%
D39*
X155220000Y-49912500D02*
X153837500Y-49912500D01*
X153837500Y-49912500D02*
X152250000Y-51500000D01*
X152370000Y-51428000D02*
X152370000Y-51130000D01*
%TO.N,/SDA*%
D42*
X142228494Y-93521506D02*
X142250000Y-93500000D01*
X142228494Y-95100000D02*
X142228494Y-93521506D01*
%TO.N,+15V*%
D41*
X137250000Y-51500000D02*
X147000000Y-41750000D01*
X147000000Y-41750000D02*
X147000000Y-41000000D01*
%TO.N,Net-(D1-K)*%
X137000000Y-46000000D02*
X137200000Y-46000000D01*
X137200000Y-46000000D02*
X142200000Y-41000000D01*
%TO.N,Net-(U2-IO0)*%
D39*
X153500000Y-40400000D02*
X153500000Y-31500000D01*
%TO.N,Net-(U2-EN)*%
X137429149Y-31494986D02*
X137429149Y-40394986D01*
%TO.N,+3.3V*%
X137000000Y-62400000D02*
X138887500Y-62400000D01*
X138887500Y-62400000D02*
X139287500Y-62800000D01*
X149650000Y-63400000D02*
X149300000Y-63400000D01*
X150840000Y-64590000D02*
X149650000Y-63400000D01*
%TO.N,/SCL*%
D40*
X135520000Y-91130000D02*
X137625000Y-89025000D01*
%TO.N,Net-(U2-IO0)*%
D39*
X149800000Y-51339138D02*
X154290000Y-46849138D01*
X146790000Y-75900000D02*
X153350000Y-69340000D01*
X149800000Y-61400000D02*
X149800000Y-51339138D01*
X135600000Y-82920000D02*
X142620000Y-75900000D01*
X153350000Y-64950000D02*
X149800000Y-61400000D01*
%TO.N,Net-(U2-EN)*%
X145600000Y-64800000D02*
X142600000Y-64800000D01*
X145000000Y-64200000D02*
X145600000Y-64800000D01*
X149570000Y-65420000D02*
X149570000Y-66250000D01*
X145600000Y-64800000D02*
X148950000Y-64800000D01*
X135360000Y-52360000D02*
X145000000Y-62000000D01*
%TO.N,Net-(U2-IO0)*%
X153350000Y-69340000D02*
X153350000Y-64950000D01*
X135600000Y-83750000D02*
X135600000Y-82920000D01*
X142620000Y-75900000D02*
X146790000Y-75900000D01*
%TO.N,/SCL*%
D40*
X133900000Y-91130000D02*
X135520000Y-91130000D01*
X141950000Y-84700000D02*
X141950000Y-83750000D01*
X137625000Y-89025000D02*
X141950000Y-84700000D01*
%TO.N,/SDA*%
X136790000Y-88590000D02*
X140680000Y-84700000D01*
%TO.N,/SCL*%
D42*
X140814247Y-92214247D02*
X137625000Y-89025000D01*
%TO.N,/SDA*%
D40*
X133900000Y-88590000D02*
X136790000Y-88590000D01*
%TO.N,/SCL*%
D42*
X140814247Y-94185753D02*
X140814247Y-92214247D01*
%TO.N,Net-(U2-EN)*%
D39*
X148950000Y-64800000D02*
X149570000Y-65420000D01*
X145000000Y-62000000D02*
X145000000Y-64200000D01*
X141112500Y-63312500D02*
X141112500Y-62800000D01*
%TO.N,/SDA*%
D40*
X140680000Y-84700000D02*
X140680000Y-83750000D01*
%TO.N,Net-(U2-EN)*%
D39*
X142600000Y-64800000D02*
X141112500Y-63312500D01*
X134150000Y-43674135D02*
X134150000Y-51150000D01*
X134150000Y-51150000D02*
X135360000Y-52360000D01*
X137429149Y-40394986D02*
X134150000Y-43674135D01*
%TO.N,+3.3V*%
X150840000Y-64590000D02*
X150840000Y-66250000D01*
%TO.N,Net-(U2-IO0)*%
X154290000Y-46849138D02*
X154290000Y-47157500D01*
X154290000Y-47157500D02*
X155220000Y-48087500D01*
%TO.N,Net-(U2-IO47)*%
X134350000Y-79445000D02*
X131970000Y-79445000D01*
%TO.N,Net-(U2-IO0)*%
X153500000Y-40400000D02*
X154290000Y-41190000D01*
X154290000Y-41190000D02*
X154290000Y-46849138D01*
%TO.N,Net-(U2-IO47)*%
X131970000Y-79445000D02*
X131850000Y-79325000D01*
%TO.N,/SCL*%
D42*
X141728494Y-95100000D02*
X140814247Y-94185753D01*
%TO.N,Net-(U2-TXD0)*%
D40*
X151700000Y-91980000D02*
X148300000Y-88580000D01*
X148300000Y-88580000D02*
X148300000Y-83750000D01*
%TD*%
%TA.AperFunction,Conductor*%
%TO.N,GNDREF*%
G36*
X132478661Y-29670185D02*
G01*
X132524416Y-29722989D01*
X132534360Y-29792147D01*
X132517161Y-29839596D01*
X132494794Y-29875857D01*
X132494790Y-29875866D01*
X132439643Y-30042288D01*
X132439642Y-30042295D01*
X132429149Y-30144999D01*
X132429149Y-31244986D01*
X134429148Y-31244986D01*
X134429148Y-30145014D01*
X134429147Y-30144999D01*
X134418654Y-30042288D01*
X134363507Y-29875866D01*
X134363503Y-29875857D01*
X134341137Y-29839596D01*
X134322697Y-29772204D01*
X134343620Y-29705541D01*
X134397262Y-29660771D01*
X134446676Y-29650500D01*
X136411035Y-29650500D01*
X136478074Y-29670185D01*
X136523829Y-29722989D01*
X136533773Y-29792147D01*
X136516574Y-29839596D01*
X136494338Y-29875645D01*
X136494334Y-29875654D01*
X136466498Y-29959656D01*
X136439150Y-30042189D01*
X136439150Y-30042190D01*
X136439149Y-30042190D01*
X136428649Y-30144969D01*
X136428649Y-32844987D01*
X136428650Y-32845004D01*
X136439149Y-32947782D01*
X136439150Y-32947785D01*
X136494334Y-33114317D01*
X136494336Y-33114322D01*
X136497429Y-33119336D01*
X136586245Y-33263331D01*
X136586438Y-33263643D01*
X136642330Y-33319535D01*
X136675815Y-33380858D01*
X136678649Y-33407216D01*
X136678649Y-38482756D01*
X136658964Y-38549795D01*
X136642330Y-38570437D01*
X136586438Y-38626328D01*
X136494336Y-38775649D01*
X136494334Y-38775654D01*
X136466498Y-38859656D01*
X136439150Y-38942189D01*
X136439150Y-38942190D01*
X136439149Y-38942190D01*
X136428649Y-39044969D01*
X136428649Y-40282755D01*
X136408964Y-40349794D01*
X136392330Y-40370436D01*
X134493703Y-42269062D01*
X134432380Y-42302547D01*
X134362688Y-42297563D01*
X134306755Y-42255691D01*
X134282338Y-42190227D01*
X134297190Y-42121954D01*
X134300484Y-42116284D01*
X134363502Y-42014116D01*
X134363507Y-42014105D01*
X134418654Y-41847683D01*
X134418655Y-41847676D01*
X134429148Y-41744972D01*
X134429149Y-41744959D01*
X134429149Y-40644986D01*
X133679149Y-40644986D01*
X133679149Y-42444985D01*
X133729121Y-42444985D01*
X133729135Y-42444984D01*
X133831846Y-42434491D01*
X133998268Y-42379344D01*
X133998279Y-42379339D01*
X134100447Y-42316321D01*
X134167839Y-42297880D01*
X134234503Y-42318802D01*
X134279272Y-42372444D01*
X134287934Y-42441775D01*
X134257738Y-42504782D01*
X134253225Y-42509540D01*
X133567050Y-43195715D01*
X133567044Y-43195723D01*
X133517812Y-43269403D01*
X133517813Y-43269404D01*
X133484921Y-43318631D01*
X133484914Y-43318643D01*
X133428342Y-43455221D01*
X133428340Y-43455227D01*
X133399500Y-43600214D01*
X133399500Y-43600217D01*
X133399500Y-51223918D01*
X133399500Y-51223920D01*
X133399499Y-51223920D01*
X133428340Y-51368907D01*
X133428343Y-51368917D01*
X133484914Y-51505492D01*
X133517812Y-51554727D01*
X133517813Y-51554730D01*
X133567046Y-51628414D01*
X133567052Y-51628421D01*
X134772707Y-52834074D01*
X134772728Y-52834097D01*
X143863450Y-61924819D01*
X143896935Y-61986142D01*
X143891951Y-62055834D01*
X143863454Y-62100177D01*
X143857290Y-62106341D01*
X143765187Y-62255663D01*
X143765186Y-62255666D01*
X143710001Y-62422203D01*
X143710001Y-62422204D01*
X143710000Y-62422204D01*
X143699500Y-62524983D01*
X143699500Y-63575001D01*
X143699501Y-63575019D01*
X143710000Y-63677796D01*
X143710001Y-63677799D01*
X143763508Y-63839270D01*
X143765186Y-63844334D01*
X143775098Y-63860404D01*
X143793538Y-63927795D01*
X143772616Y-63994459D01*
X143718974Y-64039229D01*
X143669559Y-64049500D01*
X142962229Y-64049500D01*
X142895190Y-64029815D01*
X142874548Y-64013181D01*
X142128034Y-63266666D01*
X142094549Y-63205343D01*
X142092357Y-63166382D01*
X142100500Y-63086677D01*
X142100499Y-62513324D01*
X142098091Y-62489755D01*
X142090174Y-62412247D01*
X142063678Y-62332288D01*
X142035908Y-62248484D01*
X141945340Y-62101650D01*
X141823350Y-61979660D01*
X141676516Y-61889092D01*
X141512753Y-61834826D01*
X141512751Y-61834825D01*
X141411678Y-61824500D01*
X140813330Y-61824500D01*
X140813312Y-61824501D01*
X140712247Y-61834825D01*
X140548484Y-61889092D01*
X140548481Y-61889093D01*
X140401648Y-61979661D01*
X140287681Y-62093629D01*
X140226358Y-62127114D01*
X140156666Y-62122130D01*
X140112319Y-62093629D01*
X139998351Y-61979661D01*
X139998350Y-61979660D01*
X139851516Y-61889092D01*
X139687753Y-61834826D01*
X139687751Y-61834825D01*
X139586684Y-61824500D01*
X139586677Y-61824500D01*
X139414683Y-61824500D01*
X139347644Y-61804815D01*
X139345827Y-61803625D01*
X139292229Y-61767813D01*
X139242995Y-61734916D01*
X139242996Y-61734916D01*
X139242991Y-61734913D01*
X139106417Y-61678343D01*
X139106407Y-61678340D01*
X138961420Y-61649500D01*
X138961418Y-61649500D01*
X138687211Y-61649500D01*
X138620172Y-61629815D01*
X138574417Y-61577011D01*
X138564473Y-61507853D01*
X138575488Y-61471703D01*
X138578136Y-61466203D01*
X138635444Y-61302423D01*
X138635445Y-61302420D01*
X138649999Y-61173243D01*
X138650000Y-61173243D01*
X138650000Y-60750000D01*
X135850001Y-60750000D01*
X135850001Y-61173244D01*
X135864555Y-61302422D01*
X135921864Y-61466205D01*
X135921867Y-61466211D01*
X136014176Y-61613119D01*
X136014181Y-61613125D01*
X136136876Y-61735820D01*
X136271289Y-61820278D01*
X136317579Y-61872612D01*
X136328227Y-61941666D01*
X136308419Y-61994161D01*
X136290608Y-62020816D01*
X136290602Y-62020827D01*
X136230264Y-62166498D01*
X136230261Y-62166510D01*
X136199500Y-62321153D01*
X136199500Y-62478846D01*
X136230261Y-62633489D01*
X136230264Y-62633501D01*
X136290602Y-62779172D01*
X136290609Y-62779185D01*
X136378210Y-62910288D01*
X136378213Y-62910292D01*
X136489707Y-63021786D01*
X136489711Y-63021789D01*
X136620814Y-63109390D01*
X136620827Y-63109397D01*
X136718853Y-63150000D01*
X136766503Y-63169737D01*
X136921153Y-63200499D01*
X136921156Y-63200500D01*
X136921158Y-63200500D01*
X137078844Y-63200500D01*
X137078845Y-63200499D01*
X137155152Y-63185320D01*
X137233488Y-63169739D01*
X137233489Y-63169738D01*
X137233497Y-63169737D01*
X137257155Y-63159937D01*
X137304604Y-63150500D01*
X138207940Y-63150500D01*
X138274979Y-63170185D01*
X138320734Y-63222989D01*
X138325646Y-63235495D01*
X138364092Y-63351515D01*
X138364093Y-63351518D01*
X138387085Y-63388794D01*
X138454660Y-63498350D01*
X138576650Y-63620340D01*
X138723484Y-63710908D01*
X138887247Y-63765174D01*
X138988323Y-63775500D01*
X139586676Y-63775499D01*
X139586684Y-63775498D01*
X139586687Y-63775498D01*
X139642030Y-63769844D01*
X139687753Y-63765174D01*
X139851516Y-63710908D01*
X139998350Y-63620340D01*
X140112319Y-63506371D01*
X140119170Y-63502629D01*
X140123724Y-63496287D01*
X140149405Y-63486120D01*
X140173642Y-63472886D01*
X140181428Y-63473442D01*
X140188688Y-63470569D01*
X140215785Y-63475899D01*
X140243334Y-63477870D01*
X140251320Y-63482890D01*
X140257244Y-63484056D01*
X140281730Y-63502008D01*
X140285915Y-63504639D01*
X140286783Y-63505473D01*
X140401650Y-63620340D01*
X140414712Y-63628396D01*
X140424257Y-63637568D01*
X140433058Y-63652949D01*
X140443054Y-63663581D01*
X140444031Y-63662929D01*
X140447415Y-63667994D01*
X140447416Y-63667995D01*
X140476089Y-63710908D01*
X140480312Y-63717227D01*
X140480313Y-63717230D01*
X140529546Y-63790914D01*
X140529552Y-63790921D01*
X141527103Y-64788470D01*
X141531610Y-64796725D01*
X141539111Y-64802407D01*
X141548087Y-64826900D01*
X141560588Y-64849793D01*
X141559916Y-64859177D01*
X141563154Y-64868010D01*
X141557464Y-64893464D01*
X141555604Y-64919484D01*
X141549966Y-64927015D01*
X141547914Y-64936197D01*
X141529364Y-64954535D01*
X141513733Y-64975418D01*
X141503596Y-64980012D01*
X141498228Y-64985320D01*
X141478160Y-64991540D01*
X141465089Y-64997465D01*
X141455466Y-64999500D01*
X141452128Y-64999501D01*
X141392517Y-65005909D01*
X141349696Y-65021879D01*
X141340667Y-65023790D01*
X141314662Y-65021781D01*
X141288639Y-65023642D01*
X141271669Y-65018659D01*
X141237480Y-65005908D01*
X141237482Y-65005908D01*
X141177883Y-64999501D01*
X141177881Y-64999500D01*
X141177873Y-64999500D01*
X141177864Y-64999500D01*
X140182129Y-64999500D01*
X140182123Y-64999501D01*
X140122518Y-65005908D01*
X140088331Y-65018659D01*
X140018639Y-65023642D01*
X140001669Y-65018659D01*
X139967480Y-65005908D01*
X139967482Y-65005908D01*
X139907883Y-64999501D01*
X139907881Y-64999500D01*
X139907873Y-64999500D01*
X139907864Y-64999500D01*
X138912129Y-64999500D01*
X138912123Y-64999501D01*
X138852518Y-65005908D01*
X138818331Y-65018659D01*
X138748639Y-65023642D01*
X138731669Y-65018659D01*
X138697480Y-65005908D01*
X138697482Y-65005908D01*
X138637883Y-64999501D01*
X138637881Y-64999500D01*
X138637873Y-64999500D01*
X138637864Y-64999500D01*
X137642129Y-64999500D01*
X137642123Y-64999501D01*
X137582518Y-65005908D01*
X137548331Y-65018659D01*
X137478639Y-65023642D01*
X137461669Y-65018659D01*
X137427480Y-65005908D01*
X137427482Y-65005908D01*
X137367883Y-64999501D01*
X137367881Y-64999500D01*
X137367873Y-64999500D01*
X137367864Y-64999500D01*
X136372129Y-64999500D01*
X136372123Y-64999501D01*
X136312518Y-65005908D01*
X136278331Y-65018659D01*
X136208639Y-65023642D01*
X136191669Y-65018659D01*
X136157480Y-65005908D01*
X136157482Y-65005908D01*
X136097883Y-64999501D01*
X136097881Y-64999500D01*
X136097873Y-64999500D01*
X136097864Y-64999500D01*
X135102129Y-64999500D01*
X135102123Y-64999501D01*
X135042516Y-65005908D01*
X134907671Y-65056202D01*
X134907664Y-65056206D01*
X134792455Y-65142452D01*
X134792452Y-65142455D01*
X134706206Y-65257664D01*
X134706202Y-65257671D01*
X134655908Y-65392517D01*
X134649501Y-65452116D01*
X134649500Y-65452135D01*
X134649500Y-66940500D01*
X134629815Y-67007539D01*
X134577011Y-67053294D01*
X134525500Y-67064500D01*
X133552129Y-67064500D01*
X133552123Y-67064501D01*
X133492516Y-67070908D01*
X133357671Y-67121202D01*
X133357664Y-67121206D01*
X133242455Y-67207452D01*
X133242452Y-67207455D01*
X133156206Y-67322664D01*
X133156202Y-67322671D01*
X133105908Y-67457517D01*
X133099501Y-67517116D01*
X133099500Y-67517135D01*
X133099500Y-68512870D01*
X133099501Y-68512876D01*
X133105908Y-68572481D01*
X133118659Y-68606669D01*
X133123642Y-68676361D01*
X133118659Y-68693331D01*
X133105908Y-68727518D01*
X133099543Y-68786728D01*
X133099501Y-68787123D01*
X133099500Y-68787135D01*
X133099501Y-69680500D01*
X133079817Y-69747539D01*
X133027013Y-69793294D01*
X132975501Y-69804500D01*
X132217229Y-69804500D01*
X132150190Y-69784815D01*
X132129548Y-69768181D01*
X131033191Y-68671824D01*
X130999706Y-68610501D01*
X131004690Y-68540809D01*
X131046562Y-68484876D01*
X131077534Y-68467963D01*
X131142331Y-68443796D01*
X131257546Y-68357546D01*
X131343796Y-68242331D01*
X131394091Y-68107483D01*
X131400500Y-68047873D01*
X131400499Y-65952128D01*
X131394091Y-65892517D01*
X131352530Y-65781087D01*
X131343797Y-65757671D01*
X131343793Y-65757664D01*
X131257547Y-65642455D01*
X131257544Y-65642452D01*
X131142335Y-65556206D01*
X131142328Y-65556202D01*
X131007482Y-65505908D01*
X131007483Y-65505908D01*
X130947883Y-65499501D01*
X130947881Y-65499500D01*
X130947873Y-65499500D01*
X130947865Y-65499500D01*
X130061229Y-65499500D01*
X129994190Y-65479815D01*
X129948435Y-65427011D01*
X129938491Y-65357853D01*
X129967516Y-65294297D01*
X129973548Y-65287819D01*
X130760058Y-64501309D01*
X133173384Y-62087981D01*
X133234705Y-62054498D01*
X133300067Y-62057958D01*
X133305663Y-62059812D01*
X133305666Y-62059814D01*
X133472203Y-62114999D01*
X133574991Y-62125500D01*
X134625008Y-62125499D01*
X134625016Y-62125498D01*
X134625019Y-62125498D01*
X134681302Y-62119748D01*
X134727797Y-62114999D01*
X134894334Y-62059814D01*
X135043656Y-61967712D01*
X135167712Y-61843656D01*
X135259814Y-61694334D01*
X135314999Y-61527797D01*
X135325500Y-61425009D01*
X135325499Y-60649992D01*
X135314999Y-60547203D01*
X135259814Y-60380666D01*
X135167712Y-60231344D01*
X135043656Y-60107288D01*
X135040342Y-60105243D01*
X135038546Y-60103248D01*
X135037989Y-60102807D01*
X135038064Y-60102711D01*
X134993618Y-60053297D01*
X134982397Y-59984334D01*
X135010240Y-59920252D01*
X135017075Y-59912714D01*
X135101696Y-59826756D01*
X135850000Y-59826756D01*
X135850000Y-60250000D01*
X137000000Y-60250000D01*
X137500000Y-60250000D01*
X138649999Y-60250000D01*
X138649999Y-59826759D01*
X138649998Y-59826755D01*
X138635444Y-59697577D01*
X138578135Y-59533794D01*
X138578132Y-59533788D01*
X138485823Y-59386880D01*
X138485818Y-59386874D01*
X138363125Y-59264181D01*
X138363119Y-59264176D01*
X138216211Y-59171867D01*
X138216205Y-59171864D01*
X138052423Y-59114555D01*
X138052420Y-59114554D01*
X137923243Y-59100000D01*
X137500000Y-59100000D01*
X137500000Y-60250000D01*
X137000000Y-60250000D01*
X137000000Y-59100000D01*
X136576759Y-59100000D01*
X136576755Y-59100001D01*
X136447577Y-59114555D01*
X136283794Y-59171864D01*
X136283788Y-59171867D01*
X136136880Y-59264176D01*
X136136874Y-59264181D01*
X136014181Y-59386874D01*
X136014176Y-59386880D01*
X135921867Y-59533788D01*
X135921864Y-59533794D01*
X135864555Y-59697576D01*
X135864554Y-59697579D01*
X135850000Y-59826756D01*
X135101696Y-59826756D01*
X135180932Y-59746269D01*
X135259356Y-59619124D01*
X135259358Y-59619119D01*
X135314505Y-59452697D01*
X135314506Y-59452690D01*
X135324999Y-59349986D01*
X135325000Y-59349973D01*
X135325000Y-59212500D01*
X132875001Y-59212500D01*
X132875001Y-59349986D01*
X132885494Y-59452697D01*
X132940641Y-59619119D01*
X132940643Y-59619124D01*
X133032684Y-59768345D01*
X133156655Y-59892316D01*
X133156659Y-59892319D01*
X133159656Y-59894168D01*
X133161279Y-59895972D01*
X133162323Y-59896798D01*
X133162181Y-59896976D01*
X133206381Y-59946116D01*
X133217602Y-60015079D01*
X133189759Y-60079161D01*
X133159661Y-60105241D01*
X133156349Y-60107283D01*
X133156343Y-60107288D01*
X133032289Y-60231342D01*
X132940184Y-60380669D01*
X132940183Y-60380671D01*
X132939466Y-60382836D01*
X132938572Y-60384126D01*
X132937134Y-60387211D01*
X132936606Y-60386965D01*
X132899687Y-60440277D01*
X132845957Y-60465437D01*
X132781091Y-60478340D01*
X132781084Y-60478342D01*
X132644511Y-60534912D01*
X132644498Y-60534919D01*
X132521584Y-60617048D01*
X132521580Y-60617051D01*
X127617050Y-65521580D01*
X127617044Y-65521588D01*
X127567812Y-65595268D01*
X127567813Y-65595269D01*
X127534921Y-65644496D01*
X127534914Y-65644508D01*
X127478342Y-65781086D01*
X127478340Y-65781092D01*
X127449500Y-65926079D01*
X127449500Y-65926082D01*
X127449500Y-76073918D01*
X127449500Y-76073920D01*
X127449499Y-76073920D01*
X127478340Y-76218907D01*
X127478343Y-76218917D01*
X127534914Y-76355492D01*
X127567812Y-76404727D01*
X127567813Y-76404730D01*
X127617046Y-76478414D01*
X127617052Y-76478421D01*
X129421584Y-78282952D01*
X129421586Y-78282954D01*
X129451058Y-78302645D01*
X129495270Y-78332186D01*
X129544505Y-78365084D01*
X129544506Y-78365084D01*
X129544507Y-78365085D01*
X129544509Y-78365086D01*
X129681082Y-78421656D01*
X129681087Y-78421658D01*
X129681091Y-78421658D01*
X129681092Y-78421659D01*
X129826079Y-78450500D01*
X129826082Y-78450500D01*
X129826083Y-78450500D01*
X129973917Y-78450500D01*
X130959480Y-78450500D01*
X131026519Y-78470185D01*
X131072274Y-78522989D01*
X131082218Y-78592147D01*
X131053193Y-78655703D01*
X131047161Y-78662181D01*
X131019531Y-78689810D01*
X131019530Y-78689811D01*
X130931522Y-78835393D01*
X130880913Y-78997807D01*
X130874500Y-79068386D01*
X130874500Y-79581613D01*
X130880913Y-79652192D01*
X130880913Y-79652194D01*
X130880914Y-79652196D01*
X130931522Y-79814606D01*
X131009062Y-79942873D01*
X131019530Y-79960188D01*
X131139811Y-80080469D01*
X131139813Y-80080470D01*
X131139815Y-80080472D01*
X131285394Y-80168478D01*
X131447804Y-80219086D01*
X131518384Y-80225500D01*
X131518387Y-80225500D01*
X132181613Y-80225500D01*
X132181616Y-80225500D01*
X132252196Y-80219086D01*
X132292325Y-80206581D01*
X132309873Y-80201114D01*
X132346761Y-80195500D01*
X132975500Y-80195500D01*
X133042539Y-80215185D01*
X133088294Y-80267989D01*
X133099500Y-80319500D01*
X133099500Y-81212870D01*
X133099501Y-81212876D01*
X133105908Y-81272481D01*
X133118659Y-81306669D01*
X133123642Y-81376361D01*
X133118659Y-81393331D01*
X133105908Y-81427518D01*
X133099501Y-81487116D01*
X133099500Y-81487135D01*
X133099500Y-82482870D01*
X133099501Y-82482876D01*
X133105908Y-82542483D01*
X133156202Y-82677328D01*
X133156206Y-82677335D01*
X133242452Y-82792544D01*
X133242455Y-82792547D01*
X133357664Y-82878793D01*
X133357671Y-82878797D01*
X133492517Y-82929091D01*
X133492516Y-82929091D01*
X133499444Y-82929835D01*
X133552127Y-82935500D01*
X134525500Y-82935499D01*
X134592539Y-82955183D01*
X134638294Y-83007987D01*
X134649500Y-83059499D01*
X134649500Y-84547870D01*
X134649501Y-84547876D01*
X134655908Y-84607483D01*
X134706202Y-84742328D01*
X134706206Y-84742335D01*
X134792452Y-84857544D01*
X134792455Y-84857547D01*
X134907664Y-84943793D01*
X134907671Y-84943797D01*
X135042517Y-84994091D01*
X135042516Y-84994091D01*
X135049444Y-84994835D01*
X135102127Y-85000500D01*
X136097872Y-85000499D01*
X136157483Y-84994091D01*
X136191667Y-84981340D01*
X136261358Y-84976357D01*
X136278327Y-84981338D01*
X136312517Y-84994091D01*
X136372127Y-85000500D01*
X137367872Y-85000499D01*
X137427483Y-84994091D01*
X137461667Y-84981340D01*
X137531358Y-84976357D01*
X137548327Y-84981338D01*
X137582517Y-84994091D01*
X137642127Y-85000500D01*
X138637872Y-85000499D01*
X138697483Y-84994091D01*
X138731667Y-84981340D01*
X138801358Y-84976357D01*
X138818327Y-84981338D01*
X138852517Y-84994091D01*
X138912127Y-85000500D01*
X139230902Y-85000499D01*
X139297940Y-85020183D01*
X139343695Y-85072987D01*
X139353639Y-85142146D01*
X139324614Y-85205701D01*
X139318582Y-85212180D01*
X136577584Y-87953181D01*
X136516261Y-87986666D01*
X136489903Y-87989500D01*
X134918086Y-87989500D01*
X134851047Y-87969815D01*
X134817767Y-87938384D01*
X134758486Y-87856789D01*
X134633216Y-87731519D01*
X134633214Y-87731517D01*
X134489890Y-87627386D01*
X134332042Y-87546957D01*
X134332039Y-87546956D01*
X134163556Y-87492214D01*
X134076067Y-87478357D01*
X133988579Y-87464500D01*
X133811421Y-87464500D01*
X133753095Y-87473738D01*
X133636443Y-87492214D01*
X133467960Y-87546956D01*
X133467957Y-87546957D01*
X133310109Y-87627386D01*
X133228338Y-87686796D01*
X133166786Y-87731517D01*
X133166784Y-87731519D01*
X133166783Y-87731519D01*
X133041519Y-87856783D01*
X133041519Y-87856784D01*
X133041517Y-87856786D01*
X133041515Y-87856789D01*
X132937386Y-88000109D01*
X132856957Y-88157957D01*
X132856956Y-88157960D01*
X132802214Y-88326443D01*
X132774500Y-88501421D01*
X132774500Y-88678578D01*
X132802214Y-88853556D01*
X132856956Y-89022039D01*
X132856957Y-89022042D01*
X132929665Y-89164736D01*
X132937386Y-89179890D01*
X133041517Y-89323214D01*
X133166786Y-89448483D01*
X133310110Y-89552614D01*
X133356520Y-89576261D01*
X133467957Y-89633042D01*
X133467960Y-89633043D01*
X133544433Y-89657890D01*
X133636445Y-89687786D01*
X133811421Y-89715500D01*
X133811422Y-89715500D01*
X133988578Y-89715500D01*
X133988579Y-89715500D01*
X134163555Y-89687786D01*
X134332042Y-89633042D01*
X134489890Y-89552614D01*
X134633214Y-89448483D01*
X134758483Y-89323214D01*
X134817767Y-89241615D01*
X134873097Y-89198949D01*
X134918086Y-89190500D01*
X136310902Y-89190500D01*
X136377941Y-89210185D01*
X136423696Y-89262989D01*
X136433640Y-89332147D01*
X136404615Y-89395703D01*
X136398583Y-89402181D01*
X135307584Y-90493181D01*
X135246261Y-90526666D01*
X135219903Y-90529500D01*
X134918086Y-90529500D01*
X134851047Y-90509815D01*
X134817767Y-90478384D01*
X134758486Y-90396789D01*
X134633216Y-90271519D01*
X134633214Y-90271517D01*
X134489890Y-90167386D01*
X134332042Y-90086957D01*
X134332039Y-90086956D01*
X134163556Y-90032214D01*
X134076067Y-90018357D01*
X133988579Y-90004500D01*
X133811421Y-90004500D01*
X133753095Y-90013738D01*
X133636443Y-90032214D01*
X133467960Y-90086956D01*
X133467957Y-90086957D01*
X133310109Y-90167386D01*
X133239466Y-90218712D01*
X133166786Y-90271517D01*
X133166784Y-90271519D01*
X133166783Y-90271519D01*
X133041519Y-90396783D01*
X133041519Y-90396784D01*
X133041517Y-90396786D01*
X133041515Y-90396789D01*
X132937386Y-90540109D01*
X132856957Y-90697957D01*
X132856956Y-90697960D01*
X132802214Y-90866443D01*
X132774500Y-91041421D01*
X132774500Y-91218578D01*
X132802214Y-91393556D01*
X132856956Y-91562039D01*
X132856957Y-91562042D01*
X132929665Y-91704736D01*
X132937386Y-91719890D01*
X133041517Y-91863214D01*
X133166786Y-91988483D01*
X133310110Y-92092614D01*
X133387529Y-92132061D01*
X133467957Y-92173042D01*
X133467960Y-92173043D01*
X133544433Y-92197890D01*
X133636445Y-92227786D01*
X133811421Y-92255500D01*
X133811422Y-92255500D01*
X133988578Y-92255500D01*
X133988579Y-92255500D01*
X134163555Y-92227786D01*
X134332042Y-92173042D01*
X134489890Y-92092614D01*
X134551029Y-92048193D01*
X134583140Y-92036735D01*
X134615067Y-92024828D01*
X134615966Y-92025023D01*
X134616834Y-92024714D01*
X134650031Y-92032433D01*
X134683340Y-92039679D01*
X134684308Y-92040404D01*
X134684888Y-92040539D01*
X134711592Y-92060828D01*
X134789934Y-92139169D01*
X134823418Y-92200490D01*
X134824725Y-92246247D01*
X134799500Y-92405513D01*
X134799500Y-92594486D01*
X134813137Y-92680586D01*
X134804183Y-92749879D01*
X134759186Y-92803331D01*
X134692435Y-92823971D01*
X134625121Y-92805246D01*
X134617779Y-92800302D01*
X134489893Y-92707388D01*
X134489892Y-92707387D01*
X134489890Y-92707386D01*
X134437292Y-92680586D01*
X134332042Y-92626957D01*
X134332039Y-92626956D01*
X134163556Y-92572214D01*
X134076067Y-92558357D01*
X133988579Y-92544500D01*
X133811421Y-92544500D01*
X133753095Y-92553738D01*
X133636443Y-92572214D01*
X133467960Y-92626956D01*
X133467957Y-92626957D01*
X133310109Y-92707386D01*
X133251623Y-92749879D01*
X133166786Y-92811517D01*
X133166784Y-92811519D01*
X133166783Y-92811519D01*
X133041519Y-92936783D01*
X133041519Y-92936784D01*
X133041517Y-92936786D01*
X133024047Y-92960832D01*
X132937386Y-93080109D01*
X132856957Y-93237957D01*
X132856956Y-93237960D01*
X132802214Y-93406443D01*
X132774500Y-93581421D01*
X132774500Y-93758578D01*
X132802214Y-93933556D01*
X132856956Y-94102039D01*
X132856957Y-94102042D01*
X132929665Y-94244736D01*
X132937386Y-94259890D01*
X133041517Y-94403214D01*
X133166786Y-94528483D01*
X133310110Y-94632614D01*
X133387529Y-94672061D01*
X133467957Y-94713042D01*
X133467960Y-94713043D01*
X133552201Y-94740414D01*
X133636445Y-94767786D01*
X133811421Y-94795500D01*
X133811422Y-94795500D01*
X133988578Y-94795500D01*
X133988579Y-94795500D01*
X134163555Y-94767786D01*
X134332042Y-94713042D01*
X134489890Y-94632614D01*
X134633214Y-94528483D01*
X134758483Y-94403214D01*
X134862614Y-94259890D01*
X134943042Y-94102042D01*
X134997786Y-93933555D01*
X135025500Y-93758579D01*
X135025500Y-93581421D01*
X135017622Y-93531682D01*
X135026576Y-93462390D01*
X135071573Y-93408938D01*
X135138324Y-93388298D01*
X135205638Y-93407023D01*
X135213838Y-93413028D01*
X135213986Y-93412826D01*
X135217924Y-93415687D01*
X135217927Y-93415690D01*
X135370801Y-93526760D01*
X135450347Y-93567290D01*
X135539163Y-93612545D01*
X135539165Y-93612545D01*
X135539168Y-93612547D01*
X135634132Y-93643403D01*
X135718881Y-93670940D01*
X135905514Y-93700500D01*
X135905519Y-93700500D01*
X136094486Y-93700500D01*
X136281118Y-93670940D01*
X136460832Y-93612547D01*
X136629199Y-93526760D01*
X136782073Y-93415690D01*
X136915690Y-93282073D01*
X136949682Y-93235286D01*
X137005012Y-93192621D01*
X137074625Y-93186642D01*
X137136420Y-93219248D01*
X137150316Y-93235285D01*
X137184310Y-93282073D01*
X137317927Y-93415690D01*
X137470801Y-93526760D01*
X137550347Y-93567290D01*
X137639163Y-93612545D01*
X137639165Y-93612545D01*
X137639168Y-93612547D01*
X137734132Y-93643403D01*
X137818881Y-93670940D01*
X138005514Y-93700500D01*
X138005519Y-93700500D01*
X138194486Y-93700500D01*
X138381118Y-93670940D01*
X138560832Y-93612547D01*
X138729199Y-93526760D01*
X138882073Y-93415690D01*
X139015690Y-93282073D01*
X139126760Y-93129199D01*
X139212547Y-92960832D01*
X139270940Y-92781118D01*
X139275888Y-92749879D01*
X139300500Y-92594486D01*
X139300500Y-92405513D01*
X139270940Y-92218881D01*
X139223382Y-92072514D01*
X139212547Y-92039168D01*
X139212545Y-92039165D01*
X139212545Y-92039163D01*
X139150789Y-91917961D01*
X139126760Y-91870801D01*
X139015690Y-91717927D01*
X138882073Y-91584310D01*
X138729199Y-91473240D01*
X138560836Y-91387454D01*
X138381118Y-91329059D01*
X138194486Y-91299500D01*
X138194481Y-91299500D01*
X138005519Y-91299500D01*
X138005514Y-91299500D01*
X137818881Y-91329059D01*
X137639163Y-91387454D01*
X137470800Y-91473240D01*
X137394379Y-91528764D01*
X137317927Y-91584310D01*
X137317925Y-91584312D01*
X137317924Y-91584312D01*
X137184312Y-91717924D01*
X137184305Y-91717933D01*
X137150317Y-91764713D01*
X137094987Y-91807379D01*
X137025374Y-91813357D01*
X136963579Y-91780751D01*
X136949683Y-91764713D01*
X136915694Y-91717933D01*
X136915690Y-91717927D01*
X136782073Y-91584310D01*
X136629199Y-91473240D01*
X136460836Y-91387454D01*
X136430367Y-91377554D01*
X136389824Y-91364381D01*
X136332151Y-91324944D01*
X136304953Y-91260585D01*
X136316868Y-91191739D01*
X136340461Y-91158773D01*
X137519641Y-89979592D01*
X137580964Y-89946108D01*
X137650656Y-89951092D01*
X137695003Y-89979593D01*
X140152428Y-92437018D01*
X140185913Y-92498341D01*
X140188747Y-92524699D01*
X140188747Y-93643403D01*
X140169062Y-93710442D01*
X140167849Y-93712294D01*
X140104856Y-93806568D01*
X140104849Y-93806581D01*
X140044511Y-93952251D01*
X140044508Y-93952263D01*
X140013747Y-94106906D01*
X140013747Y-94264599D01*
X140044508Y-94419242D01*
X140044511Y-94419254D01*
X140104849Y-94564925D01*
X140104856Y-94564938D01*
X140192457Y-94696041D01*
X140192460Y-94696045D01*
X140303954Y-94807539D01*
X140303958Y-94807542D01*
X140435061Y-94895143D01*
X140435074Y-94895150D01*
X140522477Y-94931352D01*
X140580750Y-94955490D01*
X140691963Y-94977611D01*
X140753870Y-95009994D01*
X140755450Y-95011546D01*
X141041675Y-95297771D01*
X141075160Y-95359094D01*
X141077994Y-95385452D01*
X141077994Y-95787727D01*
X141092807Y-95900235D01*
X141092807Y-95900236D01*
X141121961Y-95970621D01*
X141150796Y-96040233D01*
X141243043Y-96160451D01*
X141363261Y-96252698D01*
X141503258Y-96310687D01*
X141610080Y-96324750D01*
X141615758Y-96325498D01*
X141615774Y-96325500D01*
X141615781Y-96325500D01*
X141841207Y-96325500D01*
X141841214Y-96325500D01*
X141953730Y-96310687D01*
X141953730Y-96310686D01*
X141961789Y-96309626D01*
X141962192Y-96312689D01*
X141994796Y-96312689D01*
X141995199Y-96309626D01*
X142003257Y-96310686D01*
X142003258Y-96310687D01*
X142115774Y-96325500D01*
X142115781Y-96325500D01*
X142341207Y-96325500D01*
X142341214Y-96325500D01*
X142453730Y-96310687D01*
X142453730Y-96310686D01*
X142461789Y-96309626D01*
X142462192Y-96312689D01*
X142494796Y-96312689D01*
X142495199Y-96309626D01*
X142503257Y-96310686D01*
X142503258Y-96310687D01*
X142615774Y-96325500D01*
X142615781Y-96325500D01*
X142841207Y-96325500D01*
X142841214Y-96325500D01*
X142953730Y-96310687D01*
X143093727Y-96252698D01*
X143213945Y-96160451D01*
X143306192Y-96040233D01*
X143364181Y-95900236D01*
X143378994Y-95787720D01*
X143378994Y-94412280D01*
X143364181Y-94299764D01*
X143306192Y-94159767D01*
X143213945Y-94039549D01*
X143093727Y-93947302D01*
X143093724Y-93947301D01*
X143093722Y-93947299D01*
X143069543Y-93937284D01*
X143015139Y-93893443D01*
X142993074Y-93827149D01*
X143002434Y-93775271D01*
X143019735Y-93733501D01*
X143019737Y-93733497D01*
X143050500Y-93578842D01*
X143050500Y-93421158D01*
X143050500Y-93421155D01*
X143050499Y-93421153D01*
X143040816Y-93372474D01*
X143019737Y-93266503D01*
X143007914Y-93237960D01*
X142959397Y-93120827D01*
X142959390Y-93120814D01*
X142871789Y-92989711D01*
X142871786Y-92989707D01*
X142760292Y-92878213D01*
X142760288Y-92878210D01*
X142629185Y-92790609D01*
X142629172Y-92790602D01*
X142483501Y-92730264D01*
X142483489Y-92730261D01*
X142328845Y-92699500D01*
X142328842Y-92699500D01*
X142171158Y-92699500D01*
X142171155Y-92699500D01*
X142016510Y-92730261D01*
X142016498Y-92730264D01*
X141870827Y-92790602D01*
X141870814Y-92790609D01*
X141739711Y-92878210D01*
X141739707Y-92878213D01*
X141651428Y-92966493D01*
X141590105Y-92999978D01*
X141520413Y-92994994D01*
X141464480Y-92953122D01*
X141440063Y-92887658D01*
X141439747Y-92878812D01*
X141439747Y-92152640D01*
X141439746Y-92152636D01*
X141417278Y-92039679D01*
X141415710Y-92031795D01*
X141368558Y-91917961D01*
X141368557Y-91917960D01*
X141368554Y-91917954D01*
X141300106Y-91815515D01*
X141265342Y-91780751D01*
X141212980Y-91728389D01*
X141212979Y-91728388D01*
X138579592Y-89095002D01*
X138546108Y-89033680D01*
X138551092Y-88963988D01*
X138579593Y-88919641D01*
X139499125Y-88000110D01*
X142430520Y-85068716D01*
X142442019Y-85048797D01*
X142460112Y-85031544D01*
X142475097Y-85011529D01*
X142489149Y-85003855D01*
X142492580Y-85000585D01*
X142506074Y-84994615D01*
X142507477Y-84994091D01*
X142507483Y-84994091D01*
X142541670Y-84981339D01*
X142611360Y-84976357D01*
X142628332Y-84981341D01*
X142662517Y-84994091D01*
X142662516Y-84994091D01*
X142669444Y-84994835D01*
X142722127Y-85000500D01*
X143717872Y-85000499D01*
X143777483Y-84994091D01*
X143811667Y-84981340D01*
X143881358Y-84976357D01*
X143898327Y-84981338D01*
X143932517Y-84994091D01*
X143992127Y-85000500D01*
X144987872Y-85000499D01*
X145047483Y-84994091D01*
X145081667Y-84981340D01*
X145151358Y-84976357D01*
X145168327Y-84981338D01*
X145202517Y-84994091D01*
X145262127Y-85000500D01*
X146257872Y-85000499D01*
X146257874Y-85000498D01*
X146257887Y-85000498D01*
X146286803Y-84997388D01*
X146292244Y-84996804D01*
X146361003Y-85009208D01*
X146412141Y-85056818D01*
X146429500Y-85120093D01*
X146429500Y-89763330D01*
X146429499Y-89763348D01*
X146429499Y-89929054D01*
X146429498Y-89929054D01*
X146470423Y-90081785D01*
X146470424Y-90081788D01*
X146473410Y-90086959D01*
X146473413Y-90086964D01*
X146549477Y-90218712D01*
X146549481Y-90218717D01*
X146668349Y-90337585D01*
X146668355Y-90337590D01*
X150511784Y-94181019D01*
X150545269Y-94242342D01*
X150546576Y-94288097D01*
X150526908Y-94412280D01*
X150524500Y-94427486D01*
X150524500Y-94612514D01*
X150537730Y-94696042D01*
X150553445Y-94795265D01*
X150610619Y-94971232D01*
X150610620Y-94971235D01*
X150694622Y-95136096D01*
X150803379Y-95285787D01*
X150934213Y-95416621D01*
X151083904Y-95525378D01*
X151164763Y-95566577D01*
X151248764Y-95609379D01*
X151248767Y-95609380D01*
X151336750Y-95637967D01*
X151424736Y-95666555D01*
X151429798Y-95667356D01*
X151430872Y-95667527D01*
X151494007Y-95697456D01*
X151530938Y-95756768D01*
X151529940Y-95826630D01*
X151491330Y-95884863D01*
X151430872Y-95912473D01*
X151424734Y-95913445D01*
X151248767Y-95970619D01*
X151248764Y-95970620D01*
X151083903Y-96054622D01*
X150998499Y-96116672D01*
X150934213Y-96163379D01*
X150934211Y-96163381D01*
X150934210Y-96163381D01*
X150803381Y-96294210D01*
X150803381Y-96294211D01*
X150803379Y-96294213D01*
X150780648Y-96325500D01*
X150694622Y-96443903D01*
X150610620Y-96608764D01*
X150610619Y-96608767D01*
X150553445Y-96784734D01*
X150524500Y-96967486D01*
X150524500Y-97152513D01*
X150553445Y-97335265D01*
X150610619Y-97511232D01*
X150610620Y-97511235D01*
X150694622Y-97676096D01*
X150803379Y-97825787D01*
X150934213Y-97956621D01*
X151083904Y-98065378D01*
X151164763Y-98106577D01*
X151248764Y-98149379D01*
X151248767Y-98149380D01*
X151352452Y-98183069D01*
X151410127Y-98222506D01*
X151437326Y-98286865D01*
X151425412Y-98355711D01*
X151378168Y-98407187D01*
X151314134Y-98425000D01*
X150977155Y-98425000D01*
X150917627Y-98431401D01*
X150917620Y-98431403D01*
X150782913Y-98481645D01*
X150782906Y-98481649D01*
X150667812Y-98567809D01*
X150667809Y-98567812D01*
X150581649Y-98682906D01*
X150581645Y-98682913D01*
X150531403Y-98817620D01*
X150531401Y-98817627D01*
X150525000Y-98877155D01*
X150525000Y-99350000D01*
X151384314Y-99350000D01*
X151379920Y-99354394D01*
X151327259Y-99445606D01*
X151300000Y-99547339D01*
X151300000Y-99652661D01*
X151327259Y-99754394D01*
X151379920Y-99845606D01*
X151384314Y-99850000D01*
X150525000Y-99850000D01*
X150525000Y-100322844D01*
X150531401Y-100382372D01*
X150531403Y-100382379D01*
X150581645Y-100517086D01*
X150581649Y-100517093D01*
X150667809Y-100632187D01*
X150667812Y-100632190D01*
X150782906Y-100718350D01*
X150782913Y-100718354D01*
X150917620Y-100768596D01*
X150917627Y-100768598D01*
X150977155Y-100774999D01*
X150977172Y-100775000D01*
X151450000Y-100775000D01*
X151450000Y-99915686D01*
X151454394Y-99920080D01*
X151545606Y-99972741D01*
X151647339Y-100000000D01*
X151752661Y-100000000D01*
X151854394Y-99972741D01*
X151945606Y-99920080D01*
X151950000Y-99915686D01*
X151950000Y-100775000D01*
X152422828Y-100775000D01*
X152422844Y-100774999D01*
X152482372Y-100768598D01*
X152482379Y-100768596D01*
X152617086Y-100718354D01*
X152617093Y-100718350D01*
X152732187Y-100632190D01*
X152732190Y-100632187D01*
X152818350Y-100517093D01*
X152818354Y-100517086D01*
X152868596Y-100382379D01*
X152868598Y-100382372D01*
X152874999Y-100322844D01*
X152875000Y-100322827D01*
X152875000Y-99850000D01*
X152015686Y-99850000D01*
X152020080Y-99845606D01*
X152072741Y-99754394D01*
X152100000Y-99652661D01*
X152100000Y-99547339D01*
X152072741Y-99445606D01*
X152020080Y-99354394D01*
X152015686Y-99350000D01*
X152875000Y-99350000D01*
X152875000Y-98877172D01*
X152874999Y-98877155D01*
X152868598Y-98817627D01*
X152868596Y-98817620D01*
X152818354Y-98682913D01*
X152818350Y-98682906D01*
X152732190Y-98567812D01*
X152732187Y-98567809D01*
X152617093Y-98481649D01*
X152617086Y-98481645D01*
X152482379Y-98431403D01*
X152482372Y-98431401D01*
X152422844Y-98425000D01*
X152085866Y-98425000D01*
X152018827Y-98405315D01*
X151973072Y-98352511D01*
X151963128Y-98283353D01*
X151992153Y-98219797D01*
X152047548Y-98183069D01*
X152151232Y-98149380D01*
X152151235Y-98149379D01*
X152316096Y-98065378D01*
X152465787Y-97956621D01*
X152596621Y-97825787D01*
X152705378Y-97676096D01*
X152789379Y-97511235D01*
X152846555Y-97335264D01*
X152875500Y-97152514D01*
X152875500Y-96967486D01*
X152846555Y-96784736D01*
X152789379Y-96608765D01*
X152789379Y-96608764D01*
X152705377Y-96443903D01*
X152596621Y-96294213D01*
X152465787Y-96163379D01*
X152316096Y-96054622D01*
X152287856Y-96040233D01*
X152151235Y-95970620D01*
X152151232Y-95970619D01*
X151975269Y-95913446D01*
X151975265Y-95913445D01*
X151975264Y-95913445D01*
X151969126Y-95912472D01*
X151905994Y-95882545D01*
X151869062Y-95823234D01*
X151870058Y-95753371D01*
X151908667Y-95695138D01*
X151969126Y-95667527D01*
X151975264Y-95666555D01*
X152151235Y-95609379D01*
X152316096Y-95525378D01*
X152465787Y-95416621D01*
X152596621Y-95285787D01*
X152705378Y-95136096D01*
X152789379Y-94971235D01*
X152846555Y-94795264D01*
X152875500Y-94612514D01*
X152875500Y-94427486D01*
X152846555Y-94244736D01*
X152800191Y-94102042D01*
X152789380Y-94068767D01*
X152789379Y-94068764D01*
X152730018Y-93952263D01*
X152705378Y-93903904D01*
X152596621Y-93754213D01*
X152465787Y-93623379D01*
X152316096Y-93514622D01*
X152151235Y-93430620D01*
X152151232Y-93430619D01*
X151975269Y-93373446D01*
X151975265Y-93373445D01*
X151975264Y-93373445D01*
X151969126Y-93372472D01*
X151905994Y-93342545D01*
X151869062Y-93283234D01*
X151870058Y-93213371D01*
X151908667Y-93155138D01*
X151969126Y-93127527D01*
X151975264Y-93126555D01*
X152151235Y-93069379D01*
X152316096Y-92985378D01*
X152465787Y-92876621D01*
X152596621Y-92745787D01*
X152705378Y-92596096D01*
X152789379Y-92431235D01*
X152846555Y-92255264D01*
X152875500Y-92072514D01*
X152875500Y-91887486D01*
X152846555Y-91704736D01*
X152800191Y-91562042D01*
X152789380Y-91528767D01*
X152789379Y-91528764D01*
X152717377Y-91387454D01*
X152705378Y-91363904D01*
X152596621Y-91214213D01*
X152465787Y-91083379D01*
X152316096Y-90974622D01*
X152151235Y-90890620D01*
X152151232Y-90890619D01*
X151975269Y-90833446D01*
X151975265Y-90833445D01*
X151975264Y-90833445D01*
X151969126Y-90832472D01*
X151905994Y-90802545D01*
X151869062Y-90743234D01*
X151870058Y-90673371D01*
X151908667Y-90615138D01*
X151969126Y-90587527D01*
X151975264Y-90586555D01*
X152151235Y-90529379D01*
X152316096Y-90445378D01*
X152465787Y-90336621D01*
X152596621Y-90205787D01*
X152705378Y-90056096D01*
X152789379Y-89891235D01*
X152846555Y-89715264D01*
X152875500Y-89532514D01*
X152875500Y-89347486D01*
X152846555Y-89164736D01*
X152800191Y-89022042D01*
X152789380Y-88988767D01*
X152789379Y-88988764D01*
X152705377Y-88823903D01*
X152596621Y-88674213D01*
X152465787Y-88543379D01*
X152316096Y-88434622D01*
X152151235Y-88350620D01*
X152151232Y-88350619D01*
X151975269Y-88293446D01*
X151975265Y-88293445D01*
X151975264Y-88293445D01*
X151969126Y-88292472D01*
X151905994Y-88262545D01*
X151869062Y-88203234D01*
X151870058Y-88133371D01*
X151908667Y-88075138D01*
X151969126Y-88047527D01*
X151975264Y-88046555D01*
X152151235Y-87989379D01*
X152316096Y-87905378D01*
X152465787Y-87796621D01*
X152596621Y-87665787D01*
X152705378Y-87516096D01*
X152789379Y-87351235D01*
X152846555Y-87175264D01*
X152875500Y-86992514D01*
X152875500Y-86807486D01*
X152846555Y-86624736D01*
X152789379Y-86448765D01*
X152789379Y-86448764D01*
X152705377Y-86283903D01*
X152596621Y-86134213D01*
X152465787Y-86003379D01*
X152316096Y-85894622D01*
X152151235Y-85810620D01*
X152151232Y-85810619D01*
X151975265Y-85753445D01*
X151883889Y-85738972D01*
X151792514Y-85724500D01*
X151607486Y-85724500D01*
X151546569Y-85734148D01*
X151424734Y-85753445D01*
X151248767Y-85810619D01*
X151248764Y-85810620D01*
X151083903Y-85894622D01*
X150998499Y-85956672D01*
X150934213Y-86003379D01*
X150934211Y-86003381D01*
X150934210Y-86003381D01*
X150803381Y-86134210D01*
X150803381Y-86134211D01*
X150803379Y-86134213D01*
X150756672Y-86198499D01*
X150694622Y-86283903D01*
X150610620Y-86448764D01*
X150610619Y-86448767D01*
X150553445Y-86624734D01*
X150524500Y-86807486D01*
X150524500Y-86992513D01*
X150553445Y-87175265D01*
X150610619Y-87351232D01*
X150610620Y-87351235D01*
X150668332Y-87464500D01*
X150694622Y-87516096D01*
X150803379Y-87665787D01*
X150934213Y-87796621D01*
X151083904Y-87905378D01*
X151148682Y-87938384D01*
X151248764Y-87989379D01*
X151248767Y-87989380D01*
X151336750Y-88017967D01*
X151424736Y-88046555D01*
X151429798Y-88047356D01*
X151430872Y-88047527D01*
X151494007Y-88077456D01*
X151530938Y-88136768D01*
X151529940Y-88206630D01*
X151491330Y-88264863D01*
X151430872Y-88292473D01*
X151424734Y-88293445D01*
X151248767Y-88350619D01*
X151248764Y-88350620D01*
X151083903Y-88434622D01*
X150998499Y-88496672D01*
X150934213Y-88543379D01*
X150934211Y-88543381D01*
X150934210Y-88543381D01*
X150803381Y-88674210D01*
X150803381Y-88674211D01*
X150803379Y-88674213D01*
X150800208Y-88678578D01*
X150694622Y-88823903D01*
X150610620Y-88988764D01*
X150610619Y-88988767D01*
X150553445Y-89164734D01*
X150524500Y-89347486D01*
X150524500Y-89532514D01*
X150524499Y-89532514D01*
X150544357Y-89657890D01*
X150535402Y-89727183D01*
X150490406Y-89780635D01*
X150423654Y-89801274D01*
X150356340Y-89782549D01*
X150334203Y-89764968D01*
X148936819Y-88367584D01*
X148903334Y-88306261D01*
X148900500Y-88279903D01*
X148900500Y-85120093D01*
X148920185Y-85053054D01*
X148972989Y-85007299D01*
X149037754Y-84996804D01*
X149072127Y-85000500D01*
X150067872Y-85000499D01*
X150127483Y-84994091D01*
X150161667Y-84981340D01*
X150231358Y-84976357D01*
X150248327Y-84981338D01*
X150282517Y-84994091D01*
X150342127Y-85000500D01*
X151337872Y-85000499D01*
X151397483Y-84994091D01*
X151432381Y-84981074D01*
X151502069Y-84976089D01*
X151519050Y-84981075D01*
X151552623Y-84993598D01*
X151612155Y-84999999D01*
X151612172Y-85000000D01*
X151860000Y-85000000D01*
X152360000Y-85000000D01*
X152607828Y-85000000D01*
X152607844Y-84999999D01*
X152667372Y-84993598D01*
X152667379Y-84993596D01*
X152802086Y-84943354D01*
X152802093Y-84943350D01*
X152917187Y-84857190D01*
X152917190Y-84857187D01*
X153003350Y-84742093D01*
X153003354Y-84742086D01*
X153053596Y-84607379D01*
X153053598Y-84607372D01*
X153059999Y-84547844D01*
X153060000Y-84547827D01*
X153060000Y-84000000D01*
X152360000Y-84000000D01*
X152360000Y-85000000D01*
X151860000Y-85000000D01*
X151860000Y-83500000D01*
X152360000Y-83500000D01*
X153060000Y-83500000D01*
X153060000Y-82952172D01*
X153059999Y-82952155D01*
X153053598Y-82892627D01*
X153053596Y-82892620D01*
X153003354Y-82757913D01*
X153003350Y-82757906D01*
X152917190Y-82642812D01*
X152917187Y-82642809D01*
X152802093Y-82556649D01*
X152802086Y-82556645D01*
X152667379Y-82506403D01*
X152667372Y-82506401D01*
X152607844Y-82500000D01*
X152360000Y-82500000D01*
X152360000Y-83500000D01*
X151860000Y-83500000D01*
X151860000Y-82500000D01*
X151612155Y-82500000D01*
X151552627Y-82506401D01*
X151552619Y-82506403D01*
X151519047Y-82518925D01*
X151449355Y-82523909D01*
X151432381Y-82518925D01*
X151397482Y-82505908D01*
X151397483Y-82505908D01*
X151337883Y-82499501D01*
X151337881Y-82499500D01*
X151337873Y-82499500D01*
X151337864Y-82499500D01*
X150342129Y-82499500D01*
X150342123Y-82499501D01*
X150282518Y-82505908D01*
X150248331Y-82518659D01*
X150178639Y-82523642D01*
X150161669Y-82518659D01*
X150144140Y-82512121D01*
X150127483Y-82505909D01*
X150127482Y-82505908D01*
X150067883Y-82499501D01*
X150067881Y-82499500D01*
X150067873Y-82499500D01*
X150067864Y-82499500D01*
X149072129Y-82499500D01*
X149072123Y-82499501D01*
X149012518Y-82505908D01*
X148978331Y-82518659D01*
X148908639Y-82523642D01*
X148891669Y-82518659D01*
X148874140Y-82512121D01*
X148857483Y-82505909D01*
X148857482Y-82505908D01*
X148797883Y-82499501D01*
X148797881Y-82499500D01*
X148797873Y-82499500D01*
X148797864Y-82499500D01*
X147802129Y-82499500D01*
X147802123Y-82499501D01*
X147742518Y-82505908D01*
X147708331Y-82518659D01*
X147638639Y-82523642D01*
X147621669Y-82518659D01*
X147604140Y-82512121D01*
X147587483Y-82505909D01*
X147587482Y-82505908D01*
X147527883Y-82499501D01*
X147527881Y-82499500D01*
X147527873Y-82499500D01*
X147527864Y-82499500D01*
X146532129Y-82499500D01*
X146532123Y-82499501D01*
X146472518Y-82505908D01*
X146438331Y-82518659D01*
X146368639Y-82523642D01*
X146351669Y-82518659D01*
X146334140Y-82512121D01*
X146317483Y-82505909D01*
X146317482Y-82505908D01*
X146257883Y-82499501D01*
X146257881Y-82499500D01*
X146257873Y-82499500D01*
X146257864Y-82499500D01*
X145262129Y-82499500D01*
X145262123Y-82499501D01*
X145202518Y-82505908D01*
X145168331Y-82518659D01*
X145098639Y-82523642D01*
X145081669Y-82518659D01*
X145064140Y-82512121D01*
X145047483Y-82505909D01*
X145047482Y-82505908D01*
X144987883Y-82499501D01*
X144987881Y-82499500D01*
X144987873Y-82499500D01*
X144987864Y-82499500D01*
X143992129Y-82499500D01*
X143992123Y-82499501D01*
X143932518Y-82505908D01*
X143898331Y-82518659D01*
X143828639Y-82523642D01*
X143811669Y-82518659D01*
X143794140Y-82512121D01*
X143777483Y-82505909D01*
X143777482Y-82505908D01*
X143717883Y-82499501D01*
X143717881Y-82499500D01*
X143717873Y-82499500D01*
X143717864Y-82499500D01*
X142722129Y-82499500D01*
X142722123Y-82499501D01*
X142662518Y-82505908D01*
X142628331Y-82518659D01*
X142558639Y-82523642D01*
X142541669Y-82518659D01*
X142524140Y-82512121D01*
X142507483Y-82505909D01*
X142507482Y-82505908D01*
X142447883Y-82499501D01*
X142447881Y-82499500D01*
X142447873Y-82499500D01*
X142447864Y-82499500D01*
X141452129Y-82499500D01*
X141452123Y-82499501D01*
X141392518Y-82505908D01*
X141358331Y-82518659D01*
X141288639Y-82523642D01*
X141271669Y-82518659D01*
X141254140Y-82512121D01*
X141237483Y-82505909D01*
X141237482Y-82505908D01*
X141177883Y-82499501D01*
X141177881Y-82499500D01*
X141177873Y-82499500D01*
X141177864Y-82499500D01*
X140182129Y-82499500D01*
X140182123Y-82499501D01*
X140122518Y-82505908D01*
X140088331Y-82518659D01*
X140018639Y-82523642D01*
X140001669Y-82518659D01*
X139984140Y-82512121D01*
X139967483Y-82505909D01*
X139967482Y-82505908D01*
X139907883Y-82499501D01*
X139907881Y-82499500D01*
X139907873Y-82499500D01*
X139907864Y-82499500D01*
X138912129Y-82499500D01*
X138912123Y-82499501D01*
X138852518Y-82505908D01*
X138818331Y-82518659D01*
X138748639Y-82523642D01*
X138731669Y-82518659D01*
X138714140Y-82512121D01*
X138697483Y-82505909D01*
X138697482Y-82505908D01*
X138637883Y-82499501D01*
X138637881Y-82499500D01*
X138637873Y-82499500D01*
X138637864Y-82499500D01*
X137642129Y-82499500D01*
X137642123Y-82499501D01*
X137582518Y-82505908D01*
X137548331Y-82518659D01*
X137479333Y-82523790D01*
X137470304Y-82521879D01*
X137427483Y-82505909D01*
X137367873Y-82499500D01*
X137364528Y-82499500D01*
X137354910Y-82497465D01*
X137329473Y-82483763D01*
X137302770Y-82472702D01*
X137299084Y-82467393D01*
X137293397Y-82464330D01*
X137279405Y-82439049D01*
X137262922Y-82415309D01*
X137262691Y-82408851D01*
X137259563Y-82403199D01*
X137261460Y-82374363D01*
X137260429Y-82345483D01*
X137263743Y-82339663D01*
X137264150Y-82333480D01*
X137277679Y-82315190D01*
X137292894Y-82288472D01*
X142894548Y-76686819D01*
X142955871Y-76653334D01*
X142982229Y-76650500D01*
X146863920Y-76650500D01*
X146961462Y-76631096D01*
X147008913Y-76621658D01*
X147077204Y-76593371D01*
X147145491Y-76565086D01*
X147145492Y-76565085D01*
X147145495Y-76565084D01*
X147199804Y-76528796D01*
X147268416Y-76482952D01*
X153388319Y-70363049D01*
X153449642Y-70329564D01*
X153519334Y-70334548D01*
X153575267Y-70376420D01*
X153599684Y-70441884D01*
X153600000Y-70450730D01*
X153600000Y-99000000D01*
X165075500Y-99000000D01*
X165142539Y-99019685D01*
X165188294Y-99072489D01*
X165199500Y-99124000D01*
X165199500Y-113075500D01*
X165179815Y-113142539D01*
X165127011Y-113188294D01*
X165075500Y-113199500D01*
X125924500Y-113199500D01*
X125857461Y-113179815D01*
X125811706Y-113127011D01*
X125800500Y-113075500D01*
X125800500Y-109528711D01*
X126999500Y-109528711D01*
X126999500Y-109771288D01*
X127031161Y-110011785D01*
X127093947Y-110246104D01*
X127105684Y-110274439D01*
X127186776Y-110470212D01*
X127308064Y-110680289D01*
X127308066Y-110680292D01*
X127308067Y-110680293D01*
X127455733Y-110872736D01*
X127455739Y-110872743D01*
X127627256Y-111044260D01*
X127627262Y-111044265D01*
X127819711Y-111191936D01*
X128029788Y-111313224D01*
X128253900Y-111406054D01*
X128488211Y-111468838D01*
X128668586Y-111492584D01*
X128728711Y-111500500D01*
X128728712Y-111500500D01*
X128971289Y-111500500D01*
X129019388Y-111494167D01*
X129211789Y-111468838D01*
X129446100Y-111406054D01*
X129670212Y-111313224D01*
X129880289Y-111191936D01*
X130072738Y-111044265D01*
X130244265Y-110872738D01*
X130391936Y-110680289D01*
X130513224Y-110470212D01*
X130606054Y-110246100D01*
X130668838Y-110011789D01*
X130700500Y-109771288D01*
X130700500Y-109528712D01*
X130668838Y-109288211D01*
X130611234Y-109073231D01*
X130611234Y-109073229D01*
X130606054Y-109053900D01*
X130513226Y-108829794D01*
X130513224Y-108829788D01*
X130391936Y-108619711D01*
X130277779Y-108470938D01*
X130244266Y-108427263D01*
X130244260Y-108427256D01*
X130072743Y-108255739D01*
X130072736Y-108255733D01*
X129880293Y-108108067D01*
X129880292Y-108108066D01*
X129880289Y-108108064D01*
X129670212Y-107986776D01*
X129670205Y-107986773D01*
X129446104Y-107893947D01*
X129211785Y-107831161D01*
X128971289Y-107799500D01*
X128971288Y-107799500D01*
X128728712Y-107799500D01*
X128728711Y-107799500D01*
X128488214Y-107831161D01*
X128253895Y-107893947D01*
X128029794Y-107986773D01*
X128029785Y-107986777D01*
X127819706Y-108108067D01*
X127627263Y-108255733D01*
X127627256Y-108255739D01*
X127455739Y-108427256D01*
X127455733Y-108427263D01*
X127308067Y-108619706D01*
X127186777Y-108829785D01*
X127186773Y-108829794D01*
X127093947Y-109053895D01*
X127031161Y-109288214D01*
X126999500Y-109528711D01*
X125800500Y-109528711D01*
X125800500Y-107642514D01*
X141325000Y-107642514D01*
X141325000Y-108592500D01*
X142624999Y-108592500D01*
X142599979Y-108652902D01*
X142575000Y-108778481D01*
X142575000Y-108906519D01*
X142599979Y-109032098D01*
X142624999Y-109092500D01*
X141325000Y-109092500D01*
X141325000Y-110042485D01*
X141335493Y-110145189D01*
X141335494Y-110145196D01*
X141390641Y-110311618D01*
X141390643Y-110311623D01*
X141482684Y-110460844D01*
X141606655Y-110584815D01*
X141755876Y-110676856D01*
X141755881Y-110676858D01*
X141922303Y-110732005D01*
X141922310Y-110732006D01*
X142025014Y-110742499D01*
X142025027Y-110742500D01*
X142975000Y-110742500D01*
X142975000Y-109442501D01*
X143035402Y-109467521D01*
X143160981Y-109492500D01*
X143289019Y-109492500D01*
X143414598Y-109467521D01*
X143475000Y-109442501D01*
X143475000Y-110742500D01*
X144424973Y-110742500D01*
X144424985Y-110742499D01*
X144527689Y-110732006D01*
X144527696Y-110732005D01*
X144694118Y-110676858D01*
X144694123Y-110676856D01*
X144843344Y-110584815D01*
X144967315Y-110460844D01*
X145059356Y-110311623D01*
X145059358Y-110311618D01*
X145114505Y-110145196D01*
X145114506Y-110145189D01*
X145124999Y-110042485D01*
X145125000Y-110042472D01*
X145125000Y-109092500D01*
X143825001Y-109092500D01*
X143850021Y-109032098D01*
X143875000Y-108906519D01*
X143875000Y-108778481D01*
X143850021Y-108652902D01*
X143825001Y-108592500D01*
X145125000Y-108592500D01*
X145125000Y-107642527D01*
X145124999Y-107642514D01*
X145114506Y-107539810D01*
X145114505Y-107539803D01*
X145059358Y-107373381D01*
X145059356Y-107373376D01*
X144967315Y-107224155D01*
X144843344Y-107100184D01*
X144694123Y-107008143D01*
X144694118Y-107008141D01*
X144527696Y-106952994D01*
X144527689Y-106952993D01*
X144424985Y-106942500D01*
X143475000Y-106942500D01*
X143475000Y-108242498D01*
X143414598Y-108217479D01*
X143289019Y-108192500D01*
X143160981Y-108192500D01*
X143035402Y-108217479D01*
X142975000Y-108242498D01*
X142975000Y-106942500D01*
X142025014Y-106942500D01*
X141922310Y-106952993D01*
X141922303Y-106952994D01*
X141755881Y-107008141D01*
X141755876Y-107008143D01*
X141606655Y-107100184D01*
X141482684Y-107224155D01*
X141390643Y-107373376D01*
X141390641Y-107373381D01*
X141335494Y-107539803D01*
X141335493Y-107539810D01*
X141325000Y-107642514D01*
X125800500Y-107642514D01*
X125800500Y-103455513D01*
X138889500Y-103455513D01*
X138889500Y-103644486D01*
X138919059Y-103831118D01*
X138977454Y-104010836D01*
X139048606Y-104150478D01*
X139063240Y-104179199D01*
X139174310Y-104332073D01*
X139307927Y-104465690D01*
X139460801Y-104576760D01*
X139540347Y-104617290D01*
X139629163Y-104662545D01*
X139629165Y-104662545D01*
X139629168Y-104662547D01*
X139725497Y-104693846D01*
X139808881Y-104720940D01*
X139995514Y-104750500D01*
X139995519Y-104750500D01*
X140184486Y-104750500D01*
X140371118Y-104720940D01*
X140550832Y-104662547D01*
X140719199Y-104576760D01*
X140872073Y-104465690D01*
X141005690Y-104332073D01*
X141106628Y-104193143D01*
X141121997Y-104181292D01*
X141133811Y-104165893D01*
X141155306Y-104155607D01*
X141161958Y-104150478D01*
X141164985Y-104149345D01*
X141169851Y-104147594D01*
X141311734Y-104109577D01*
X141361853Y-104080639D01*
X141448665Y-104030520D01*
X141560469Y-103918716D01*
X141560469Y-103918714D01*
X141570677Y-103908507D01*
X141570678Y-103908504D01*
X142743158Y-102736026D01*
X142804479Y-102702543D01*
X142806646Y-102702092D01*
X142807335Y-102701955D01*
X142807336Y-102701955D01*
X142961991Y-102671192D01*
X143107673Y-102610849D01*
X143238783Y-102523244D01*
X143350283Y-102411744D01*
X143437888Y-102280634D01*
X143496771Y-102138477D01*
X143540611Y-102084073D01*
X143606905Y-102062008D01*
X143674605Y-102079287D01*
X143699013Y-102098248D01*
X145515139Y-103914374D01*
X145515149Y-103914385D01*
X145519479Y-103918715D01*
X145519480Y-103918716D01*
X145631284Y-104030520D01*
X145631286Y-104030521D01*
X145631290Y-104030524D01*
X145718093Y-104080639D01*
X145768216Y-104109577D01*
X145880019Y-104139534D01*
X145920942Y-104150500D01*
X145920943Y-104150500D01*
X145988205Y-104150500D01*
X145995203Y-104151298D01*
X146021164Y-104162248D01*
X146048193Y-104170185D01*
X146052923Y-104175644D01*
X146059580Y-104178452D01*
X146075500Y-104201699D01*
X146093948Y-104222989D01*
X146095715Y-104227048D01*
X146136651Y-104325879D01*
X146136656Y-104325888D01*
X146251390Y-104524612D01*
X146251392Y-104524615D01*
X146251396Y-104524621D01*
X146391075Y-104706655D01*
X146391080Y-104706661D01*
X146463181Y-104778762D01*
X146496666Y-104840085D01*
X146499500Y-104866443D01*
X146499500Y-108017313D01*
X146490061Y-108064766D01*
X146421499Y-108230288D01*
X146357017Y-108470938D01*
X146324501Y-108717924D01*
X146324500Y-108717941D01*
X146324500Y-108967058D01*
X146324501Y-108967075D01*
X146357017Y-109214061D01*
X146421498Y-109454707D01*
X146516830Y-109684861D01*
X146516837Y-109684876D01*
X146641400Y-109900626D01*
X146793060Y-110098274D01*
X146793066Y-110098281D01*
X146969218Y-110274433D01*
X146969225Y-110274439D01*
X147166873Y-110426099D01*
X147382623Y-110550662D01*
X147382638Y-110550669D01*
X147465075Y-110584815D01*
X147612793Y-110646002D01*
X147853435Y-110710482D01*
X148100435Y-110743000D01*
X148100442Y-110743000D01*
X148349558Y-110743000D01*
X148349565Y-110743000D01*
X148596565Y-110710482D01*
X148837207Y-110646002D01*
X149067373Y-110550664D01*
X149283127Y-110426099D01*
X149480776Y-110274438D01*
X149656938Y-110098276D01*
X149808599Y-109900627D01*
X149933164Y-109684873D01*
X149997849Y-109528711D01*
X160249500Y-109528711D01*
X160249500Y-109771288D01*
X160281161Y-110011785D01*
X160343947Y-110246104D01*
X160355684Y-110274439D01*
X160436776Y-110470212D01*
X160558064Y-110680289D01*
X160558066Y-110680292D01*
X160558067Y-110680293D01*
X160705733Y-110872736D01*
X160705739Y-110872743D01*
X160877256Y-111044260D01*
X160877262Y-111044265D01*
X161069711Y-111191936D01*
X161279788Y-111313224D01*
X161503900Y-111406054D01*
X161738211Y-111468838D01*
X161918586Y-111492584D01*
X161978711Y-111500500D01*
X161978712Y-111500500D01*
X162221289Y-111500500D01*
X162269388Y-111494167D01*
X162461789Y-111468838D01*
X162696100Y-111406054D01*
X162920212Y-111313224D01*
X163130289Y-111191936D01*
X163322738Y-111044265D01*
X163494265Y-110872738D01*
X163641936Y-110680289D01*
X163763224Y-110470212D01*
X163856054Y-110246100D01*
X163918838Y-110011789D01*
X163950500Y-109771288D01*
X163950500Y-109528712D01*
X163918838Y-109288211D01*
X163856054Y-109053900D01*
X163763224Y-108829788D01*
X163641936Y-108619711D01*
X163527779Y-108470938D01*
X163494266Y-108427263D01*
X163494260Y-108427256D01*
X163322743Y-108255739D01*
X163322736Y-108255733D01*
X163130293Y-108108067D01*
X163130292Y-108108066D01*
X163130289Y-108108064D01*
X162920212Y-107986776D01*
X162920205Y-107986773D01*
X162696104Y-107893947D01*
X162461785Y-107831161D01*
X162221289Y-107799500D01*
X162221288Y-107799500D01*
X161978712Y-107799500D01*
X161978711Y-107799500D01*
X161738214Y-107831161D01*
X161503895Y-107893947D01*
X161279794Y-107986773D01*
X161279785Y-107986777D01*
X161069706Y-108108067D01*
X160877263Y-108255733D01*
X160877256Y-108255739D01*
X160705739Y-108427256D01*
X160705733Y-108427263D01*
X160558067Y-108619706D01*
X160436777Y-108829785D01*
X160436773Y-108829794D01*
X160343947Y-109053895D01*
X160281161Y-109288214D01*
X160249500Y-109528711D01*
X149997849Y-109528711D01*
X150028502Y-109454707D01*
X150092982Y-109214065D01*
X150125500Y-108967065D01*
X150125500Y-108717935D01*
X150092982Y-108470935D01*
X150028502Y-108230293D01*
X150009939Y-108185477D01*
X150000500Y-108138024D01*
X150000500Y-103975272D01*
X150000499Y-103975258D01*
X149993055Y-103918716D01*
X149970548Y-103747762D01*
X149940003Y-103633767D01*
X149911158Y-103526113D01*
X149881917Y-103455519D01*
X149823348Y-103314121D01*
X149823347Y-103314119D01*
X149823344Y-103314112D01*
X149816304Y-103301918D01*
X149708611Y-103115388D01*
X149568919Y-102933339D01*
X149406661Y-102771081D01*
X149306770Y-102671190D01*
X148866665Y-102231083D01*
X148866659Y-102231078D01*
X148684621Y-102091396D01*
X148684615Y-102091392D01*
X148684612Y-102091390D01*
X148485888Y-101976656D01*
X148485879Y-101976651D01*
X148273887Y-101888842D01*
X148260354Y-101885216D01*
X148052239Y-101829452D01*
X148052233Y-101829451D01*
X148052228Y-101829450D01*
X147824735Y-101799501D01*
X147824734Y-101799501D01*
X147595266Y-101799501D01*
X147595265Y-101799501D01*
X147367771Y-101829450D01*
X147367764Y-101829451D01*
X147367761Y-101829452D01*
X147280927Y-101852719D01*
X147146112Y-101888842D01*
X146934120Y-101976651D01*
X146934111Y-101976656D01*
X146735388Y-102091390D01*
X146735378Y-102091396D01*
X146553340Y-102231078D01*
X146553333Y-102231084D01*
X146391084Y-102393333D01*
X146391078Y-102393340D01*
X146251396Y-102575378D01*
X146251390Y-102575388D01*
X146196079Y-102671190D01*
X146194283Y-102674300D01*
X146143715Y-102722515D01*
X146075108Y-102735737D01*
X146010244Y-102709769D01*
X145999215Y-102699980D01*
X145078337Y-101779102D01*
X145044852Y-101717779D01*
X145049836Y-101648087D01*
X145078337Y-101603740D01*
X145096789Y-101585289D01*
X145184394Y-101454179D01*
X145244737Y-101308497D01*
X145275500Y-101153842D01*
X145275500Y-100996158D01*
X145275500Y-100996155D01*
X145275499Y-100996153D01*
X145269271Y-100964845D01*
X145244737Y-100841503D01*
X145217191Y-100775000D01*
X145184397Y-100695827D01*
X145184390Y-100695814D01*
X145096789Y-100564711D01*
X145096786Y-100564707D01*
X144985292Y-100453213D01*
X144985288Y-100453210D01*
X144854185Y-100365609D01*
X144854172Y-100365602D01*
X144708501Y-100305264D01*
X144708491Y-100305261D01*
X144553149Y-100274361D01*
X144536392Y-100265595D01*
X144517914Y-100261576D01*
X144492877Y-100242833D01*
X144491238Y-100241976D01*
X144489660Y-100240425D01*
X144415313Y-100166078D01*
X144381828Y-100104755D01*
X144378994Y-100078397D01*
X144378994Y-98712286D01*
X144378993Y-98712272D01*
X144375127Y-98682906D01*
X144364181Y-98599764D01*
X144306192Y-98459767D01*
X144213945Y-98339549D01*
X144093727Y-98247302D01*
X144093723Y-98247300D01*
X144027324Y-98219797D01*
X143953730Y-98189313D01*
X143939192Y-98187399D01*
X143841221Y-98174500D01*
X143841214Y-98174500D01*
X143615774Y-98174500D01*
X143615766Y-98174500D01*
X143528887Y-98185938D01*
X143503258Y-98189313D01*
X143503256Y-98189313D01*
X143495202Y-98190374D01*
X143494810Y-98187399D01*
X143462178Y-98187399D01*
X143461786Y-98190374D01*
X143453731Y-98189313D01*
X143453730Y-98189313D01*
X143424765Y-98185499D01*
X143341221Y-98174500D01*
X143341214Y-98174500D01*
X143115774Y-98174500D01*
X143115766Y-98174500D01*
X143028887Y-98185938D01*
X143003258Y-98189313D01*
X143003256Y-98189313D01*
X142995202Y-98190374D01*
X142994810Y-98187399D01*
X142962178Y-98187399D01*
X142961786Y-98190374D01*
X142953731Y-98189313D01*
X142953730Y-98189313D01*
X142924765Y-98185499D01*
X142841221Y-98174500D01*
X142841214Y-98174500D01*
X142615774Y-98174500D01*
X142615766Y-98174500D01*
X142513759Y-98187930D01*
X142513757Y-98187930D01*
X142503258Y-98189313D01*
X142363261Y-98247302D01*
X142303980Y-98292789D01*
X142238813Y-98317984D01*
X142170368Y-98303946D01*
X142153009Y-98292790D01*
X142127006Y-98272838D01*
X142085804Y-98216410D01*
X142079614Y-98180894D01*
X142078493Y-98179911D01*
X141995764Y-98190804D01*
X141962021Y-98188593D01*
X141961787Y-98190374D01*
X141953730Y-98189313D01*
X141933945Y-98186708D01*
X141841221Y-98174500D01*
X141841214Y-98174500D01*
X141615774Y-98174500D01*
X141615766Y-98174500D01*
X141503258Y-98189313D01*
X141503257Y-98189313D01*
X141363264Y-98247300D01*
X141363261Y-98247301D01*
X141363261Y-98247302D01*
X141271147Y-98317984D01*
X141243043Y-98339549D01*
X141150794Y-98459770D01*
X141092807Y-98599763D01*
X141092807Y-98599764D01*
X141077994Y-98712272D01*
X141077994Y-100087713D01*
X141077995Y-100087730D01*
X141087899Y-100162959D01*
X141077133Y-100231994D01*
X141043633Y-100274990D01*
X141039714Y-100278206D01*
X140928213Y-100389707D01*
X140928210Y-100389711D01*
X140840609Y-100520814D01*
X140840602Y-100520827D01*
X140780264Y-100666498D01*
X140780261Y-100666510D01*
X140749500Y-100821153D01*
X140749500Y-100978846D01*
X140780261Y-101133489D01*
X140780264Y-101133501D01*
X140840602Y-101279172D01*
X140840609Y-101279185D01*
X140928210Y-101410288D01*
X140928213Y-101410292D01*
X141039707Y-101521786D01*
X141039711Y-101521789D01*
X141170814Y-101609390D01*
X141170827Y-101609397D01*
X141312208Y-101667958D01*
X141316503Y-101669737D01*
X141471153Y-101700499D01*
X141471156Y-101700500D01*
X141471158Y-101700500D01*
X141628844Y-101700500D01*
X141628845Y-101700499D01*
X141674485Y-101691421D01*
X141783595Y-101669718D01*
X141816284Y-101672643D01*
X141849043Y-101674400D01*
X141850901Y-101675740D01*
X141853186Y-101675945D01*
X141879102Y-101696077D01*
X141905713Y-101715268D01*
X141906552Y-101717401D01*
X141908363Y-101718808D01*
X141919277Y-101749746D01*
X141931293Y-101780287D01*
X141931129Y-101783340D01*
X141931608Y-101784698D01*
X141929403Y-101815530D01*
X141927856Y-101823306D01*
X141895469Y-101885216D01*
X141893920Y-101886792D01*
X141096919Y-102683793D01*
X141035596Y-102717278D01*
X140965904Y-102712294D01*
X140921558Y-102683794D01*
X140872076Y-102634313D01*
X140872073Y-102634310D01*
X140719199Y-102523240D01*
X140550836Y-102437454D01*
X140371118Y-102379059D01*
X140184486Y-102349500D01*
X140184481Y-102349500D01*
X139995519Y-102349500D01*
X139995514Y-102349500D01*
X139808881Y-102379059D01*
X139629163Y-102437454D01*
X139460800Y-102523240D01*
X139389026Y-102575388D01*
X139307927Y-102634310D01*
X139307925Y-102634312D01*
X139307924Y-102634312D01*
X139174312Y-102767924D01*
X139174312Y-102767925D01*
X139174310Y-102767927D01*
X139137292Y-102818878D01*
X139063240Y-102920800D01*
X138977454Y-103089163D01*
X138919059Y-103268881D01*
X138889500Y-103455513D01*
X125800500Y-103455513D01*
X125800500Y-100025513D01*
X134799500Y-100025513D01*
X134799500Y-100214486D01*
X134829059Y-100401118D01*
X134887454Y-100580836D01*
X134957522Y-100718350D01*
X134973240Y-100749199D01*
X135084310Y-100902073D01*
X135217927Y-101035690D01*
X135370801Y-101146760D01*
X135450347Y-101187290D01*
X135539163Y-101232545D01*
X135539165Y-101232545D01*
X135539168Y-101232547D01*
X135635497Y-101263846D01*
X135718881Y-101290940D01*
X135905514Y-101320500D01*
X135905519Y-101320500D01*
X136094486Y-101320500D01*
X136281118Y-101290940D01*
X136460832Y-101232547D01*
X136629199Y-101146760D01*
X136782073Y-101035690D01*
X136915690Y-100902073D01*
X136949682Y-100855286D01*
X137005012Y-100812621D01*
X137074625Y-100806642D01*
X137136420Y-100839248D01*
X137150316Y-100855285D01*
X137184310Y-100902073D01*
X137317927Y-101035690D01*
X137470801Y-101146760D01*
X137550347Y-101187290D01*
X137639163Y-101232545D01*
X137639165Y-101232545D01*
X137639168Y-101232547D01*
X137735497Y-101263846D01*
X137818881Y-101290940D01*
X138005514Y-101320500D01*
X138005519Y-101320500D01*
X138194486Y-101320500D01*
X138381118Y-101290940D01*
X138560832Y-101232547D01*
X138729199Y-101146760D01*
X138882073Y-101035690D01*
X139015690Y-100902073D01*
X139126760Y-100749199D01*
X139212547Y-100580832D01*
X139270940Y-100401118D01*
X139276564Y-100365609D01*
X139300500Y-100214486D01*
X139300500Y-100025513D01*
X139270940Y-99838881D01*
X139212545Y-99659163D01*
X139126759Y-99490800D01*
X139015690Y-99337927D01*
X138882073Y-99204310D01*
X138729199Y-99093240D01*
X138688473Y-99072489D01*
X138560836Y-99007454D01*
X138381118Y-98949059D01*
X138194486Y-98919500D01*
X138194481Y-98919500D01*
X138005519Y-98919500D01*
X138005514Y-98919500D01*
X137818881Y-98949059D01*
X137639163Y-99007454D01*
X137470800Y-99093240D01*
X137383579Y-99156610D01*
X137317927Y-99204310D01*
X137317925Y-99204312D01*
X137317924Y-99204312D01*
X137184312Y-99337924D01*
X137184305Y-99337933D01*
X137150317Y-99384713D01*
X137094987Y-99427379D01*
X137025374Y-99433357D01*
X136963579Y-99400751D01*
X136949683Y-99384713D01*
X136915694Y-99337933D01*
X136915690Y-99337927D01*
X136782073Y-99204310D01*
X136629199Y-99093240D01*
X136588473Y-99072489D01*
X136460836Y-99007454D01*
X136281118Y-98949059D01*
X136094486Y-98919500D01*
X136094481Y-98919500D01*
X135905519Y-98919500D01*
X135905514Y-98919500D01*
X135718881Y-98949059D01*
X135539163Y-99007454D01*
X135370800Y-99093240D01*
X135283579Y-99156610D01*
X135217927Y-99204310D01*
X135217925Y-99204312D01*
X135217924Y-99204312D01*
X135084312Y-99337924D01*
X135084312Y-99337925D01*
X135084310Y-99337927D01*
X135072346Y-99354394D01*
X134973240Y-99490800D01*
X134887454Y-99659163D01*
X134829059Y-99838881D01*
X134799500Y-100025513D01*
X125800500Y-100025513D01*
X125800500Y-95537155D01*
X132775000Y-95537155D01*
X132775000Y-95960000D01*
X133524722Y-95960000D01*
X133480667Y-96036306D01*
X133450000Y-96150756D01*
X133450000Y-96269244D01*
X133480667Y-96383694D01*
X133524722Y-96460000D01*
X132775000Y-96460000D01*
X132775000Y-96882844D01*
X132781401Y-96942372D01*
X132781403Y-96942379D01*
X132831645Y-97077086D01*
X132831649Y-97077093D01*
X132917809Y-97192187D01*
X132917812Y-97192190D01*
X133032906Y-97278350D01*
X133032913Y-97278354D01*
X133167620Y-97328596D01*
X133167627Y-97328598D01*
X133227155Y-97334999D01*
X133227172Y-97335000D01*
X133650000Y-97335000D01*
X133650000Y-96585277D01*
X133726306Y-96629333D01*
X133840756Y-96660000D01*
X133959244Y-96660000D01*
X134073694Y-96629333D01*
X134150000Y-96585277D01*
X134150000Y-97335000D01*
X134572828Y-97335000D01*
X134572844Y-97334999D01*
X134632372Y-97328598D01*
X134632379Y-97328596D01*
X134767086Y-97278354D01*
X134767093Y-97278350D01*
X134882187Y-97192190D01*
X134882190Y-97192187D01*
X134968350Y-97077093D01*
X134968354Y-97077086D01*
X135018596Y-96942379D01*
X135018598Y-96942372D01*
X135024999Y-96882844D01*
X135025000Y-96882827D01*
X135025000Y-96460000D01*
X134275278Y-96460000D01*
X134319333Y-96383694D01*
X134350000Y-96269244D01*
X134350000Y-96150756D01*
X134319333Y-96036306D01*
X134275278Y-95960000D01*
X135025000Y-95960000D01*
X135025000Y-95537172D01*
X135024999Y-95537155D01*
X135018598Y-95477627D01*
X135018596Y-95477620D01*
X134968354Y-95342913D01*
X134968350Y-95342906D01*
X134882190Y-95227812D01*
X134882187Y-95227809D01*
X134767093Y-95141649D01*
X134767086Y-95141645D01*
X134632379Y-95091403D01*
X134632372Y-95091401D01*
X134572844Y-95085000D01*
X134150000Y-95085000D01*
X134150000Y-95834722D01*
X134073694Y-95790667D01*
X133959244Y-95760000D01*
X133840756Y-95760000D01*
X133726306Y-95790667D01*
X133650000Y-95834722D01*
X133650000Y-95085000D01*
X133227155Y-95085000D01*
X133167627Y-95091401D01*
X133167620Y-95091403D01*
X133032913Y-95141645D01*
X133032906Y-95141649D01*
X132917812Y-95227809D01*
X132917809Y-95227812D01*
X132831649Y-95342906D01*
X132831645Y-95342913D01*
X132781403Y-95477620D01*
X132781401Y-95477627D01*
X132775000Y-95537155D01*
X125800500Y-95537155D01*
X125800500Y-58575013D01*
X132875000Y-58575013D01*
X132875000Y-58712500D01*
X133850000Y-58712500D01*
X134350000Y-58712500D01*
X135324999Y-58712500D01*
X135324999Y-58575028D01*
X135324998Y-58575013D01*
X135314505Y-58472302D01*
X135259358Y-58305880D01*
X135259356Y-58305875D01*
X135167315Y-58156654D01*
X135043345Y-58032684D01*
X134894124Y-57940643D01*
X134894119Y-57940641D01*
X134727697Y-57885494D01*
X134727690Y-57885493D01*
X134624986Y-57875000D01*
X134350000Y-57875000D01*
X134350000Y-58712500D01*
X133850000Y-58712500D01*
X133850000Y-57875000D01*
X133575029Y-57875000D01*
X133575012Y-57875001D01*
X133472302Y-57885494D01*
X133305880Y-57940641D01*
X133305875Y-57940643D01*
X133156654Y-58032684D01*
X133032684Y-58156654D01*
X132940643Y-58305875D01*
X132940641Y-58305880D01*
X132885494Y-58472302D01*
X132885493Y-58472309D01*
X132875000Y-58575013D01*
X125800500Y-58575013D01*
X125800500Y-41744972D01*
X132429150Y-41744972D01*
X132439643Y-41847683D01*
X132494790Y-42014105D01*
X132494792Y-42014110D01*
X132586833Y-42163331D01*
X132710803Y-42287301D01*
X132860024Y-42379342D01*
X132860029Y-42379344D01*
X133026451Y-42434491D01*
X133026458Y-42434492D01*
X133129168Y-42444985D01*
X133179148Y-42444984D01*
X133179149Y-42444984D01*
X133179149Y-40644986D01*
X132429150Y-40644986D01*
X132429150Y-41744972D01*
X125800500Y-41744972D01*
X125800500Y-39044999D01*
X132429149Y-39044999D01*
X132429149Y-40144986D01*
X133179149Y-40144986D01*
X133679149Y-40144986D01*
X134429148Y-40144986D01*
X134429148Y-39045014D01*
X134429147Y-39044999D01*
X134418654Y-38942288D01*
X134363507Y-38775866D01*
X134363505Y-38775861D01*
X134271464Y-38626640D01*
X134147494Y-38502670D01*
X133998273Y-38410629D01*
X133998268Y-38410627D01*
X133831846Y-38355480D01*
X133831839Y-38355479D01*
X133729135Y-38344986D01*
X133679149Y-38344986D01*
X133679149Y-40144986D01*
X133179149Y-40144986D01*
X133179149Y-38344986D01*
X133179148Y-38344985D01*
X133129178Y-38344986D01*
X133129160Y-38344987D01*
X133026451Y-38355480D01*
X132860029Y-38410627D01*
X132860024Y-38410629D01*
X132710803Y-38502670D01*
X132586833Y-38626640D01*
X132494792Y-38775861D01*
X132494790Y-38775866D01*
X132439643Y-38942288D01*
X132439642Y-38942295D01*
X132429149Y-39044999D01*
X125800500Y-39044999D01*
X125800500Y-33628711D01*
X126999500Y-33628711D01*
X126999500Y-33871288D01*
X127031161Y-34111785D01*
X127093947Y-34346104D01*
X127186773Y-34570205D01*
X127186776Y-34570212D01*
X127308064Y-34780289D01*
X127308066Y-34780292D01*
X127308067Y-34780293D01*
X127455733Y-34972736D01*
X127455739Y-34972743D01*
X127627256Y-35144260D01*
X127627262Y-35144265D01*
X127819711Y-35291936D01*
X128029788Y-35413224D01*
X128029790Y-35413225D01*
X128117219Y-35449439D01*
X128253900Y-35506054D01*
X128488211Y-35568838D01*
X128668586Y-35592584D01*
X128728711Y-35600500D01*
X128728712Y-35600500D01*
X128971289Y-35600500D01*
X129019388Y-35594167D01*
X129211789Y-35568838D01*
X129446100Y-35506054D01*
X129670212Y-35413224D01*
X129880289Y-35291936D01*
X130072738Y-35144265D01*
X130244265Y-34972738D01*
X130391936Y-34780289D01*
X130513224Y-34570212D01*
X130606054Y-34346100D01*
X130668838Y-34111789D01*
X130700500Y-33871288D01*
X130700500Y-33628712D01*
X130668838Y-33388211D01*
X130606054Y-33153900D01*
X130513224Y-32929788D01*
X130464255Y-32844972D01*
X132429150Y-32844972D01*
X132439643Y-32947683D01*
X132494790Y-33114105D01*
X132494792Y-33114110D01*
X132586833Y-33263331D01*
X132710803Y-33387301D01*
X132860024Y-33479342D01*
X132860029Y-33479344D01*
X133026451Y-33534491D01*
X133026458Y-33534492D01*
X133129168Y-33544985D01*
X133679149Y-33544985D01*
X133729121Y-33544985D01*
X133729135Y-33544984D01*
X133831846Y-33534491D01*
X133998268Y-33479344D01*
X133998273Y-33479342D01*
X134147494Y-33387301D01*
X134271464Y-33263331D01*
X134363505Y-33114110D01*
X134363507Y-33114105D01*
X134418654Y-32947683D01*
X134418655Y-32947676D01*
X134429148Y-32844972D01*
X134429149Y-32844959D01*
X134429149Y-31744986D01*
X133679149Y-31744986D01*
X133679149Y-33544985D01*
X133129168Y-33544985D01*
X133179148Y-33544984D01*
X133179149Y-33544984D01*
X133179149Y-31744986D01*
X132429150Y-31744986D01*
X132429150Y-32844972D01*
X130464255Y-32844972D01*
X130391936Y-32719711D01*
X130244265Y-32527262D01*
X130244260Y-32527256D01*
X130072743Y-32355739D01*
X130072736Y-32355733D01*
X129880293Y-32208067D01*
X129880292Y-32208066D01*
X129880289Y-32208064D01*
X129670212Y-32086776D01*
X129670205Y-32086773D01*
X129446104Y-31993947D01*
X129211785Y-31931161D01*
X128971289Y-31899500D01*
X128971288Y-31899500D01*
X128728712Y-31899500D01*
X128728711Y-31899500D01*
X128488214Y-31931161D01*
X128253895Y-31993947D01*
X128029794Y-32086773D01*
X128029785Y-32086777D01*
X127819706Y-32208067D01*
X127627263Y-32355733D01*
X127627256Y-32355739D01*
X127455739Y-32527256D01*
X127455733Y-32527263D01*
X127308067Y-32719706D01*
X127186777Y-32929785D01*
X127186773Y-32929794D01*
X127093947Y-33153895D01*
X127031161Y-33388214D01*
X126999500Y-33628711D01*
X125800500Y-33628711D01*
X125800500Y-29774500D01*
X125820185Y-29707461D01*
X125872989Y-29661706D01*
X125924500Y-29650500D01*
X132411622Y-29650500D01*
X132478661Y-29670185D01*
G37*
%TD.AperFunction*%
%TA.AperFunction,Conductor*%
G36*
X151904040Y-64582579D02*
G01*
X151950468Y-64611835D01*
X152323681Y-64985048D01*
X152357166Y-65046371D01*
X152360000Y-65072729D01*
X152360000Y-67500000D01*
X152475500Y-67500000D01*
X152542539Y-67519685D01*
X152588294Y-67572489D01*
X152599500Y-67624000D01*
X152599500Y-68977770D01*
X152579815Y-69044809D01*
X152563181Y-69065451D01*
X146515451Y-75113181D01*
X146454128Y-75146666D01*
X146427770Y-75149500D01*
X142546080Y-75149500D01*
X142401092Y-75178340D01*
X142401082Y-75178343D01*
X142264511Y-75234912D01*
X142264498Y-75234919D01*
X142141584Y-75317048D01*
X142141580Y-75317051D01*
X135812180Y-81646451D01*
X135799588Y-81653326D01*
X135790040Y-81664033D01*
X135769536Y-81669736D01*
X135750857Y-81679936D01*
X135736546Y-81678912D01*
X135722726Y-81682757D01*
X135702395Y-81676470D01*
X135681165Y-81674952D01*
X135669679Y-81666353D01*
X135655975Y-81662116D01*
X135642269Y-81645834D01*
X135625232Y-81633080D01*
X135619365Y-81618625D01*
X135610980Y-81608664D01*
X135606321Y-81586487D01*
X135601521Y-81574660D01*
X135600499Y-81566750D01*
X135600499Y-81487128D01*
X135594091Y-81427517D01*
X135576368Y-81379999D01*
X135574545Y-81365890D01*
X135577875Y-81344868D01*
X135576357Y-81323642D01*
X135581340Y-81306669D01*
X135594091Y-81272483D01*
X135600500Y-81212873D01*
X135600499Y-80217128D01*
X135594091Y-80157517D01*
X135581340Y-80123332D01*
X135576357Y-80053642D01*
X135581338Y-80036672D01*
X135594091Y-80002483D01*
X135600500Y-79942873D01*
X135600499Y-78947128D01*
X135594091Y-78887517D01*
X135581340Y-78853332D01*
X135576357Y-78783642D01*
X135581338Y-78766672D01*
X135594091Y-78732483D01*
X135600500Y-78672873D01*
X135600499Y-77677128D01*
X135594091Y-77617517D01*
X135581340Y-77583332D01*
X135576357Y-77513642D01*
X135581340Y-77496669D01*
X135594091Y-77462483D01*
X135600500Y-77402873D01*
X135600499Y-76407128D01*
X135594091Y-76347517D01*
X135581340Y-76313332D01*
X135576357Y-76243642D01*
X135581340Y-76226669D01*
X135594091Y-76192483D01*
X135600500Y-76132873D01*
X135600499Y-75137128D01*
X135594091Y-75077517D01*
X135581340Y-75043332D01*
X135576357Y-74973642D01*
X135581340Y-74956669D01*
X135594091Y-74922483D01*
X135600500Y-74862873D01*
X135600499Y-73867128D01*
X135594091Y-73807517D01*
X135581340Y-73773332D01*
X135576357Y-73703642D01*
X135581340Y-73686669D01*
X135594091Y-73652483D01*
X135600500Y-73592873D01*
X135600499Y-72597128D01*
X135594091Y-72537517D01*
X135581340Y-72503332D01*
X135576357Y-72433642D01*
X135581340Y-72416669D01*
X135594091Y-72382483D01*
X135600500Y-72322873D01*
X135600499Y-71327128D01*
X135594091Y-71267517D01*
X135581340Y-71233332D01*
X135576357Y-71163642D01*
X135581338Y-71146672D01*
X135594091Y-71112483D01*
X135600500Y-71052873D01*
X135600499Y-70057128D01*
X135594091Y-69997517D01*
X135581340Y-69963332D01*
X135576357Y-69893642D01*
X135581338Y-69876672D01*
X135594091Y-69842483D01*
X135600500Y-69782873D01*
X135600499Y-68787128D01*
X135594091Y-68727517D01*
X135581340Y-68693332D01*
X135576357Y-68623642D01*
X135581340Y-68606669D01*
X135594091Y-68572483D01*
X135600500Y-68512873D01*
X135600499Y-67624498D01*
X135620183Y-67557460D01*
X135672987Y-67511705D01*
X135724499Y-67500499D01*
X136097871Y-67500499D01*
X136097872Y-67500499D01*
X136157483Y-67494091D01*
X136191667Y-67481340D01*
X136261358Y-67476357D01*
X136278327Y-67481338D01*
X136312517Y-67494091D01*
X136372127Y-67500500D01*
X137367872Y-67500499D01*
X137427483Y-67494091D01*
X137461667Y-67481340D01*
X137531358Y-67476357D01*
X137548327Y-67481338D01*
X137582517Y-67494091D01*
X137642127Y-67500500D01*
X138637872Y-67500499D01*
X138697483Y-67494091D01*
X138731667Y-67481340D01*
X138801358Y-67476357D01*
X138818327Y-67481338D01*
X138852517Y-67494091D01*
X138912127Y-67500500D01*
X139907872Y-67500499D01*
X139967483Y-67494091D01*
X140001667Y-67481340D01*
X140071358Y-67476357D01*
X140088327Y-67481338D01*
X140122517Y-67494091D01*
X140182127Y-67500500D01*
X141177872Y-67500499D01*
X141237483Y-67494091D01*
X141271667Y-67481340D01*
X141341358Y-67476357D01*
X141358327Y-67481338D01*
X141392517Y-67494091D01*
X141452127Y-67500500D01*
X142447872Y-67500499D01*
X142507483Y-67494091D01*
X142541667Y-67481340D01*
X142611358Y-67476357D01*
X142628327Y-67481338D01*
X142662517Y-67494091D01*
X142722127Y-67500500D01*
X143717872Y-67500499D01*
X143777483Y-67494091D01*
X143811667Y-67481340D01*
X143881358Y-67476357D01*
X143898327Y-67481338D01*
X143932517Y-67494091D01*
X143992127Y-67500500D01*
X144987872Y-67500499D01*
X145047483Y-67494091D01*
X145081667Y-67481340D01*
X145151358Y-67476357D01*
X145168327Y-67481338D01*
X145202517Y-67494091D01*
X145262127Y-67500500D01*
X146257872Y-67500499D01*
X146317483Y-67494091D01*
X146351667Y-67481340D01*
X146421358Y-67476357D01*
X146438327Y-67481338D01*
X146472517Y-67494091D01*
X146532127Y-67500500D01*
X147527872Y-67500499D01*
X147587483Y-67494091D01*
X147621667Y-67481340D01*
X147691358Y-67476357D01*
X147708327Y-67481338D01*
X147742517Y-67494091D01*
X147802127Y-67500500D01*
X148797872Y-67500499D01*
X148857483Y-67494091D01*
X148891667Y-67481340D01*
X148961358Y-67476357D01*
X148978327Y-67481338D01*
X149012517Y-67494091D01*
X149072127Y-67500500D01*
X150067872Y-67500499D01*
X150127483Y-67494091D01*
X150161667Y-67481340D01*
X150231358Y-67476357D01*
X150248327Y-67481338D01*
X150282517Y-67494091D01*
X150342127Y-67500500D01*
X151337872Y-67500499D01*
X151397483Y-67494091D01*
X151432381Y-67481074D01*
X151502069Y-67476089D01*
X151519050Y-67481075D01*
X151552623Y-67493598D01*
X151612155Y-67499999D01*
X151612172Y-67500000D01*
X151860000Y-67500000D01*
X151860000Y-65000000D01*
X151827682Y-65000000D01*
X151760643Y-64980315D01*
X151714888Y-64927511D01*
X151704944Y-64858353D01*
X151706065Y-64851809D01*
X151741170Y-64675325D01*
X151773555Y-64613414D01*
X151834271Y-64578840D01*
X151904040Y-64582579D01*
G37*
%TD.AperFunction*%
%TA.AperFunction,Conductor*%
G36*
X129098497Y-68772405D02*
G01*
X129105473Y-68772174D01*
X129129860Y-68786728D01*
X129155703Y-68798530D01*
X129160285Y-68804885D01*
X129165471Y-68807980D01*
X129185526Y-68837022D01*
X129187421Y-68840834D01*
X129234916Y-68955495D01*
X129267813Y-69004729D01*
X129272211Y-69011312D01*
X129272216Y-69011321D01*
X129317046Y-69078414D01*
X129317052Y-69078421D01*
X131272049Y-71033416D01*
X131376584Y-71137951D01*
X131376587Y-71137953D01*
X131376588Y-71137954D01*
X131499503Y-71220083D01*
X131499506Y-71220085D01*
X131549665Y-71240861D01*
X131556080Y-71243518D01*
X131636088Y-71276659D01*
X131752241Y-71299763D01*
X131775380Y-71304365D01*
X131781081Y-71305500D01*
X131781082Y-71305500D01*
X131781083Y-71305500D01*
X131928918Y-71305500D01*
X132975500Y-71305500D01*
X133042539Y-71325185D01*
X133088294Y-71377989D01*
X133099500Y-71429500D01*
X133099500Y-72322870D01*
X133099501Y-72322876D01*
X133105908Y-72382481D01*
X133118659Y-72416669D01*
X133123642Y-72486361D01*
X133118659Y-72503331D01*
X133105908Y-72537518D01*
X133099501Y-72597116D01*
X133099501Y-72597123D01*
X133099500Y-72597135D01*
X133099500Y-73592870D01*
X133099501Y-73592876D01*
X133105908Y-73652481D01*
X133118659Y-73686669D01*
X133123642Y-73756361D01*
X133118659Y-73773331D01*
X133105908Y-73807518D01*
X133105230Y-73813828D01*
X133099501Y-73867123D01*
X133099500Y-73867135D01*
X133099500Y-74862870D01*
X133099501Y-74862876D01*
X133105908Y-74922481D01*
X133118659Y-74956669D01*
X133123642Y-75026361D01*
X133118659Y-75043331D01*
X133105908Y-75077518D01*
X133099501Y-75137116D01*
X133099501Y-75137123D01*
X133099500Y-75137135D01*
X133099500Y-76132870D01*
X133099501Y-76132876D01*
X133105908Y-76192481D01*
X133118659Y-76226669D01*
X133123642Y-76296361D01*
X133118659Y-76313331D01*
X133105908Y-76347518D01*
X133099758Y-76404727D01*
X133099501Y-76407123D01*
X133099500Y-76407135D01*
X133099500Y-77402870D01*
X133099501Y-77402876D01*
X133105908Y-77462481D01*
X133118659Y-77496669D01*
X133123642Y-77566361D01*
X133118659Y-77583331D01*
X133105908Y-77617518D01*
X133099501Y-77677116D01*
X133099500Y-77677127D01*
X133099500Y-78164606D01*
X133099501Y-78570500D01*
X133079817Y-78637539D01*
X133027013Y-78683294D01*
X132975501Y-78694500D01*
X132736520Y-78694500D01*
X132707079Y-78685855D01*
X132677093Y-78679332D01*
X132672077Y-78675577D01*
X132669481Y-78674815D01*
X132648839Y-78658181D01*
X132578339Y-78587681D01*
X132544854Y-78526358D01*
X132549838Y-78456666D01*
X132578339Y-78412319D01*
X132680468Y-78310189D01*
X132680469Y-78310188D01*
X132680472Y-78310185D01*
X132768478Y-78164606D01*
X132819086Y-78002196D01*
X132825500Y-77931616D01*
X132825500Y-77418384D01*
X132819086Y-77347804D01*
X132768478Y-77185394D01*
X132680472Y-77039815D01*
X132680470Y-77039813D01*
X132680469Y-77039811D01*
X132560188Y-76919530D01*
X132414606Y-76831522D01*
X132252196Y-76780914D01*
X132252194Y-76780913D01*
X132252192Y-76780913D01*
X132202778Y-76776423D01*
X132181616Y-76774500D01*
X131518384Y-76774500D01*
X131499145Y-76776248D01*
X131447807Y-76780913D01*
X131285393Y-76831522D01*
X131139807Y-76919533D01*
X131135235Y-76923115D01*
X131070322Y-76948961D01*
X131058768Y-76949500D01*
X130262230Y-76949500D01*
X130195191Y-76929815D01*
X130174549Y-76913181D01*
X129552073Y-76290705D01*
X129518588Y-76229382D01*
X129523572Y-76159690D01*
X129565444Y-76103757D01*
X129630908Y-76079340D01*
X129659152Y-76080551D01*
X129781948Y-76100000D01*
X130018052Y-76100000D01*
X130251247Y-76063065D01*
X130475802Y-75990102D01*
X130686163Y-75882918D01*
X130686169Y-75882914D01*
X130769104Y-75822658D01*
X130769105Y-75822658D01*
X130029409Y-75082962D01*
X130092993Y-75065925D01*
X130207007Y-75000099D01*
X130300099Y-74907007D01*
X130365925Y-74792993D01*
X130382962Y-74729408D01*
X131122658Y-75469105D01*
X131122658Y-75469104D01*
X131182914Y-75386169D01*
X131182918Y-75386163D01*
X131290102Y-75175802D01*
X131363065Y-74951247D01*
X131400000Y-74718052D01*
X131400000Y-74481947D01*
X131363065Y-74248752D01*
X131290102Y-74024197D01*
X131182914Y-73813828D01*
X131122658Y-73730894D01*
X131122658Y-73730893D01*
X130382962Y-74470590D01*
X130365925Y-74407007D01*
X130300099Y-74292993D01*
X130207007Y-74199901D01*
X130092993Y-74134075D01*
X130029408Y-74117037D01*
X130769105Y-73377340D01*
X130769104Y-73377338D01*
X130686174Y-73317087D01*
X130475802Y-73209897D01*
X130251247Y-73136934D01*
X130251248Y-73136934D01*
X130018052Y-73100000D01*
X129781948Y-73100000D01*
X129548752Y-73136934D01*
X129324197Y-73209897D01*
X129130795Y-73308440D01*
X129062125Y-73321336D01*
X128997385Y-73295059D01*
X128957128Y-73237953D01*
X128950500Y-73197955D01*
X128950500Y-68892243D01*
X128952466Y-68885544D01*
X128951245Y-68878672D01*
X128962183Y-68852455D01*
X128970185Y-68825204D01*
X128975459Y-68820633D01*
X128978148Y-68814190D01*
X129001525Y-68798047D01*
X129022989Y-68779449D01*
X129029897Y-68778455D01*
X129035642Y-68774489D01*
X129064029Y-68773547D01*
X129092147Y-68769505D01*
X129098497Y-68772405D01*
G37*
%TD.AperFunction*%
%TA.AperFunction,Conductor*%
G36*
X148717844Y-54129937D02*
G01*
X148741503Y-54139737D01*
X148741508Y-54139738D01*
X148741511Y-54139739D01*
X148896153Y-54170499D01*
X148896156Y-54170500D01*
X148896158Y-54170500D01*
X148925500Y-54170500D01*
X148992539Y-54190185D01*
X149038294Y-54242989D01*
X149049500Y-54294500D01*
X149049500Y-61473918D01*
X149049500Y-61473920D01*
X149049499Y-61473920D01*
X149078340Y-61618907D01*
X149078343Y-61618917D01*
X149134914Y-61755492D01*
X149134915Y-61755494D01*
X149134916Y-61755495D01*
X149167813Y-61804729D01*
X149217048Y-61878416D01*
X149305182Y-61966550D01*
X149308590Y-61970594D01*
X149320623Y-61997931D01*
X149334935Y-62024142D01*
X149334547Y-62029565D01*
X149336738Y-62034543D01*
X149332081Y-62064042D01*
X149329951Y-62093834D01*
X149326691Y-62098187D01*
X149325844Y-62103558D01*
X149305977Y-62125857D01*
X149288079Y-62149767D01*
X149282984Y-62151667D01*
X149279367Y-62155728D01*
X149250596Y-62163747D01*
X149222615Y-62174184D01*
X149213769Y-62174500D01*
X148912499Y-62174500D01*
X148912480Y-62174501D01*
X148809703Y-62185000D01*
X148809700Y-62185001D01*
X148643168Y-62240185D01*
X148643163Y-62240187D01*
X148493842Y-62332289D01*
X148369788Y-62456343D01*
X148369783Y-62456349D01*
X148367741Y-62459661D01*
X148365747Y-62461453D01*
X148365307Y-62462011D01*
X148365211Y-62461935D01*
X148315791Y-62506383D01*
X148246828Y-62517602D01*
X148182747Y-62489755D01*
X148156668Y-62459656D01*
X148154819Y-62456659D01*
X148154816Y-62456655D01*
X148030845Y-62332684D01*
X147881624Y-62240643D01*
X147881619Y-62240641D01*
X147715197Y-62185494D01*
X147715190Y-62185493D01*
X147612486Y-62175000D01*
X147475000Y-62175000D01*
X147475000Y-63276000D01*
X147455315Y-63343039D01*
X147402511Y-63388794D01*
X147351000Y-63400000D01*
X147225000Y-63400000D01*
X147225000Y-63526000D01*
X147205315Y-63593039D01*
X147152511Y-63638794D01*
X147101000Y-63650000D01*
X146137501Y-63650000D01*
X146137501Y-63925500D01*
X146134950Y-63934185D01*
X146136239Y-63943147D01*
X146125260Y-63967187D01*
X146117816Y-63992539D01*
X146110975Y-63998466D01*
X146107214Y-64006703D01*
X146084979Y-64020992D01*
X146065012Y-64038294D01*
X146054497Y-64040581D01*
X146048436Y-64044477D01*
X146013501Y-64049500D01*
X145962229Y-64049500D01*
X145895190Y-64029815D01*
X145874548Y-64013181D01*
X145837983Y-63976616D01*
X145804498Y-63915293D01*
X145807958Y-63849930D01*
X145809810Y-63844339D01*
X145809814Y-63844334D01*
X145864999Y-63677797D01*
X145875500Y-63575009D01*
X145875499Y-62875013D01*
X146137500Y-62875013D01*
X146137500Y-63150000D01*
X146975000Y-63150000D01*
X146975000Y-62175000D01*
X146837527Y-62175000D01*
X146837512Y-62175001D01*
X146734802Y-62185494D01*
X146568380Y-62240641D01*
X146568375Y-62240643D01*
X146419154Y-62332684D01*
X146295184Y-62456654D01*
X146203143Y-62605875D01*
X146203141Y-62605880D01*
X146147994Y-62772302D01*
X146147993Y-62772309D01*
X146137500Y-62875013D01*
X145875499Y-62875013D01*
X145875499Y-62524992D01*
X145869065Y-62462011D01*
X145864999Y-62422203D01*
X145864998Y-62422200D01*
X145831514Y-62321153D01*
X145809814Y-62255666D01*
X145805382Y-62248481D01*
X145768961Y-62189432D01*
X145750500Y-62124336D01*
X145750500Y-61926081D01*
X145743142Y-61889093D01*
X145743142Y-61889092D01*
X145721659Y-61781088D01*
X145665084Y-61644506D01*
X145665084Y-61644505D01*
X145605609Y-61555494D01*
X145582952Y-61521584D01*
X138393549Y-54332181D01*
X138360064Y-54270858D01*
X138365048Y-54201166D01*
X138406920Y-54145233D01*
X138472384Y-54120816D01*
X138481230Y-54120500D01*
X148670396Y-54120500D01*
X148717844Y-54129937D01*
G37*
%TD.AperFunction*%
%TA.AperFunction,Conductor*%
G36*
X150768834Y-51534185D02*
G01*
X150824767Y-51576057D01*
X150849184Y-51641521D01*
X150849500Y-51650367D01*
X150849500Y-52173266D01*
X150849501Y-52173274D01*
X150864063Y-52302532D01*
X150864065Y-52302537D01*
X150903171Y-52414297D01*
X150921412Y-52466425D01*
X150986179Y-52569500D01*
X151013787Y-52613438D01*
X151136562Y-52736213D01*
X151191200Y-52770544D01*
X151283576Y-52828589D01*
X151283580Y-52828590D01*
X151447455Y-52885933D01*
X151447461Y-52885934D01*
X151447463Y-52885935D01*
X151447464Y-52885935D01*
X151447468Y-52885936D01*
X151512098Y-52893217D01*
X151576733Y-52900500D01*
X152923266Y-52900499D01*
X152947102Y-52897813D01*
X153052532Y-52885936D01*
X153052533Y-52885935D01*
X153052537Y-52885935D01*
X153216423Y-52828589D01*
X153363438Y-52736213D01*
X153388319Y-52711332D01*
X153449642Y-52677847D01*
X153519334Y-52682831D01*
X153575267Y-52724703D01*
X153599684Y-52790167D01*
X153600000Y-52799013D01*
X153600000Y-63839270D01*
X153580315Y-63906309D01*
X153527511Y-63952064D01*
X153458353Y-63962008D01*
X153394797Y-63932983D01*
X153388319Y-63926951D01*
X150586819Y-61125451D01*
X150553334Y-61064128D01*
X150550500Y-61037770D01*
X150550500Y-51701367D01*
X150559144Y-51671926D01*
X150565668Y-51641940D01*
X150569422Y-51636924D01*
X150570185Y-51634328D01*
X150586815Y-51613690D01*
X150637820Y-51562685D01*
X150699142Y-51529201D01*
X150768834Y-51534185D01*
G37*
%TD.AperFunction*%
%TA.AperFunction,Conductor*%
G36*
X156552605Y-29670185D02*
G01*
X156598360Y-29722989D01*
X156608304Y-29792147D01*
X156591104Y-29839597D01*
X156565646Y-29880869D01*
X156565641Y-29880880D01*
X156510494Y-30047302D01*
X156510493Y-30047309D01*
X156500000Y-30150013D01*
X156500000Y-31250000D01*
X158499999Y-31250000D01*
X158499999Y-30150028D01*
X158499998Y-30150013D01*
X158489505Y-30047302D01*
X158434358Y-29880880D01*
X158434353Y-29880869D01*
X158408896Y-29839597D01*
X158390455Y-29772205D01*
X158411377Y-29705541D01*
X158465019Y-29660771D01*
X158514434Y-29650500D01*
X165075500Y-29650500D01*
X165142539Y-29670185D01*
X165188294Y-29722989D01*
X165199500Y-29774500D01*
X165199500Y-50876000D01*
X165179815Y-50943039D01*
X165127011Y-50988794D01*
X165075500Y-51000000D01*
X155942719Y-51000000D01*
X155875680Y-50980315D01*
X155829925Y-50927511D01*
X155819981Y-50858353D01*
X155849006Y-50794797D01*
X155877622Y-50770462D01*
X155902724Y-50754977D01*
X155918350Y-50745340D01*
X156040340Y-50623350D01*
X156130908Y-50476516D01*
X156185174Y-50312753D01*
X156195500Y-50211677D01*
X156195499Y-49613324D01*
X156185174Y-49512247D01*
X156130908Y-49348484D01*
X156040340Y-49201650D01*
X155926371Y-49087681D01*
X155892886Y-49026358D01*
X155897870Y-48956666D01*
X155926371Y-48912319D01*
X156040340Y-48798350D01*
X156130908Y-48651516D01*
X156185174Y-48487753D01*
X156195500Y-48386677D01*
X156195499Y-47788324D01*
X156185174Y-47687247D01*
X156130908Y-47523484D01*
X156040340Y-47376650D01*
X155918350Y-47254660D01*
X155787448Y-47173919D01*
X155771518Y-47164093D01*
X155771513Y-47164091D01*
X155770069Y-47163612D01*
X155607753Y-47109826D01*
X155607751Y-47109825D01*
X155506684Y-47099500D01*
X155506677Y-47099500D01*
X155344729Y-47099500D01*
X155277690Y-47079815D01*
X155257048Y-47063181D01*
X155076819Y-46882951D01*
X155043334Y-46821628D01*
X155040500Y-46795270D01*
X155040500Y-41749986D01*
X156500001Y-41749986D01*
X156510494Y-41852697D01*
X156565641Y-42019119D01*
X156565643Y-42019124D01*
X156657684Y-42168345D01*
X156781654Y-42292315D01*
X156930875Y-42384356D01*
X156930880Y-42384358D01*
X157097302Y-42439505D01*
X157097309Y-42439506D01*
X157200019Y-42449999D01*
X157750000Y-42449999D01*
X157799972Y-42449999D01*
X157799986Y-42449998D01*
X157902697Y-42439505D01*
X158069119Y-42384358D01*
X158069124Y-42384356D01*
X158218345Y-42292315D01*
X158342315Y-42168345D01*
X158434356Y-42019124D01*
X158434358Y-42019119D01*
X158489505Y-41852697D01*
X158489506Y-41852690D01*
X158499999Y-41749986D01*
X158500000Y-41749973D01*
X158500000Y-40650000D01*
X157750000Y-40650000D01*
X157750000Y-42449999D01*
X157200019Y-42449999D01*
X157249999Y-42449998D01*
X157250000Y-42449998D01*
X157250000Y-40650000D01*
X156500001Y-40650000D01*
X156500001Y-41749986D01*
X155040500Y-41749986D01*
X155040500Y-41116082D01*
X155040232Y-41114734D01*
X155029358Y-41060070D01*
X155025484Y-41040595D01*
X155011660Y-40971095D01*
X155011659Y-40971088D01*
X154955084Y-40834506D01*
X154955084Y-40834505D01*
X154922186Y-40785270D01*
X154920802Y-40783198D01*
X154872956Y-40711589D01*
X154872952Y-40711584D01*
X154536818Y-40375450D01*
X154503333Y-40314127D01*
X154500499Y-40287769D01*
X154500499Y-39050013D01*
X156500000Y-39050013D01*
X156500000Y-40150000D01*
X157250000Y-40150000D01*
X157750000Y-40150000D01*
X158499999Y-40150000D01*
X158499999Y-39050028D01*
X158499998Y-39050013D01*
X158489505Y-38947302D01*
X158434358Y-38780880D01*
X158434356Y-38780875D01*
X158342315Y-38631654D01*
X158218345Y-38507684D01*
X158069124Y-38415643D01*
X158069119Y-38415641D01*
X157902697Y-38360494D01*
X157902690Y-38360493D01*
X157799986Y-38350000D01*
X157750000Y-38350000D01*
X157750000Y-40150000D01*
X157250000Y-40150000D01*
X157250000Y-38350000D01*
X157249999Y-38349999D01*
X157200029Y-38350000D01*
X157200011Y-38350001D01*
X157097302Y-38360494D01*
X156930880Y-38415641D01*
X156930875Y-38415643D01*
X156781654Y-38507684D01*
X156657684Y-38631654D01*
X156565643Y-38780875D01*
X156565641Y-38780880D01*
X156510494Y-38947302D01*
X156510493Y-38947309D01*
X156500000Y-39050013D01*
X154500499Y-39050013D01*
X154500499Y-39049998D01*
X154500498Y-39049981D01*
X154489999Y-38947203D01*
X154489998Y-38947200D01*
X154488338Y-38942190D01*
X154434814Y-38780666D01*
X154342712Y-38631344D01*
X154286819Y-38575451D01*
X154253334Y-38514128D01*
X154250500Y-38487770D01*
X154250500Y-33628711D01*
X160249500Y-33628711D01*
X160249500Y-33871288D01*
X160281161Y-34111785D01*
X160343947Y-34346104D01*
X160436773Y-34570205D01*
X160436776Y-34570212D01*
X160558064Y-34780289D01*
X160558066Y-34780292D01*
X160558067Y-34780293D01*
X160705733Y-34972736D01*
X160705739Y-34972743D01*
X160877256Y-35144260D01*
X160877262Y-35144265D01*
X161069711Y-35291936D01*
X161279788Y-35413224D01*
X161279790Y-35413225D01*
X161367219Y-35449439D01*
X161503900Y-35506054D01*
X161738211Y-35568838D01*
X161918586Y-35592584D01*
X161978711Y-35600500D01*
X161978712Y-35600500D01*
X162221289Y-35600500D01*
X162269388Y-35594167D01*
X162461789Y-35568838D01*
X162696100Y-35506054D01*
X162920212Y-35413224D01*
X163130289Y-35291936D01*
X163322738Y-35144265D01*
X163494265Y-34972738D01*
X163641936Y-34780289D01*
X163763224Y-34570212D01*
X163856054Y-34346100D01*
X163918838Y-34111789D01*
X163950500Y-33871288D01*
X163950500Y-33628712D01*
X163918838Y-33388211D01*
X163856054Y-33153900D01*
X163763224Y-32929788D01*
X163641936Y-32719711D01*
X163494265Y-32527262D01*
X163494260Y-32527256D01*
X163322743Y-32355739D01*
X163322736Y-32355733D01*
X163130293Y-32208067D01*
X163130292Y-32208066D01*
X163130289Y-32208064D01*
X162920212Y-32086776D01*
X162920205Y-32086773D01*
X162696104Y-31993947D01*
X162461785Y-31931161D01*
X162221289Y-31899500D01*
X162221288Y-31899500D01*
X161978712Y-31899500D01*
X161978711Y-31899500D01*
X161738214Y-31931161D01*
X161503895Y-31993947D01*
X161279794Y-32086773D01*
X161279785Y-32086777D01*
X161069706Y-32208067D01*
X160877263Y-32355733D01*
X160877256Y-32355739D01*
X160705739Y-32527256D01*
X160705733Y-32527263D01*
X160558067Y-32719706D01*
X160436777Y-32929785D01*
X160436773Y-32929794D01*
X160343947Y-33153895D01*
X160281161Y-33388214D01*
X160249500Y-33628711D01*
X154250500Y-33628711D01*
X154250500Y-33412230D01*
X154270185Y-33345191D01*
X154286819Y-33324549D01*
X154308283Y-33303085D01*
X154342712Y-33268656D01*
X154434814Y-33119334D01*
X154489999Y-32952797D01*
X154500500Y-32850009D01*
X154500500Y-32849986D01*
X156500001Y-32849986D01*
X156510494Y-32952697D01*
X156565641Y-33119119D01*
X156565643Y-33119124D01*
X156657684Y-33268345D01*
X156781654Y-33392315D01*
X156930875Y-33484356D01*
X156930880Y-33484358D01*
X157097302Y-33539505D01*
X157097309Y-33539506D01*
X157200019Y-33549999D01*
X157750000Y-33549999D01*
X157799972Y-33549999D01*
X157799986Y-33549998D01*
X157902697Y-33539505D01*
X158000952Y-33506947D01*
X158069119Y-33484358D01*
X158069124Y-33484356D01*
X158218345Y-33392315D01*
X158342315Y-33268345D01*
X158434356Y-33119124D01*
X158434358Y-33119119D01*
X158489505Y-32952697D01*
X158489506Y-32952690D01*
X158499999Y-32849986D01*
X158500000Y-32849973D01*
X158500000Y-31750000D01*
X157750000Y-31750000D01*
X157750000Y-33549999D01*
X157200019Y-33549999D01*
X157249999Y-33549998D01*
X157250000Y-33549998D01*
X157250000Y-31750000D01*
X156500001Y-31750000D01*
X156500001Y-32849986D01*
X154500500Y-32849986D01*
X154500499Y-31250000D01*
X154500499Y-30149998D01*
X154500498Y-30149981D01*
X154489999Y-30047203D01*
X154489998Y-30047200D01*
X154488338Y-30042190D01*
X154434814Y-29880666D01*
X154409481Y-29839595D01*
X154391042Y-29772204D01*
X154411965Y-29705541D01*
X154465607Y-29660771D01*
X154515021Y-29650500D01*
X156485566Y-29650500D01*
X156552605Y-29670185D01*
G37*
%TD.AperFunction*%
%TA.AperFunction,Conductor*%
G36*
X152552018Y-29670185D02*
G01*
X152597773Y-29722989D01*
X152607717Y-29792147D01*
X152590518Y-29839594D01*
X152580158Y-29856391D01*
X152565187Y-29880663D01*
X152565185Y-29880668D01*
X152565115Y-29880880D01*
X152510001Y-30047203D01*
X152510001Y-30047204D01*
X152510000Y-30047204D01*
X152499500Y-30149983D01*
X152499500Y-32850001D01*
X152499501Y-32850018D01*
X152510000Y-32952796D01*
X152510001Y-32952799D01*
X152563525Y-33114322D01*
X152565186Y-33119334D01*
X152657096Y-33268345D01*
X152657289Y-33268657D01*
X152713181Y-33324549D01*
X152746666Y-33385872D01*
X152749500Y-33412230D01*
X152749500Y-38487770D01*
X152729815Y-38554809D01*
X152713181Y-38575451D01*
X152657289Y-38631342D01*
X152565187Y-38780663D01*
X152565185Y-38780668D01*
X152565115Y-38780880D01*
X152510001Y-38947203D01*
X152510001Y-38947204D01*
X152510000Y-38947204D01*
X152499500Y-39049983D01*
X152499500Y-41750001D01*
X152499501Y-41750018D01*
X152510000Y-41852796D01*
X152510001Y-41852799D01*
X152565115Y-42019119D01*
X152565186Y-42019334D01*
X152657288Y-42168656D01*
X152781344Y-42292712D01*
X152930666Y-42384814D01*
X153097203Y-42439999D01*
X153199991Y-42450500D01*
X153415500Y-42450499D01*
X153482539Y-42470183D01*
X153528294Y-42522987D01*
X153539500Y-42574499D01*
X153539500Y-44110044D01*
X153519815Y-44177083D01*
X153467011Y-44222838D01*
X153397853Y-44232782D01*
X153353500Y-44217431D01*
X153171028Y-44112080D01*
X153171017Y-44112075D01*
X152916632Y-44006705D01*
X152683242Y-43944168D01*
X152627655Y-43912074D01*
X151686819Y-42971238D01*
X151653334Y-42909915D01*
X151650500Y-42883557D01*
X151650500Y-35877765D01*
X151643027Y-35821002D01*
X151630476Y-35725664D01*
X151620549Y-35650261D01*
X151561158Y-35428614D01*
X151554783Y-35413224D01*
X151535438Y-35366519D01*
X151473345Y-35216612D01*
X151431575Y-35144266D01*
X151415978Y-35117251D01*
X151415977Y-35117250D01*
X151358611Y-35017888D01*
X151358610Y-35017886D01*
X151264358Y-34895054D01*
X151264354Y-34895051D01*
X151218919Y-34835837D01*
X151218915Y-34835833D01*
X149703607Y-33320526D01*
X149676727Y-33280297D01*
X149633169Y-33175138D01*
X149633162Y-33175123D01*
X149508599Y-32959373D01*
X149356939Y-32761725D01*
X149356933Y-32761718D01*
X149180781Y-32585566D01*
X149180774Y-32585560D01*
X148983126Y-32433900D01*
X148767376Y-32309337D01*
X148767361Y-32309330D01*
X148537207Y-32213998D01*
X148296561Y-32149517D01*
X148049575Y-32117001D01*
X148049570Y-32117000D01*
X148049565Y-32117000D01*
X147800435Y-32117000D01*
X147800429Y-32117000D01*
X147800424Y-32117001D01*
X147553438Y-32149517D01*
X147312792Y-32213998D01*
X147082638Y-32309330D01*
X147082623Y-32309337D01*
X146866873Y-32433900D01*
X146669225Y-32585560D01*
X146669218Y-32585566D01*
X146493066Y-32761718D01*
X146493060Y-32761725D01*
X146341400Y-32959373D01*
X146216837Y-33175123D01*
X146216830Y-33175138D01*
X146121498Y-33405292D01*
X146057017Y-33645938D01*
X146024501Y-33892924D01*
X146024500Y-33892941D01*
X146024500Y-34142058D01*
X146024501Y-34142075D01*
X146057017Y-34389061D01*
X146121498Y-34629707D01*
X146216830Y-34859861D01*
X146216837Y-34859876D01*
X146341400Y-35075626D01*
X146493060Y-35273274D01*
X146493066Y-35273281D01*
X146669218Y-35449433D01*
X146669225Y-35449439D01*
X146866873Y-35601099D01*
X147082623Y-35725662D01*
X147082638Y-35725669D01*
X147187797Y-35769227D01*
X147228026Y-35796107D01*
X148113181Y-36681262D01*
X148146666Y-36742585D01*
X148149500Y-36768943D01*
X148149500Y-39427586D01*
X148129815Y-39494625D01*
X148077011Y-39540380D01*
X148007853Y-39550324D01*
X147963500Y-39534973D01*
X147775891Y-39426657D01*
X147775876Y-39426650D01*
X147563887Y-39338842D01*
X147342238Y-39279452D01*
X147304215Y-39274446D01*
X147114741Y-39249500D01*
X147114734Y-39249500D01*
X146885266Y-39249500D01*
X146885258Y-39249500D01*
X146668715Y-39278009D01*
X146657762Y-39279452D01*
X146564076Y-39304554D01*
X146436112Y-39338842D01*
X146224123Y-39426650D01*
X146224109Y-39426657D01*
X146025382Y-39541392D01*
X145843338Y-39681081D01*
X145681081Y-39843338D01*
X145541392Y-40025382D01*
X145426657Y-40224109D01*
X145426650Y-40224123D01*
X145338845Y-40436105D01*
X145338842Y-40436113D01*
X145279453Y-40657761D01*
X145279451Y-40657770D01*
X145249500Y-40885258D01*
X145249500Y-40973556D01*
X145229815Y-41040595D01*
X145213181Y-41061237D01*
X139312180Y-46962238D01*
X139292743Y-46972850D01*
X139276010Y-46987351D01*
X139262678Y-46989267D01*
X139250857Y-46995723D01*
X139228770Y-46994143D01*
X139206852Y-46997295D01*
X139194600Y-46991699D01*
X139181165Y-46990739D01*
X139163438Y-46977468D01*
X139143296Y-46968270D01*
X139136013Y-46956938D01*
X139125232Y-46948867D01*
X139117494Y-46928121D01*
X139105522Y-46909492D01*
X139102370Y-46887573D01*
X139100815Y-46883403D01*
X139100499Y-46874557D01*
X139100499Y-46626443D01*
X139120184Y-46559404D01*
X139136818Y-46538762D01*
X141326062Y-44349519D01*
X143518920Y-42156661D01*
X143658610Y-41974612D01*
X143773345Y-41775888D01*
X143861158Y-41563886D01*
X143920549Y-41342239D01*
X143950500Y-41114734D01*
X143950500Y-40885266D01*
X143920549Y-40657761D01*
X143861158Y-40436113D01*
X143825404Y-40349794D01*
X143773349Y-40224120D01*
X143773344Y-40224111D01*
X143773343Y-40224109D01*
X143658610Y-40025388D01*
X143658605Y-40025382D01*
X143658603Y-40025378D01*
X143518921Y-39843340D01*
X143518915Y-39843333D01*
X143356666Y-39681084D01*
X143356659Y-39681078D01*
X143174621Y-39541396D01*
X143174615Y-39541392D01*
X143174612Y-39541390D01*
X142975888Y-39426655D01*
X142975879Y-39426650D01*
X142763894Y-39338844D01*
X142542242Y-39279452D01*
X142542239Y-39279451D01*
X142542238Y-39279450D01*
X142542235Y-39279450D01*
X142314735Y-39249500D01*
X142314734Y-39249500D01*
X142085266Y-39249500D01*
X142085265Y-39249500D01*
X141857764Y-39279450D01*
X141636106Y-39338844D01*
X141424120Y-39426650D01*
X141424111Y-39426655D01*
X141225388Y-39541390D01*
X141225378Y-39541396D01*
X141043340Y-39681078D01*
X141043333Y-39681084D01*
X138556961Y-42167456D01*
X138495638Y-42200941D01*
X138425946Y-42195957D01*
X138370013Y-42154085D01*
X138345596Y-42088621D01*
X138360448Y-42020348D01*
X138363727Y-42014701D01*
X138363963Y-42014320D01*
X138419148Y-41847783D01*
X138429649Y-41744995D01*
X138429648Y-39044978D01*
X138419148Y-38942189D01*
X138363963Y-38775652D01*
X138271861Y-38626330D01*
X138215968Y-38570437D01*
X138182483Y-38509114D01*
X138179649Y-38482756D01*
X138179649Y-33407216D01*
X138199334Y-33340177D01*
X138215968Y-33319535D01*
X138232418Y-33303085D01*
X138271861Y-33263642D01*
X138363963Y-33114320D01*
X138419148Y-32947783D01*
X138429649Y-32844995D01*
X138429649Y-32817514D01*
X141025000Y-32817514D01*
X141025000Y-33767500D01*
X142324999Y-33767500D01*
X142299979Y-33827902D01*
X142275000Y-33953481D01*
X142275000Y-34081519D01*
X142299979Y-34207098D01*
X142324999Y-34267500D01*
X141025000Y-34267500D01*
X141025000Y-35217485D01*
X141035493Y-35320189D01*
X141035494Y-35320196D01*
X141090641Y-35486618D01*
X141090643Y-35486623D01*
X141182684Y-35635844D01*
X141306655Y-35759815D01*
X141455876Y-35851856D01*
X141455881Y-35851858D01*
X141622303Y-35907005D01*
X141622310Y-35907006D01*
X141725014Y-35917499D01*
X141725027Y-35917500D01*
X142675000Y-35917500D01*
X142675000Y-34617501D01*
X142735402Y-34642521D01*
X142860981Y-34667500D01*
X142989019Y-34667500D01*
X143114598Y-34642521D01*
X143175000Y-34617501D01*
X143175000Y-35917500D01*
X144124973Y-35917500D01*
X144124985Y-35917499D01*
X144227689Y-35907006D01*
X144227696Y-35907005D01*
X144394118Y-35851858D01*
X144394123Y-35851856D01*
X144543344Y-35759815D01*
X144667315Y-35635844D01*
X144759356Y-35486623D01*
X144759358Y-35486618D01*
X144814505Y-35320196D01*
X144814506Y-35320189D01*
X144824999Y-35217485D01*
X144825000Y-35217472D01*
X144825000Y-34267500D01*
X143525001Y-34267500D01*
X143550021Y-34207098D01*
X143575000Y-34081519D01*
X143575000Y-33953481D01*
X143550021Y-33827902D01*
X143525001Y-33767500D01*
X144825000Y-33767500D01*
X144825000Y-32817527D01*
X144824999Y-32817514D01*
X144814506Y-32714810D01*
X144814505Y-32714803D01*
X144759358Y-32548381D01*
X144759356Y-32548376D01*
X144667315Y-32399155D01*
X144543344Y-32275184D01*
X144394123Y-32183143D01*
X144394118Y-32183141D01*
X144227696Y-32127994D01*
X144227689Y-32127993D01*
X144124985Y-32117500D01*
X143175000Y-32117500D01*
X143175000Y-33417498D01*
X143114598Y-33392479D01*
X142989019Y-33367500D01*
X142860981Y-33367500D01*
X142735402Y-33392479D01*
X142675000Y-33417498D01*
X142675000Y-32117500D01*
X141725014Y-32117500D01*
X141622310Y-32127993D01*
X141622303Y-32127994D01*
X141455881Y-32183141D01*
X141455876Y-32183143D01*
X141306655Y-32275184D01*
X141182684Y-32399155D01*
X141090643Y-32548376D01*
X141090641Y-32548381D01*
X141035494Y-32714803D01*
X141035493Y-32714810D01*
X141025000Y-32817514D01*
X138429649Y-32817514D01*
X138429648Y-30144978D01*
X138419148Y-30042189D01*
X138363963Y-29875652D01*
X138363959Y-29875645D01*
X138341724Y-29839596D01*
X138323284Y-29772204D01*
X138344207Y-29705540D01*
X138397849Y-29660771D01*
X138447263Y-29650500D01*
X152484979Y-29650500D01*
X152552018Y-29670185D01*
G37*
%TD.AperFunction*%
%TD*%
M02*
