%TF.GenerationSoftware,KiCad,Pcbnew,10.0.3*%
%TF.CreationDate,2026-08-14T13:03:01+01:00*%
%TF.ProjectId,Power_Monitor_V2,506f7765-725f-44d6-9f6e-69746f725f56,rev?*%
%TF.SameCoordinates,Original*%
%TF.FileFunction,Copper,L2,Bot*%
%TF.FilePolarity,Positive*%
%FSLAX46Y46*%
G04 Gerber Fmt 4.6, Leading zero omitted, Abs format (unit mm)*
G04 Created by KiCad (PCBNEW 10.0.3) date 2026-08-14 13:03:01*
%MOMM*%
%LPD*%
G01*
G04 APERTURE LIST*
G04 Aperture macros list*
%AMRoundRect*
0 Rectangle with rounded corners*
0 $1 Rounding radius*
0 $2 $3 $4 $5 $6 $7 $8 $9 X,Y pos of 4 corners*
0 Add a 4 corners polygon primitive as box body*
4,1,4,$2,$3,$4,$5,$6,$7,$8,$9,$2,$3,0*
0 Add four circle primitives for the rounded corners*
1,1,$1+$1,$2,$3*
1,1,$1+$1,$4,$5*
1,1,$1+$1,$6,$7*
1,1,$1+$1,$8,$9*
0 Add four rect primitives between the rounded corners*
20,1,$1+$1,$2,$3,$4,$5,0*
20,1,$1+$1,$4,$5,$6,$7,0*
20,1,$1+$1,$6,$7,$8,$9,0*
20,1,$1+$1,$8,$9,$2,$3,0*%
G04 Aperture macros list end*
%TA.AperFunction,SMDPad,CuDef*%
%ADD10RoundRect,0.250000X-0.475000X0.337500X-0.475000X-0.337500X0.475000X-0.337500X0.475000X0.337500X0*%
%TD*%
%TA.AperFunction,ComponentPad*%
%ADD11R,2.000000X2.000000*%
%TD*%
%TA.AperFunction,ComponentPad*%
%ADD12C,2.000000*%
%TD*%
%TA.AperFunction,SMDPad,CuDef*%
%ADD13RoundRect,0.250000X-0.337500X-0.475000X0.337500X-0.475000X0.337500X0.475000X-0.337500X0.475000X0*%
%TD*%
%TA.AperFunction,ComponentPad*%
%ADD14C,1.600000*%
%TD*%
%TA.AperFunction,ComponentPad*%
%ADD15RoundRect,0.270000X-0.630000X-0.630000X0.630000X-0.630000X0.630000X0.630000X-0.630000X0.630000X0*%
%TD*%
%TA.AperFunction,HeatsinkPad*%
%ADD16C,0.600000*%
%TD*%
%TA.AperFunction,ComponentPad*%
%ADD17C,2.800000*%
%TD*%
%TA.AperFunction,ComponentPad*%
%ADD18RoundRect,0.250001X-1.149999X-1.149999X1.149999X-1.149999X1.149999X1.149999X-1.149999X1.149999X0*%
%TD*%
%TA.AperFunction,ComponentPad*%
%ADD19C,1.400000*%
%TD*%
%TA.AperFunction,SMDPad,CuDef*%
%ADD20RoundRect,0.250000X0.475000X-0.337500X0.475000X0.337500X-0.475000X0.337500X-0.475000X-0.337500X0*%
%TD*%
%TA.AperFunction,ComponentPad*%
%ADD21C,1.250000*%
%TD*%
%TA.AperFunction,ComponentPad*%
%ADD22R,1.250000X1.250000*%
%TD*%
%TA.AperFunction,ComponentPad*%
%ADD23RoundRect,0.250000X-1.350000X-1.350000X1.350000X-1.350000X1.350000X1.350000X-1.350000X1.350000X0*%
%TD*%
%TA.AperFunction,ComponentPad*%
%ADD24C,3.200000*%
%TD*%
%TA.AperFunction,ComponentPad*%
%ADD25R,1.350000X1.350000*%
%TD*%
%TA.AperFunction,ComponentPad*%
%ADD26C,1.350000*%
%TD*%
%TA.AperFunction,ViaPad*%
%ADD27C,0.600000*%
%TD*%
%TA.AperFunction,ViaPad*%
%ADD28C,0.800000*%
%TD*%
%TA.AperFunction,Conductor*%
%ADD29C,2.500000*%
%TD*%
%TA.AperFunction,Conductor*%
%ADD30C,0.500000*%
%TD*%
%TA.AperFunction,Conductor*%
%ADD31C,0.200000*%
%TD*%
%TA.AperFunction,Conductor*%
%ADD32C,0.250000*%
%TD*%
%TA.AperFunction,Conductor*%
%ADD33C,2.000000*%
%TD*%
G04 APERTURE END LIST*
D10*
%TO.P,C6,2*%
%TO.N,GNDREF*%
X142825000Y-57387500D03*
%TO.P,C6,1*%
%TO.N,+15V*%
X142825000Y-55312500D03*
%TD*%
%TO.P,C7,2*%
%TO.N,GNDREF*%
X152375000Y-57387500D03*
%TO.P,C7,1*%
%TO.N,+3.3V*%
X152375000Y-55312500D03*
%TD*%
D11*
%TO.P,BZ1,1,+_1*%
%TO.N,Net-(BZ1-+)*%
X129900000Y-67000000D03*
D12*
%TO.P,BZ1,2,-_2*%
%TO.N,GNDREF*%
X129900000Y-74600000D03*
%TD*%
D13*
%TO.P,C4,2*%
%TO.N,+3.3V*%
X149300000Y-63400000D03*
%TO.P,C4,1*%
%TO.N,GNDREF*%
X147225000Y-63400000D03*
%TD*%
D14*
%TO.P,F1,2*%
%TO.N,+15V*%
X147000000Y-41000000D03*
%TO.P,F1,1*%
%TO.N,Net-(D1-K)*%
X142200000Y-41000000D03*
%TD*%
D15*
%TO.P,U1,1,In+_1*%
%TO.N,+15V*%
X137250000Y-51500000D03*
%TO.P,U1,3,Out+_3*%
%TO.N,+3.3V*%
X152250000Y-51500000D03*
%TO.P,U1,4,Out-_4*%
%TO.N,GNDREF*%
X152250000Y-60500000D03*
%TD*%
D16*
%TO.P,U2,41,GND_41*%
%TO.N,GNDREF*%
X145090000Y-72100000D03*
X143690000Y-72100000D03*
X145790000Y-72800000D03*
X144390000Y-72800000D03*
X142990000Y-72800000D03*
X145090000Y-73500000D03*
X143690000Y-73500000D03*
X145790000Y-74200000D03*
X144390000Y-74200000D03*
X142990000Y-74200000D03*
X145090000Y-74900000D03*
X143690000Y-74900000D03*
%TD*%
D17*
%TO.P,Output1,2,Pin_2_2*%
%TO.N,Net-(Output1-Pin_2)*%
X148225000Y-108842500D03*
D18*
%TO.P,Output1,1,Pin_1_1*%
%TO.N,GNDREF*%
X143225000Y-108842500D03*
%TD*%
D19*
%TO.P,RShunt1,2*%
%TO.N,+15V*%
X140090000Y-103550000D03*
%TO.P,RShunt1,1*%
%TO.N,Net-(Output1-Pin_2)*%
X147710000Y-103550000D03*
%TD*%
%TO.P,R1,1*%
%TO.N,/SCL*%
X136000000Y-92500000D03*
%TO.P,R1,2*%
%TO.N,+3.3V*%
X136000000Y-100120000D03*
%TD*%
%TO.P,R2,1*%
%TO.N,/SDA*%
X138100000Y-92500000D03*
%TO.P,R2,2*%
%TO.N,+3.3V*%
X138100000Y-100120000D03*
%TD*%
D20*
%TO.P,C1,1*%
%TO.N,+3.3V*%
X139950000Y-101537500D03*
%TO.P,C1,2*%
%TO.N,GNDREF*%
X139950000Y-99462500D03*
%TD*%
D21*
%TO.P,U4,4,SDA_4*%
%TO.N,/SDA*%
X133900000Y-88590000D03*
%TO.P,U4,3,SCL_3*%
%TO.N,/SCL*%
X133900000Y-91130000D03*
%TO.P,U4,2,VCC_IN_2*%
%TO.N,+3.3V*%
X133900000Y-93670000D03*
D22*
%TO.P,U4,1,GND_1*%
%TO.N,GNDREF*%
X133900000Y-96210000D03*
%TD*%
D20*
%TO.P,C2,2*%
%TO.N,+3.3V*%
X133800000Y-97962500D03*
%TO.P,C2,1*%
%TO.N,GNDREF*%
X133800000Y-100037500D03*
%TD*%
D17*
%TO.P,Input1,2,Pin_2_2*%
%TO.N,Net-(D1-A)*%
X147925000Y-34017500D03*
D18*
%TO.P,Input1,1,Pin_1_1*%
%TO.N,GNDREF*%
X142925000Y-34017500D03*
%TD*%
D23*
%TO.P,D1,1,K_1*%
%TO.N,Net-(D1-K)*%
X137000000Y-46000000D03*
D24*
%TO.P,D1,2,A_2*%
%TO.N,Net-(D1-A)*%
X152240000Y-46000000D03*
%TD*%
D25*
%TO.P,U5,1,GND_1*%
%TO.N,GNDREF*%
X151700000Y-99600000D03*
D26*
%TO.P,U5,2,5V_2*%
%TO.N,unconnected-(U5-5V-Pad2)*%
X151700000Y-97060000D03*
%TO.P,U5,4,RXD_4*%
%TO.N,Net-(U2-TXD0)*%
X151700000Y-91980000D03*
%TO.P,U5,5,DTR_5*%
%TO.N,unconnected-(U5-DTR-Pad5)*%
X151700000Y-89440000D03*
%TO.P,U5,3,TXD_3*%
%TO.N,Net-(U2-RXD0)*%
X151700000Y-94520000D03*
%TO.P,U5,6,3.3V_6*%
%TO.N,unconnected-(U5-3.3V-Pad6)*%
X151700000Y-86900000D03*
%TD*%
D27*
%TO.N,+3.3V*%
X137825000Y-53370000D03*
X148975000Y-53370000D03*
%TO.N,GNDREF*%
X135700000Y-33550000D03*
%TO.N,+15V*%
X144475000Y-101075000D03*
X142728494Y-101901455D03*
%TO.N,GNDREF*%
X139475000Y-39250000D03*
X136825000Y-77525000D03*
X132700000Y-72450000D03*
X132300000Y-98700000D03*
%TO.N,+3.3V*%
X141550000Y-100900000D03*
%TO.N,GNDREF*%
X152800000Y-62600000D03*
X155400000Y-45000000D03*
X141938515Y-101599328D03*
%TO.N,/SDA*%
X142250000Y-93500000D03*
%TO.N,+3.3V*%
X137000000Y-62400000D03*
%TO.N,/SCL*%
X140814247Y-94185753D03*
D28*
%TO.N,+3.3V*%
X150840000Y-64590000D03*
%TD*%
%TO.N,+15V*%
D29*
X137250000Y-51500000D02*
X139012500Y-51500000D01*
X139012500Y-51500000D02*
X142825000Y-55312500D01*
%TO.N,+3.3V*%
D30*
X152250000Y-51500000D02*
X152250000Y-55187500D01*
X152250000Y-55187500D02*
X152375000Y-55312500D01*
X148975000Y-53370000D02*
X150428000Y-53370000D01*
X135350000Y-53370000D02*
X137825000Y-53370000D01*
X132210000Y-63600000D02*
X132210000Y-56510000D01*
X135600000Y-101700000D02*
X133325000Y-101700000D01*
X131550000Y-99925000D02*
X131550000Y-94400000D01*
X133325000Y-101700000D02*
X131550000Y-99925000D01*
%TO.N,+15V*%
D31*
X142728494Y-101901455D02*
X142728494Y-101521506D01*
X142728494Y-101521506D02*
X143175000Y-101075000D01*
X143175000Y-101075000D02*
X144475000Y-101075000D01*
D29*
X137062000Y-103550000D02*
X132650000Y-103550000D01*
X132650000Y-103550000D02*
X127450000Y-98350000D01*
X135172000Y-49470000D02*
X137130000Y-51428000D01*
X127450000Y-54129440D02*
X132109440Y-49470000D01*
X127450000Y-98350000D02*
X127450000Y-54129440D01*
X132109440Y-49470000D02*
X135172000Y-49470000D01*
%TO.N,GNDREF*%
D31*
X133800000Y-100037500D02*
X133637500Y-100037500D01*
X133637500Y-100037500D02*
X132300000Y-98700000D01*
%TO.N,/SDA*%
D32*
X141250000Y-92500000D02*
X137340000Y-88590000D01*
X137340000Y-88590000D02*
X133900000Y-88590000D01*
X142250000Y-93500000D02*
X141250000Y-92500000D01*
X141250000Y-92500000D02*
X138100000Y-92500000D01*
D31*
X138100000Y-92500000D02*
X134190000Y-88590000D01*
X134190000Y-88590000D02*
X133900000Y-88590000D01*
%TO.N,+3.3V*%
D30*
X140912500Y-101537500D02*
X141550000Y-100900000D01*
X139950000Y-101537500D02*
X140912500Y-101537500D01*
%TO.N,+15V*%
D33*
X137062000Y-103550000D02*
X140090000Y-103550000D01*
%TO.N,+3.3V*%
D30*
X150050000Y-53748000D02*
X152370000Y-51428000D01*
X138100000Y-101700000D02*
X135600000Y-101700000D01*
X150840000Y-64590000D02*
X150840000Y-64540000D01*
X150200000Y-63900000D02*
X149800000Y-63900000D01*
X149800000Y-63900000D02*
X149300000Y-63400000D01*
X150840000Y-64540000D02*
X150200000Y-63900000D01*
%TO.N,/SCL*%
D32*
X137685753Y-94185753D02*
X136000000Y-92500000D01*
X140814247Y-94185753D02*
X137685753Y-94185753D01*
%TO.N,+3.3V*%
D30*
X138100000Y-101700000D02*
X138100000Y-100120000D01*
X139950000Y-101537500D02*
X139787500Y-101700000D01*
X139787500Y-101700000D02*
X138100000Y-101700000D01*
X150050000Y-61850000D02*
X150050000Y-53748000D01*
X150840000Y-64590000D02*
X150840000Y-62640000D01*
X150840000Y-62640000D02*
X150050000Y-61850000D01*
X131550000Y-91320000D02*
X133900000Y-93670000D01*
X131550000Y-88900000D02*
X131550000Y-91320000D01*
X135600000Y-101700000D02*
X135600000Y-100520000D01*
X131550000Y-88900000D02*
X131550000Y-64260000D01*
X137000000Y-62400000D02*
X133410000Y-62400000D01*
X133410000Y-62400000D02*
X132210000Y-63600000D01*
X135600000Y-100520000D02*
X136000000Y-100120000D01*
X150428000Y-53370000D02*
X152370000Y-51428000D01*
X131550000Y-64260000D02*
X132210000Y-63600000D01*
X131550000Y-94400000D02*
X131550000Y-88900000D01*
X133075000Y-97962500D02*
X133800000Y-97962500D01*
X131550000Y-94400000D02*
X131550000Y-96437500D01*
X131550000Y-96437500D02*
X133075000Y-97962500D01*
X152562000Y-51620000D02*
X152370000Y-51428000D01*
X132210000Y-56510000D02*
X135350000Y-53370000D01*
%TD*%
%TA.AperFunction,Conductor*%
%TO.N,GNDREF*%
G36*
X165142539Y-29670185D02*
G01*
X165188294Y-29722989D01*
X165199500Y-29774500D01*
X165199500Y-50876000D01*
X165179815Y-50943039D01*
X165127011Y-50988794D01*
X165075500Y-51000000D01*
X153774499Y-51000000D01*
X153707460Y-50980315D01*
X153661705Y-50927511D01*
X153650499Y-50876000D01*
X153650499Y-50826733D01*
X153650498Y-50826725D01*
X153635936Y-50697467D01*
X153635932Y-50697455D01*
X153578589Y-50533577D01*
X153486213Y-50386562D01*
X153363438Y-50263787D01*
X153216423Y-50171410D01*
X153216419Y-50171409D01*
X153052544Y-50114066D01*
X153052531Y-50114063D01*
X152923271Y-50099500D01*
X151576733Y-50099500D01*
X151576725Y-50099501D01*
X151447467Y-50114063D01*
X151283574Y-50171412D01*
X151136561Y-50263787D01*
X151013787Y-50386561D01*
X150921410Y-50533576D01*
X150921409Y-50533580D01*
X150864066Y-50697455D01*
X150864063Y-50697468D01*
X150849500Y-50826726D01*
X150849500Y-51835769D01*
X150840854Y-51865211D01*
X150834332Y-51895195D01*
X150830577Y-51900210D01*
X150829815Y-51902808D01*
X150813185Y-51923445D01*
X150672745Y-52063887D01*
X150672744Y-52063887D01*
X150672743Y-52063888D01*
X150153451Y-52583181D01*
X150092128Y-52616666D01*
X150065770Y-52619500D01*
X149279604Y-52619500D01*
X149232155Y-52610062D01*
X149208497Y-52600263D01*
X149208493Y-52600262D01*
X149208488Y-52600260D01*
X149053845Y-52569500D01*
X149053842Y-52569500D01*
X148896158Y-52569500D01*
X148896155Y-52569500D01*
X148741510Y-52600261D01*
X148741498Y-52600264D01*
X148595827Y-52660602D01*
X148595814Y-52660609D01*
X148464711Y-52748210D01*
X148464707Y-52748213D01*
X148353213Y-52859707D01*
X148353210Y-52859711D01*
X148265609Y-52990814D01*
X148265602Y-52990827D01*
X148205264Y-53136498D01*
X148205261Y-53136510D01*
X148174500Y-53291153D01*
X148174500Y-53448846D01*
X148205261Y-53603489D01*
X148205264Y-53603501D01*
X148265602Y-53749172D01*
X148265609Y-53749185D01*
X148353210Y-53880288D01*
X148353213Y-53880292D01*
X148464707Y-53991786D01*
X148464711Y-53991789D01*
X148595814Y-54079390D01*
X148595827Y-54079397D01*
X148695060Y-54120500D01*
X148741503Y-54139737D01*
X148896153Y-54170499D01*
X148896156Y-54170500D01*
X148896158Y-54170500D01*
X149053844Y-54170500D01*
X149151308Y-54151113D01*
X149220900Y-54157340D01*
X149276077Y-54200203D01*
X149299322Y-54266093D01*
X149299500Y-54272730D01*
X149299500Y-61923922D01*
X149319866Y-62026309D01*
X149313639Y-62095901D01*
X149270776Y-62151078D01*
X149204886Y-62174322D01*
X149198249Y-62174500D01*
X148912499Y-62174500D01*
X148912480Y-62174501D01*
X148809703Y-62185000D01*
X148809700Y-62185001D01*
X148643168Y-62240185D01*
X148643163Y-62240187D01*
X148493842Y-62332289D01*
X148369788Y-62456343D01*
X148369783Y-62456349D01*
X148367741Y-62459661D01*
X148365747Y-62461453D01*
X148365307Y-62462011D01*
X148365211Y-62461935D01*
X148315791Y-62506383D01*
X148246828Y-62517602D01*
X148182747Y-62489755D01*
X148156668Y-62459656D01*
X148154819Y-62456659D01*
X148154816Y-62456655D01*
X148030845Y-62332684D01*
X147881624Y-62240643D01*
X147881619Y-62240641D01*
X147715197Y-62185494D01*
X147715190Y-62185493D01*
X147612486Y-62175000D01*
X147475000Y-62175000D01*
X147475000Y-64624999D01*
X147612472Y-64624999D01*
X147612486Y-64624998D01*
X147715197Y-64614505D01*
X147881619Y-64559358D01*
X147881624Y-64559356D01*
X148030845Y-64467315D01*
X148154818Y-64343342D01*
X148156665Y-64340348D01*
X148158469Y-64338724D01*
X148159298Y-64337677D01*
X148159476Y-64337818D01*
X148208610Y-64293621D01*
X148277573Y-64282396D01*
X148341656Y-64310236D01*
X148367743Y-64340341D01*
X148369788Y-64343656D01*
X148493844Y-64467712D01*
X148643166Y-64559814D01*
X148809703Y-64614999D01*
X148912491Y-64625500D01*
X149588184Y-64625499D01*
X149600826Y-64626145D01*
X149606640Y-64626740D01*
X149726082Y-64650500D01*
X149726083Y-64650500D01*
X149838467Y-64650500D01*
X149844770Y-64651146D01*
X149871484Y-64662056D01*
X149899167Y-64670185D01*
X149903427Y-64675102D01*
X149909453Y-64677563D01*
X149926027Y-64701184D01*
X149944922Y-64722989D01*
X149947986Y-64732477D01*
X149949586Y-64734757D01*
X149949710Y-64737815D01*
X149953745Y-64750308D01*
X149974104Y-64852660D01*
X149974107Y-64852670D01*
X150041983Y-65016540D01*
X150041990Y-65016553D01*
X150140535Y-65164034D01*
X150140538Y-65164038D01*
X150265961Y-65289461D01*
X150265965Y-65289464D01*
X150413446Y-65388009D01*
X150413459Y-65388016D01*
X150536363Y-65438923D01*
X150577334Y-65455894D01*
X150577336Y-65455894D01*
X150577341Y-65455896D01*
X150751304Y-65490499D01*
X150751307Y-65490500D01*
X150751309Y-65490500D01*
X150928693Y-65490500D01*
X150928694Y-65490499D01*
X150986682Y-65478964D01*
X151102658Y-65455896D01*
X151102661Y-65455894D01*
X151102666Y-65455894D01*
X151266547Y-65388013D01*
X151414035Y-65289464D01*
X151539464Y-65164035D01*
X151638013Y-65016547D01*
X151705894Y-64852666D01*
X151740500Y-64678691D01*
X151740500Y-64501309D01*
X151740500Y-64501306D01*
X151740499Y-64501304D01*
X151705896Y-64327341D01*
X151705893Y-64327332D01*
X151647386Y-64186082D01*
X151638013Y-64163453D01*
X151638011Y-64163451D01*
X151638011Y-64163449D01*
X151611398Y-64123620D01*
X151590520Y-64056942D01*
X151590500Y-64054729D01*
X151590500Y-62566081D01*
X151590499Y-62566080D01*
X151580356Y-62515084D01*
X151561659Y-62421088D01*
X151507408Y-62290118D01*
X151505765Y-62285524D01*
X151455474Y-62210257D01*
X151422950Y-62161581D01*
X150836819Y-61575450D01*
X150803334Y-61514127D01*
X150800500Y-61487769D01*
X150800500Y-57774986D01*
X151150001Y-57774986D01*
X151160494Y-57877697D01*
X151215641Y-58044119D01*
X151215643Y-58044124D01*
X151307684Y-58193345D01*
X151431654Y-58317315D01*
X151580875Y-58409356D01*
X151580880Y-58409358D01*
X151747302Y-58464505D01*
X151747309Y-58464506D01*
X151850019Y-58474999D01*
X152124999Y-58474999D01*
X152125000Y-58474998D01*
X152125000Y-57637500D01*
X151150001Y-57637500D01*
X151150001Y-57774986D01*
X150800500Y-57774986D01*
X150800500Y-54110229D01*
X150820185Y-54043190D01*
X150836819Y-54022548D01*
X151287819Y-53571548D01*
X151349142Y-53538063D01*
X151418834Y-53543047D01*
X151474767Y-53584919D01*
X151499184Y-53650383D01*
X151499500Y-53659229D01*
X151499500Y-54271042D01*
X151479815Y-54338081D01*
X151440598Y-54376580D01*
X151431344Y-54382287D01*
X151307289Y-54506342D01*
X151215187Y-54655663D01*
X151215186Y-54655666D01*
X151160001Y-54822203D01*
X151160001Y-54822204D01*
X151160000Y-54822204D01*
X151149500Y-54924983D01*
X151149500Y-55700001D01*
X151149501Y-55700019D01*
X151160000Y-55802796D01*
X151160001Y-55802799D01*
X151215185Y-55969331D01*
X151215186Y-55969334D01*
X151307288Y-56118656D01*
X151431344Y-56242712D01*
X151434628Y-56244737D01*
X151434653Y-56244753D01*
X151436445Y-56246746D01*
X151437011Y-56247193D01*
X151436934Y-56247289D01*
X151481379Y-56296699D01*
X151492603Y-56365661D01*
X151464761Y-56429744D01*
X151434665Y-56455826D01*
X151431660Y-56457679D01*
X151431655Y-56457683D01*
X151307684Y-56581654D01*
X151215643Y-56730875D01*
X151215641Y-56730880D01*
X151160494Y-56897302D01*
X151160493Y-56897309D01*
X151150000Y-57000013D01*
X151150000Y-57137500D01*
X152251000Y-57137500D01*
X152318039Y-57157185D01*
X152363794Y-57209989D01*
X152375000Y-57261500D01*
X152375000Y-57387500D01*
X152501000Y-57387500D01*
X152568039Y-57407185D01*
X152613794Y-57459989D01*
X152625000Y-57511500D01*
X152625000Y-58474999D01*
X152899972Y-58474999D01*
X152899986Y-58474998D01*
X153002697Y-58464505D01*
X153169119Y-58409358D01*
X153169124Y-58409356D01*
X153318345Y-58317315D01*
X153388319Y-58247342D01*
X153449642Y-58213857D01*
X153519334Y-58218841D01*
X153575267Y-58260713D01*
X153599684Y-58326177D01*
X153600000Y-58335023D01*
X153600000Y-99000000D01*
X165075500Y-99000000D01*
X165142539Y-99019685D01*
X165188294Y-99072489D01*
X165199500Y-99124000D01*
X165199500Y-113075500D01*
X165179815Y-113142539D01*
X165127011Y-113188294D01*
X165075500Y-113199500D01*
X125924500Y-113199500D01*
X125857461Y-113179815D01*
X125811706Y-113127011D01*
X125800500Y-113075500D01*
X125800500Y-109528711D01*
X126999500Y-109528711D01*
X126999500Y-109771288D01*
X127031161Y-110011785D01*
X127093947Y-110246104D01*
X127105684Y-110274439D01*
X127186776Y-110470212D01*
X127308064Y-110680289D01*
X127308066Y-110680292D01*
X127308067Y-110680293D01*
X127455733Y-110872736D01*
X127455739Y-110872743D01*
X127627256Y-111044260D01*
X127627262Y-111044265D01*
X127819711Y-111191936D01*
X128029788Y-111313224D01*
X128253900Y-111406054D01*
X128488211Y-111468838D01*
X128668586Y-111492584D01*
X128728711Y-111500500D01*
X128728712Y-111500500D01*
X128971289Y-111500500D01*
X129019388Y-111494167D01*
X129211789Y-111468838D01*
X129446100Y-111406054D01*
X129670212Y-111313224D01*
X129880289Y-111191936D01*
X130072738Y-111044265D01*
X130244265Y-110872738D01*
X130391936Y-110680289D01*
X130513224Y-110470212D01*
X130606054Y-110246100D01*
X130668838Y-110011789D01*
X130700500Y-109771288D01*
X130700500Y-109528712D01*
X130668838Y-109288211D01*
X130611234Y-109073231D01*
X130611234Y-109073229D01*
X130606054Y-109053900D01*
X130513226Y-108829794D01*
X130513224Y-108829788D01*
X130391936Y-108619711D01*
X130277779Y-108470938D01*
X130244266Y-108427263D01*
X130244260Y-108427256D01*
X130072743Y-108255739D01*
X130072736Y-108255733D01*
X129880293Y-108108067D01*
X129880292Y-108108066D01*
X129880289Y-108108064D01*
X129670212Y-107986776D01*
X129670205Y-107986773D01*
X129446104Y-107893947D01*
X129211785Y-107831161D01*
X128971289Y-107799500D01*
X128971288Y-107799500D01*
X128728712Y-107799500D01*
X128728711Y-107799500D01*
X128488214Y-107831161D01*
X128253895Y-107893947D01*
X128029794Y-107986773D01*
X128029785Y-107986777D01*
X127819706Y-108108067D01*
X127627263Y-108255733D01*
X127627256Y-108255739D01*
X127455739Y-108427256D01*
X127455733Y-108427263D01*
X127308067Y-108619706D01*
X127186777Y-108829785D01*
X127186773Y-108829794D01*
X127093947Y-109053895D01*
X127031161Y-109288214D01*
X126999500Y-109528711D01*
X125800500Y-109528711D01*
X125800500Y-107642514D01*
X141325000Y-107642514D01*
X141325000Y-108592500D01*
X142624999Y-108592500D01*
X142599979Y-108652902D01*
X142575000Y-108778481D01*
X142575000Y-108906519D01*
X142599979Y-109032098D01*
X142624999Y-109092500D01*
X141325000Y-109092500D01*
X141325000Y-110042485D01*
X141335493Y-110145189D01*
X141335494Y-110145196D01*
X141390641Y-110311618D01*
X141390643Y-110311623D01*
X141482684Y-110460844D01*
X141606655Y-110584815D01*
X141755876Y-110676856D01*
X141755881Y-110676858D01*
X141922303Y-110732005D01*
X141922310Y-110732006D01*
X142025014Y-110742499D01*
X142025027Y-110742500D01*
X142975000Y-110742500D01*
X142975000Y-109442501D01*
X143035402Y-109467521D01*
X143160981Y-109492500D01*
X143289019Y-109492500D01*
X143414598Y-109467521D01*
X143475000Y-109442501D01*
X143475000Y-110742500D01*
X144424973Y-110742500D01*
X144424985Y-110742499D01*
X144527689Y-110732006D01*
X144527696Y-110732005D01*
X144694118Y-110676858D01*
X144694123Y-110676856D01*
X144843344Y-110584815D01*
X144967315Y-110460844D01*
X145059356Y-110311623D01*
X145059358Y-110311618D01*
X145114505Y-110145196D01*
X145114506Y-110145189D01*
X145124999Y-110042485D01*
X145125000Y-110042472D01*
X145125000Y-109092500D01*
X143825001Y-109092500D01*
X143850021Y-109032098D01*
X143875000Y-108906519D01*
X143875000Y-108778481D01*
X143862958Y-108717941D01*
X146324500Y-108717941D01*
X146324500Y-108967058D01*
X146324501Y-108967075D01*
X146357017Y-109214061D01*
X146421498Y-109454707D01*
X146516830Y-109684861D01*
X146516837Y-109684876D01*
X146641400Y-109900626D01*
X146793060Y-110098274D01*
X146793066Y-110098281D01*
X146969218Y-110274433D01*
X146969225Y-110274439D01*
X147166873Y-110426099D01*
X147382623Y-110550662D01*
X147382638Y-110550669D01*
X147465075Y-110584815D01*
X147612793Y-110646002D01*
X147853435Y-110710482D01*
X148100435Y-110743000D01*
X148100442Y-110743000D01*
X148349558Y-110743000D01*
X148349565Y-110743000D01*
X148596565Y-110710482D01*
X148837207Y-110646002D01*
X149067373Y-110550664D01*
X149283127Y-110426099D01*
X149480776Y-110274438D01*
X149656938Y-110098276D01*
X149808599Y-109900627D01*
X149933164Y-109684873D01*
X149997849Y-109528711D01*
X160249500Y-109528711D01*
X160249500Y-109771288D01*
X160281161Y-110011785D01*
X160343947Y-110246104D01*
X160355684Y-110274439D01*
X160436776Y-110470212D01*
X160558064Y-110680289D01*
X160558066Y-110680292D01*
X160558067Y-110680293D01*
X160705733Y-110872736D01*
X160705739Y-110872743D01*
X160877256Y-111044260D01*
X160877262Y-111044265D01*
X161069711Y-111191936D01*
X161279788Y-111313224D01*
X161503900Y-111406054D01*
X161738211Y-111468838D01*
X161918586Y-111492584D01*
X161978711Y-111500500D01*
X161978712Y-111500500D01*
X162221289Y-111500500D01*
X162269388Y-111494167D01*
X162461789Y-111468838D01*
X162696100Y-111406054D01*
X162920212Y-111313224D01*
X163130289Y-111191936D01*
X163322738Y-111044265D01*
X163494265Y-110872738D01*
X163641936Y-110680289D01*
X163763224Y-110470212D01*
X163856054Y-110246100D01*
X163918838Y-110011789D01*
X163950500Y-109771288D01*
X163950500Y-109528712D01*
X163918838Y-109288211D01*
X163856054Y-109053900D01*
X163763224Y-108829788D01*
X163641936Y-108619711D01*
X163527779Y-108470938D01*
X163494266Y-108427263D01*
X163494260Y-108427256D01*
X163322743Y-108255739D01*
X163322736Y-108255733D01*
X163130293Y-108108067D01*
X163130292Y-108108066D01*
X163130289Y-108108064D01*
X162920212Y-107986776D01*
X162920205Y-107986773D01*
X162696104Y-107893947D01*
X162461785Y-107831161D01*
X162221289Y-107799500D01*
X162221288Y-107799500D01*
X161978712Y-107799500D01*
X161978711Y-107799500D01*
X161738214Y-107831161D01*
X161503895Y-107893947D01*
X161279794Y-107986773D01*
X161279785Y-107986777D01*
X161069706Y-108108067D01*
X160877263Y-108255733D01*
X160877256Y-108255739D01*
X160705739Y-108427256D01*
X160705733Y-108427263D01*
X160558067Y-108619706D01*
X160436777Y-108829785D01*
X160436773Y-108829794D01*
X160343947Y-109053895D01*
X160281161Y-109288214D01*
X160249500Y-109528711D01*
X149997849Y-109528711D01*
X150028502Y-109454707D01*
X150092982Y-109214065D01*
X150125500Y-108967065D01*
X150125500Y-108717935D01*
X150092982Y-108470935D01*
X150028502Y-108230293D01*
X149933164Y-108000127D01*
X149925456Y-107986777D01*
X149808599Y-107784373D01*
X149656939Y-107586725D01*
X149656933Y-107586718D01*
X149480781Y-107410566D01*
X149480774Y-107410560D01*
X149283126Y-107258900D01*
X149067376Y-107134337D01*
X149067361Y-107134330D01*
X148837207Y-107038998D01*
X148596561Y-106974517D01*
X148349575Y-106942001D01*
X148349570Y-106942000D01*
X148349565Y-106942000D01*
X148100435Y-106942000D01*
X148100429Y-106942000D01*
X148100424Y-106942001D01*
X147853438Y-106974517D01*
X147612792Y-107038998D01*
X147382638Y-107134330D01*
X147382623Y-107134337D01*
X147166873Y-107258900D01*
X146969225Y-107410560D01*
X146969218Y-107410566D01*
X146793066Y-107586718D01*
X146793060Y-107586725D01*
X146641400Y-107784373D01*
X146516837Y-108000123D01*
X146516830Y-108000138D01*
X146421498Y-108230292D01*
X146357017Y-108470938D01*
X146324501Y-108717924D01*
X146324500Y-108717941D01*
X143862958Y-108717941D01*
X143850021Y-108652902D01*
X143825001Y-108592500D01*
X145125000Y-108592500D01*
X145125000Y-107642527D01*
X145124999Y-107642514D01*
X145114506Y-107539810D01*
X145114505Y-107539803D01*
X145059358Y-107373381D01*
X145059356Y-107373376D01*
X144967315Y-107224155D01*
X144843344Y-107100184D01*
X144694123Y-107008143D01*
X144694118Y-107008141D01*
X144527696Y-106952994D01*
X144527689Y-106952993D01*
X144424985Y-106942500D01*
X143475000Y-106942500D01*
X143475000Y-108242498D01*
X143414598Y-108217479D01*
X143289019Y-108192500D01*
X143160981Y-108192500D01*
X143035402Y-108217479D01*
X142975000Y-108242498D01*
X142975000Y-106942500D01*
X142025014Y-106942500D01*
X141922310Y-106952993D01*
X141922303Y-106952994D01*
X141755881Y-107008141D01*
X141755876Y-107008143D01*
X141606655Y-107100184D01*
X141482684Y-107224155D01*
X141390643Y-107373376D01*
X141390641Y-107373381D01*
X141335494Y-107539803D01*
X141335493Y-107539810D01*
X141325000Y-107642514D01*
X125800500Y-107642514D01*
X125800500Y-99441132D01*
X125808945Y-99412370D01*
X125814968Y-99383006D01*
X125818685Y-99379198D01*
X125820185Y-99374093D01*
X125842837Y-99354464D01*
X125863781Y-99333016D01*
X125868967Y-99331822D01*
X125872989Y-99328338D01*
X125902657Y-99324072D01*
X125931872Y-99317351D01*
X125936880Y-99319151D01*
X125942147Y-99318394D01*
X125969415Y-99330846D01*
X125997623Y-99340987D01*
X126002898Y-99346138D01*
X126005703Y-99347419D01*
X126022871Y-99365640D01*
X126061235Y-99415636D01*
X126118910Y-99490801D01*
X126131082Y-99506663D01*
X126131086Y-99506668D01*
X131493333Y-104868915D01*
X131493339Y-104868920D01*
X131584363Y-104938765D01*
X131675388Y-105008611D01*
X131815074Y-105089258D01*
X131874113Y-105123345D01*
X131998300Y-105174784D01*
X132086113Y-105211158D01*
X132124781Y-105221519D01*
X132307761Y-105270549D01*
X132511553Y-105297377D01*
X132511555Y-105297378D01*
X132511556Y-105297378D01*
X132518151Y-105298246D01*
X132535266Y-105300500D01*
X132535267Y-105300500D01*
X132535270Y-105300500D01*
X137176727Y-105300500D01*
X137176734Y-105300500D01*
X137404238Y-105270548D01*
X137625887Y-105211158D01*
X137837888Y-105123344D01*
X137935283Y-105067112D01*
X137997283Y-105050500D01*
X140208097Y-105050500D01*
X140441368Y-105013553D01*
X140456578Y-105008611D01*
X140665992Y-104940568D01*
X140876433Y-104833343D01*
X141067510Y-104694517D01*
X141234517Y-104527510D01*
X141373343Y-104336433D01*
X141480568Y-104125992D01*
X141553553Y-103901368D01*
X141590500Y-103668097D01*
X141590500Y-103455513D01*
X146509500Y-103455513D01*
X146509500Y-103644486D01*
X146539059Y-103831118D01*
X146597454Y-104010836D01*
X146683240Y-104179199D01*
X146794310Y-104332073D01*
X146927927Y-104465690D01*
X147080801Y-104576760D01*
X147160347Y-104617290D01*
X147249163Y-104662545D01*
X147249165Y-104662545D01*
X147249168Y-104662547D01*
X147345497Y-104693846D01*
X147428881Y-104720940D01*
X147615514Y-104750500D01*
X147615519Y-104750500D01*
X147804486Y-104750500D01*
X147991118Y-104720940D01*
X148170832Y-104662547D01*
X148339199Y-104576760D01*
X148492073Y-104465690D01*
X148625690Y-104332073D01*
X148736760Y-104179199D01*
X148822547Y-104010832D01*
X148880940Y-103831118D01*
X148906760Y-103668097D01*
X148910500Y-103644486D01*
X148910500Y-103455513D01*
X148880940Y-103268881D01*
X148822545Y-103089163D01*
X148736759Y-102920800D01*
X148625690Y-102767927D01*
X148492073Y-102634310D01*
X148339199Y-102523240D01*
X148170836Y-102437454D01*
X147991118Y-102379059D01*
X147804486Y-102349500D01*
X147804481Y-102349500D01*
X147615519Y-102349500D01*
X147615514Y-102349500D01*
X147428881Y-102379059D01*
X147249163Y-102437454D01*
X147080800Y-102523240D01*
X146993579Y-102586610D01*
X146927927Y-102634310D01*
X146927925Y-102634312D01*
X146927924Y-102634312D01*
X146794312Y-102767924D01*
X146794312Y-102767925D01*
X146794310Y-102767927D01*
X146746610Y-102833579D01*
X146683240Y-102920800D01*
X146597454Y-103089163D01*
X146539059Y-103268881D01*
X146509500Y-103455513D01*
X141590500Y-103455513D01*
X141590500Y-103431902D01*
X141553553Y-103198631D01*
X141480566Y-102974003D01*
X141424002Y-102862991D01*
X141373343Y-102763567D01*
X141234517Y-102572490D01*
X141113983Y-102451956D01*
X141100495Y-102427255D01*
X141084282Y-102404244D01*
X141083973Y-102396997D01*
X141080498Y-102390633D01*
X141082505Y-102362560D01*
X141081307Y-102334437D01*
X141084964Y-102328174D01*
X141085482Y-102320941D01*
X141102348Y-102298410D01*
X141116545Y-102274104D01*
X141124307Y-102269077D01*
X141127354Y-102265008D01*
X141145397Y-102253776D01*
X141149716Y-102251576D01*
X141267995Y-102202584D01*
X141332577Y-102159432D01*
X141390916Y-102120452D01*
X141716314Y-101795052D01*
X141777636Y-101761569D01*
X141847327Y-101766553D01*
X141903261Y-101808424D01*
X141927678Y-101873889D01*
X141927994Y-101882735D01*
X141927994Y-101980301D01*
X141958755Y-102134944D01*
X141958758Y-102134956D01*
X142019096Y-102280627D01*
X142019103Y-102280640D01*
X142106704Y-102411743D01*
X142106707Y-102411747D01*
X142218201Y-102523241D01*
X142218205Y-102523244D01*
X142349308Y-102610845D01*
X142349321Y-102610852D01*
X142494992Y-102671190D01*
X142494997Y-102671192D01*
X142649647Y-102701954D01*
X142649650Y-102701955D01*
X142649652Y-102701955D01*
X142807338Y-102701955D01*
X142807339Y-102701954D01*
X142961991Y-102671192D01*
X143107673Y-102610849D01*
X143238783Y-102523244D01*
X143350283Y-102411744D01*
X143437888Y-102280634D01*
X143444361Y-102265008D01*
X143498229Y-102134956D01*
X143498231Y-102134952D01*
X143528994Y-101980297D01*
X143528994Y-101822613D01*
X143528994Y-101822610D01*
X143528397Y-101816548D01*
X143529861Y-101816403D01*
X143531086Y-101802707D01*
X143528088Y-101781853D01*
X143534137Y-101768606D01*
X143535435Y-101754102D01*
X143548360Y-101737462D01*
X143557113Y-101718297D01*
X143569363Y-101710423D01*
X143578297Y-101698924D01*
X143598165Y-101691914D01*
X143615891Y-101680523D01*
X143640470Y-101676988D01*
X143644186Y-101675678D01*
X143650826Y-101675500D01*
X143895234Y-101675500D01*
X143962273Y-101695185D01*
X143964125Y-101696398D01*
X144095814Y-101784390D01*
X144095827Y-101784397D01*
X144241498Y-101844735D01*
X144241503Y-101844737D01*
X144388059Y-101873889D01*
X144396153Y-101875499D01*
X144396156Y-101875500D01*
X144396158Y-101875500D01*
X144553844Y-101875500D01*
X144553845Y-101875499D01*
X144708497Y-101844737D01*
X144854179Y-101784394D01*
X144985289Y-101696789D01*
X145096789Y-101585289D01*
X145184394Y-101454179D01*
X145244737Y-101308497D01*
X145275500Y-101153842D01*
X145275500Y-100996158D01*
X145275500Y-100996155D01*
X145275499Y-100996153D01*
X145252732Y-100881697D01*
X145244737Y-100841503D01*
X145217191Y-100775000D01*
X145184397Y-100695827D01*
X145184390Y-100695814D01*
X145096789Y-100564711D01*
X145096786Y-100564707D01*
X144985292Y-100453213D01*
X144985288Y-100453210D01*
X144854185Y-100365609D01*
X144854172Y-100365602D01*
X144708501Y-100305264D01*
X144708489Y-100305261D01*
X144553845Y-100274500D01*
X144553842Y-100274500D01*
X144396158Y-100274500D01*
X144396155Y-100274500D01*
X144241510Y-100305261D01*
X144241498Y-100305264D01*
X144095827Y-100365602D01*
X144095814Y-100365609D01*
X143964125Y-100453602D01*
X143897447Y-100474480D01*
X143895234Y-100474500D01*
X143261669Y-100474500D01*
X143261653Y-100474499D01*
X143254057Y-100474499D01*
X143095943Y-100474499D01*
X142981397Y-100505192D01*
X142943214Y-100515423D01*
X142930331Y-100522862D01*
X142930329Y-100522863D01*
X142806287Y-100594477D01*
X142806282Y-100594481D01*
X142694480Y-100706283D01*
X142694480Y-100706284D01*
X142694478Y-100706286D01*
X142616042Y-100784722D01*
X142552551Y-100848213D01*
X142491228Y-100881697D01*
X142421536Y-100876713D01*
X142365603Y-100834841D01*
X142343253Y-100784722D01*
X142327650Y-100706283D01*
X142319737Y-100666503D01*
X142289905Y-100594481D01*
X142259397Y-100520827D01*
X142259390Y-100520814D01*
X142171789Y-100389711D01*
X142171786Y-100389707D01*
X142060292Y-100278213D01*
X142060288Y-100278210D01*
X141929185Y-100190609D01*
X141929172Y-100190602D01*
X141783501Y-100130264D01*
X141783489Y-100130261D01*
X141628845Y-100099500D01*
X141628842Y-100099500D01*
X141471158Y-100099500D01*
X141471155Y-100099500D01*
X141316506Y-100130261D01*
X141311063Y-100131913D01*
X141241196Y-100132536D01*
X141182084Y-100095287D01*
X141152493Y-100031993D01*
X141151833Y-99999510D01*
X141175000Y-99791747D01*
X141175000Y-99712500D01*
X140074000Y-99712500D01*
X140006961Y-99692815D01*
X139961206Y-99640011D01*
X139950000Y-99588500D01*
X139950000Y-99462500D01*
X139824000Y-99462500D01*
X139756961Y-99442815D01*
X139711206Y-99390011D01*
X139700000Y-99338500D01*
X139700000Y-99212500D01*
X140200000Y-99212500D01*
X141174999Y-99212500D01*
X141174999Y-99075028D01*
X141174998Y-99075013D01*
X141164505Y-98972302D01*
X141109358Y-98805880D01*
X141109356Y-98805875D01*
X141017315Y-98656654D01*
X140893345Y-98532684D01*
X140744124Y-98440643D01*
X140744119Y-98440641D01*
X140577697Y-98385494D01*
X140577690Y-98385493D01*
X140474986Y-98375000D01*
X140200000Y-98375000D01*
X140200000Y-99212500D01*
X139700000Y-99212500D01*
X139700000Y-98375000D01*
X139425029Y-98375000D01*
X139425012Y-98375001D01*
X139322302Y-98385494D01*
X139155880Y-98440641D01*
X139155875Y-98440643D01*
X139006654Y-98532684D01*
X138882684Y-98656654D01*
X138790643Y-98805875D01*
X138790641Y-98805880D01*
X138745699Y-98941508D01*
X138705926Y-98998953D01*
X138641411Y-99025776D01*
X138572635Y-99013461D01*
X138571700Y-99012990D01*
X138560836Y-99007455D01*
X138560835Y-99007454D01*
X138560832Y-99007453D01*
X138486815Y-98983403D01*
X138381118Y-98949059D01*
X138194486Y-98919500D01*
X138194481Y-98919500D01*
X138005519Y-98919500D01*
X138005514Y-98919500D01*
X137818881Y-98949059D01*
X137639163Y-99007454D01*
X137470800Y-99093240D01*
X137425865Y-99125888D01*
X137317927Y-99204310D01*
X137317925Y-99204312D01*
X137317924Y-99204312D01*
X137184312Y-99337924D01*
X137184305Y-99337933D01*
X137150317Y-99384713D01*
X137094987Y-99427379D01*
X137025374Y-99433357D01*
X136963579Y-99400751D01*
X136949683Y-99384713D01*
X136915694Y-99337933D01*
X136915690Y-99337927D01*
X136782073Y-99204310D01*
X136629199Y-99093240D01*
X136593456Y-99075028D01*
X136460836Y-99007454D01*
X136281118Y-98949059D01*
X136094486Y-98919500D01*
X136094481Y-98919500D01*
X135905519Y-98919500D01*
X135905514Y-98919500D01*
X135718881Y-98949059D01*
X135539163Y-99007454D01*
X135370800Y-99093240D01*
X135217928Y-99204309D01*
X135101532Y-99320705D01*
X135040209Y-99354189D01*
X134970517Y-99349205D01*
X134914584Y-99307333D01*
X134908312Y-99298120D01*
X134867315Y-99231654D01*
X134743344Y-99107683D01*
X134743341Y-99107681D01*
X134740339Y-99105829D01*
X134738713Y-99104021D01*
X134737677Y-99103202D01*
X134737817Y-99103024D01*
X134693617Y-99053880D01*
X134682397Y-98984917D01*
X134710243Y-98920836D01*
X134740344Y-98894754D01*
X134743656Y-98892712D01*
X134867712Y-98768656D01*
X134959814Y-98619334D01*
X135014999Y-98452797D01*
X135025500Y-98350009D01*
X135025499Y-97574992D01*
X135025352Y-97573557D01*
X135014999Y-97472203D01*
X135014998Y-97472200D01*
X134969622Y-97335265D01*
X134959814Y-97305666D01*
X134930682Y-97258435D01*
X134912243Y-97191045D01*
X134933166Y-97124382D01*
X134936956Y-97119029D01*
X134968351Y-97077090D01*
X135018597Y-96942376D01*
X135018598Y-96942372D01*
X135024999Y-96882844D01*
X135025000Y-96882827D01*
X135025000Y-96460000D01*
X134275278Y-96460000D01*
X134319333Y-96383694D01*
X134350000Y-96269244D01*
X134350000Y-96150756D01*
X134319333Y-96036306D01*
X134275278Y-95960000D01*
X135025000Y-95960000D01*
X135025000Y-95537172D01*
X135024999Y-95537155D01*
X135018598Y-95477627D01*
X135018596Y-95477620D01*
X134968354Y-95342913D01*
X134968350Y-95342906D01*
X134882190Y-95227812D01*
X134882187Y-95227809D01*
X134767093Y-95141649D01*
X134767086Y-95141645D01*
X134632379Y-95091403D01*
X134632372Y-95091401D01*
X134572844Y-95085000D01*
X134150000Y-95085000D01*
X134150000Y-95834722D01*
X134073694Y-95790667D01*
X133959244Y-95760000D01*
X133840756Y-95760000D01*
X133726306Y-95790667D01*
X133650000Y-95834722D01*
X133650000Y-95085000D01*
X133227155Y-95085000D01*
X133167627Y-95091401D01*
X133167620Y-95091403D01*
X133032913Y-95141645D01*
X133032906Y-95141649D01*
X132917812Y-95227809D01*
X132917809Y-95227812D01*
X132831649Y-95342906D01*
X132831645Y-95342913D01*
X132781403Y-95477620D01*
X132781401Y-95477627D01*
X132775000Y-95537155D01*
X132775000Y-95960000D01*
X133524722Y-95960000D01*
X133480667Y-96036306D01*
X133450000Y-96150756D01*
X133450000Y-96269244D01*
X133480667Y-96383694D01*
X133524722Y-96460000D01*
X132760771Y-96460000D01*
X132730792Y-96476370D01*
X132661100Y-96471386D01*
X132616753Y-96442885D01*
X132336819Y-96162951D01*
X132303334Y-96101628D01*
X132300500Y-96075270D01*
X132300500Y-93431230D01*
X132320185Y-93364191D01*
X132372989Y-93318436D01*
X132442147Y-93308492D01*
X132505703Y-93337517D01*
X132512181Y-93343549D01*
X132738181Y-93569549D01*
X132771666Y-93630872D01*
X132774500Y-93657230D01*
X132774500Y-93758578D01*
X132802214Y-93933556D01*
X132856956Y-94102039D01*
X132856957Y-94102042D01*
X132929665Y-94244736D01*
X132937386Y-94259890D01*
X133041517Y-94403214D01*
X133166786Y-94528483D01*
X133310110Y-94632614D01*
X133386642Y-94671609D01*
X133467957Y-94713042D01*
X133467960Y-94713043D01*
X133551121Y-94740063D01*
X133636445Y-94767786D01*
X133811421Y-94795500D01*
X133811422Y-94795500D01*
X133988578Y-94795500D01*
X133988579Y-94795500D01*
X134163555Y-94767786D01*
X134332042Y-94713042D01*
X134489890Y-94632614D01*
X134633214Y-94528483D01*
X134758483Y-94403214D01*
X134862614Y-94259890D01*
X134943042Y-94102042D01*
X134997786Y-93933555D01*
X135025500Y-93758579D01*
X135025500Y-93581421D01*
X135017622Y-93531682D01*
X135026576Y-93462390D01*
X135071573Y-93408938D01*
X135138324Y-93388298D01*
X135205638Y-93407023D01*
X135213838Y-93413028D01*
X135213986Y-93412826D01*
X135217924Y-93415687D01*
X135217927Y-93415690D01*
X135370801Y-93526760D01*
X135397901Y-93540568D01*
X135539163Y-93612545D01*
X135539165Y-93612545D01*
X135539168Y-93612547D01*
X135635497Y-93643846D01*
X135718881Y-93670940D01*
X135905514Y-93700500D01*
X135905519Y-93700500D01*
X136094485Y-93700500D01*
X136170788Y-93688414D01*
X136223231Y-93680108D01*
X136292524Y-93689062D01*
X136330310Y-93714900D01*
X137196769Y-94581359D01*
X137196798Y-94581390D01*
X137287017Y-94671609D01*
X137323582Y-94696041D01*
X137323584Y-94696042D01*
X137389468Y-94740065D01*
X137426720Y-94755495D01*
X137503301Y-94787216D01*
X137544949Y-94795500D01*
X137624144Y-94811252D01*
X137624145Y-94811253D01*
X137624146Y-94811253D01*
X137624147Y-94811253D01*
X140271897Y-94811253D01*
X140338936Y-94830938D01*
X140340788Y-94832151D01*
X140435068Y-94895147D01*
X140435070Y-94895148D01*
X140435074Y-94895150D01*
X140580745Y-94955488D01*
X140580750Y-94955490D01*
X140735400Y-94986252D01*
X140735403Y-94986253D01*
X140735405Y-94986253D01*
X140893091Y-94986253D01*
X140893092Y-94986252D01*
X141047744Y-94955490D01*
X141193426Y-94895147D01*
X141324536Y-94807542D01*
X141436036Y-94696042D01*
X141523641Y-94564932D01*
X141583984Y-94419250D01*
X141614747Y-94264595D01*
X141614747Y-94264588D01*
X141615344Y-94258535D01*
X141618115Y-94258807D01*
X141634432Y-94203239D01*
X141687236Y-94157484D01*
X141756394Y-94147540D01*
X141807639Y-94167177D01*
X141870812Y-94209389D01*
X141870827Y-94209397D01*
X142016498Y-94269735D01*
X142016503Y-94269737D01*
X142171153Y-94300499D01*
X142171156Y-94300500D01*
X142171158Y-94300500D01*
X142328844Y-94300500D01*
X142328845Y-94300499D01*
X142483497Y-94269737D01*
X142629179Y-94209394D01*
X142760289Y-94121789D01*
X142871789Y-94010289D01*
X142959394Y-93879179D01*
X143019737Y-93733497D01*
X143050500Y-93578842D01*
X143050500Y-93421158D01*
X143050500Y-93421155D01*
X143050499Y-93421153D01*
X143037350Y-93355050D01*
X143019737Y-93266503D01*
X143011375Y-93246316D01*
X142959397Y-93120827D01*
X142959390Y-93120814D01*
X142871789Y-92989711D01*
X142871786Y-92989707D01*
X142760292Y-92878213D01*
X142760288Y-92878210D01*
X142629185Y-92790609D01*
X142629172Y-92790602D01*
X142483501Y-92730264D01*
X142483489Y-92730261D01*
X142372285Y-92708141D01*
X142310374Y-92675756D01*
X142308795Y-92674205D01*
X141735859Y-92101269D01*
X141735858Y-92101267D01*
X141648733Y-92014142D01*
X141648729Y-92014139D01*
X137830198Y-88195608D01*
X137830178Y-88195586D01*
X137738733Y-88104141D01*
X137693467Y-88073896D01*
X137693466Y-88073895D01*
X137687509Y-88069915D01*
X137636286Y-88035688D01*
X137550391Y-88000110D01*
X137545755Y-87998189D01*
X137545748Y-87998186D01*
X137522455Y-87988538D01*
X137522453Y-87988537D01*
X137522452Y-87988537D01*
X137462029Y-87976518D01*
X137401610Y-87964500D01*
X137401607Y-87964500D01*
X137401606Y-87964500D01*
X134899923Y-87964500D01*
X134832884Y-87944815D01*
X134799605Y-87913386D01*
X134793787Y-87905378D01*
X134758483Y-87856786D01*
X134633214Y-87731517D01*
X134489890Y-87627386D01*
X134332042Y-87546957D01*
X134332039Y-87546956D01*
X134163556Y-87492214D01*
X134076067Y-87478357D01*
X133988579Y-87464500D01*
X133811421Y-87464500D01*
X133753095Y-87473738D01*
X133636443Y-87492214D01*
X133467960Y-87546956D01*
X133467957Y-87546957D01*
X133310109Y-87627386D01*
X133228338Y-87686796D01*
X133166786Y-87731517D01*
X133166784Y-87731519D01*
X133166783Y-87731519D01*
X133041519Y-87856783D01*
X133041519Y-87856784D01*
X133041517Y-87856786D01*
X133006214Y-87905377D01*
X132937386Y-88000109D01*
X132856957Y-88157957D01*
X132856956Y-88157960D01*
X132802214Y-88326443D01*
X132774500Y-88501421D01*
X132774500Y-88678578D01*
X132802214Y-88853556D01*
X132856956Y-89022039D01*
X132856957Y-89022042D01*
X132929665Y-89164736D01*
X132937386Y-89179890D01*
X133041517Y-89323214D01*
X133166786Y-89448483D01*
X133310110Y-89552614D01*
X133387529Y-89592061D01*
X133467957Y-89633042D01*
X133467960Y-89633043D01*
X133495014Y-89641833D01*
X133636445Y-89687786D01*
X133811421Y-89715500D01*
X133811422Y-89715500D01*
X133988578Y-89715500D01*
X133988579Y-89715500D01*
X134163555Y-89687786D01*
X134298845Y-89643827D01*
X134368685Y-89641833D01*
X134424843Y-89674078D01*
X135858389Y-91107624D01*
X135891874Y-91168947D01*
X135886890Y-91238639D01*
X135845018Y-91294572D01*
X135790108Y-91317778D01*
X135718879Y-91329060D01*
X135539163Y-91387454D01*
X135370800Y-91473240D01*
X135294379Y-91528764D01*
X135217927Y-91584310D01*
X135217925Y-91584312D01*
X135217923Y-91584313D01*
X135165237Y-91636999D01*
X135103914Y-91670483D01*
X135034222Y-91665498D01*
X134978289Y-91623627D01*
X134953873Y-91558162D01*
X134959625Y-91511002D01*
X134997786Y-91393555D01*
X135025500Y-91218579D01*
X135025500Y-91041421D01*
X134997786Y-90866445D01*
X134943042Y-90697958D01*
X134943042Y-90697957D01*
X134886279Y-90586555D01*
X134862614Y-90540110D01*
X134758483Y-90396786D01*
X134633214Y-90271517D01*
X134489890Y-90167386D01*
X134332042Y-90086957D01*
X134332039Y-90086956D01*
X134163556Y-90032214D01*
X134076067Y-90018357D01*
X133988579Y-90004500D01*
X133811421Y-90004500D01*
X133753095Y-90013738D01*
X133636443Y-90032214D01*
X133467960Y-90086956D01*
X133467957Y-90086957D01*
X133310109Y-90167386D01*
X133228338Y-90226796D01*
X133166786Y-90271517D01*
X133166784Y-90271519D01*
X133166783Y-90271519D01*
X133041519Y-90396783D01*
X133041519Y-90396784D01*
X133041517Y-90396786D01*
X133006214Y-90445377D01*
X132937386Y-90540109D01*
X132856957Y-90697957D01*
X132856956Y-90697960D01*
X132802214Y-90866443D01*
X132774500Y-91041421D01*
X132774500Y-91183770D01*
X132754815Y-91250809D01*
X132702011Y-91296564D01*
X132632853Y-91306508D01*
X132569297Y-91277483D01*
X132562819Y-91271451D01*
X132336819Y-91045451D01*
X132303334Y-90984128D01*
X132300500Y-90957770D01*
X132300500Y-86807486D01*
X150524500Y-86807486D01*
X150524500Y-86992513D01*
X150553445Y-87175265D01*
X150610619Y-87351232D01*
X150610620Y-87351235D01*
X150668332Y-87464500D01*
X150694622Y-87516096D01*
X150803379Y-87665787D01*
X150934213Y-87796621D01*
X151083904Y-87905378D01*
X151099621Y-87913386D01*
X151248764Y-87989379D01*
X151248767Y-87989380D01*
X151336750Y-88017967D01*
X151424736Y-88046555D01*
X151429798Y-88047356D01*
X151430872Y-88047527D01*
X151494007Y-88077456D01*
X151530938Y-88136768D01*
X151529940Y-88206630D01*
X151491330Y-88264863D01*
X151430872Y-88292473D01*
X151424734Y-88293445D01*
X151248767Y-88350619D01*
X151248764Y-88350620D01*
X151083903Y-88434622D01*
X150998499Y-88496672D01*
X150934213Y-88543379D01*
X150934211Y-88543381D01*
X150934210Y-88543381D01*
X150803381Y-88674210D01*
X150803381Y-88674211D01*
X150803379Y-88674213D01*
X150800208Y-88678578D01*
X150694622Y-88823903D01*
X150610620Y-88988764D01*
X150610619Y-88988767D01*
X150553445Y-89164734D01*
X150542287Y-89235185D01*
X150524500Y-89347486D01*
X150524500Y-89532514D01*
X150527684Y-89552614D01*
X150553445Y-89715265D01*
X150610619Y-89891232D01*
X150610620Y-89891235D01*
X150668332Y-90004500D01*
X150694622Y-90056096D01*
X150803379Y-90205787D01*
X150934213Y-90336621D01*
X151083904Y-90445378D01*
X151164763Y-90486577D01*
X151248764Y-90529379D01*
X151248767Y-90529380D01*
X151336750Y-90557967D01*
X151424736Y-90586555D01*
X151429798Y-90587356D01*
X151430872Y-90587527D01*
X151494007Y-90617456D01*
X151530938Y-90676768D01*
X151529940Y-90746630D01*
X151491330Y-90804863D01*
X151430872Y-90832473D01*
X151424734Y-90833445D01*
X151248767Y-90890619D01*
X151248764Y-90890620D01*
X151083903Y-90974622D01*
X151036405Y-91009132D01*
X150934213Y-91083379D01*
X150934211Y-91083381D01*
X150934210Y-91083381D01*
X150803381Y-91214210D01*
X150803381Y-91214211D01*
X150803379Y-91214213D01*
X150761793Y-91271451D01*
X150694622Y-91363903D01*
X150610620Y-91528764D01*
X150610619Y-91528767D01*
X150553445Y-91704734D01*
X150530474Y-91849767D01*
X150524500Y-91887486D01*
X150524500Y-92072514D01*
X150527684Y-92092614D01*
X150553445Y-92255265D01*
X150610619Y-92431232D01*
X150610620Y-92431235D01*
X150668332Y-92544500D01*
X150694622Y-92596096D01*
X150803379Y-92745787D01*
X150934213Y-92876621D01*
X151083904Y-92985378D01*
X151164763Y-93026577D01*
X151248764Y-93069379D01*
X151248767Y-93069380D01*
X151336750Y-93097967D01*
X151424736Y-93126555D01*
X151429798Y-93127356D01*
X151430872Y-93127527D01*
X151494007Y-93157456D01*
X151530938Y-93216768D01*
X151529940Y-93286630D01*
X151491330Y-93344863D01*
X151430872Y-93372473D01*
X151424734Y-93373445D01*
X151248767Y-93430619D01*
X151248764Y-93430620D01*
X151083903Y-93514622D01*
X150998499Y-93576672D01*
X150934213Y-93623379D01*
X150934211Y-93623381D01*
X150934210Y-93623381D01*
X150803381Y-93754210D01*
X150803381Y-93754211D01*
X150803379Y-93754213D01*
X150802838Y-93754958D01*
X150694622Y-93903903D01*
X150610620Y-94068764D01*
X150610619Y-94068767D01*
X150553445Y-94244734D01*
X150549485Y-94269737D01*
X150524500Y-94427486D01*
X150524500Y-94612514D01*
X150537730Y-94696042D01*
X150553445Y-94795265D01*
X150610619Y-94971232D01*
X150610620Y-94971235D01*
X150694622Y-95136096D01*
X150803379Y-95285787D01*
X150934213Y-95416621D01*
X151083904Y-95525378D01*
X151164763Y-95566577D01*
X151248764Y-95609379D01*
X151248767Y-95609380D01*
X151336750Y-95637967D01*
X151424736Y-95666555D01*
X151429798Y-95667356D01*
X151430872Y-95667527D01*
X151494007Y-95697456D01*
X151530938Y-95756768D01*
X151529940Y-95826630D01*
X151491330Y-95884863D01*
X151430872Y-95912473D01*
X151424734Y-95913445D01*
X151248767Y-95970619D01*
X151248764Y-95970620D01*
X151083903Y-96054622D01*
X151055484Y-96075270D01*
X150934213Y-96163379D01*
X150934211Y-96163381D01*
X150934210Y-96163381D01*
X150803381Y-96294210D01*
X150803381Y-96294211D01*
X150803379Y-96294213D01*
X150756672Y-96358499D01*
X150694622Y-96443903D01*
X150610620Y-96608764D01*
X150610619Y-96608767D01*
X150553445Y-96784734D01*
X150524500Y-96967486D01*
X150524500Y-97152513D01*
X150553445Y-97335265D01*
X150610619Y-97511232D01*
X150610620Y-97511235D01*
X150668546Y-97624919D01*
X150694622Y-97676096D01*
X150803379Y-97825787D01*
X150934213Y-97956621D01*
X151083904Y-98065378D01*
X151164763Y-98106577D01*
X151248764Y-98149379D01*
X151248767Y-98149380D01*
X151352452Y-98183069D01*
X151410127Y-98222506D01*
X151437326Y-98286865D01*
X151425412Y-98355711D01*
X151378168Y-98407187D01*
X151314134Y-98425000D01*
X150977155Y-98425000D01*
X150917627Y-98431401D01*
X150917620Y-98431403D01*
X150782913Y-98481645D01*
X150782906Y-98481649D01*
X150667812Y-98567809D01*
X150667809Y-98567812D01*
X150581649Y-98682906D01*
X150581645Y-98682913D01*
X150531403Y-98817620D01*
X150531401Y-98817627D01*
X150525000Y-98877155D01*
X150525000Y-99350000D01*
X151384314Y-99350000D01*
X151379920Y-99354394D01*
X151327259Y-99445606D01*
X151300000Y-99547339D01*
X151300000Y-99652661D01*
X151327259Y-99754394D01*
X151379920Y-99845606D01*
X151384314Y-99850000D01*
X150525000Y-99850000D01*
X150525000Y-100322844D01*
X150531401Y-100382372D01*
X150531403Y-100382379D01*
X150581645Y-100517086D01*
X150581649Y-100517093D01*
X150667809Y-100632187D01*
X150667812Y-100632190D01*
X150782906Y-100718350D01*
X150782913Y-100718354D01*
X150917620Y-100768596D01*
X150917627Y-100768598D01*
X150977155Y-100774999D01*
X150977172Y-100775000D01*
X151450000Y-100775000D01*
X151450000Y-99915686D01*
X151454394Y-99920080D01*
X151545606Y-99972741D01*
X151647339Y-100000000D01*
X151752661Y-100000000D01*
X151854394Y-99972741D01*
X151945606Y-99920080D01*
X151950000Y-99915686D01*
X151950000Y-100775000D01*
X152422828Y-100775000D01*
X152422844Y-100774999D01*
X152482372Y-100768598D01*
X152482379Y-100768596D01*
X152617086Y-100718354D01*
X152617093Y-100718350D01*
X152732187Y-100632190D01*
X152732190Y-100632187D01*
X152818350Y-100517093D01*
X152818354Y-100517086D01*
X152868596Y-100382379D01*
X152868598Y-100382372D01*
X152874999Y-100322844D01*
X152875000Y-100322827D01*
X152875000Y-99850000D01*
X152015686Y-99850000D01*
X152020080Y-99845606D01*
X152072741Y-99754394D01*
X152100000Y-99652661D01*
X152100000Y-99547339D01*
X152072741Y-99445606D01*
X152020080Y-99354394D01*
X152015686Y-99350000D01*
X152875000Y-99350000D01*
X152875000Y-98877172D01*
X152874999Y-98877155D01*
X152868598Y-98817627D01*
X152868596Y-98817620D01*
X152818354Y-98682913D01*
X152818350Y-98682906D01*
X152732190Y-98567812D01*
X152732187Y-98567809D01*
X152617093Y-98481649D01*
X152617086Y-98481645D01*
X152482379Y-98431403D01*
X152482372Y-98431401D01*
X152422844Y-98425000D01*
X152085866Y-98425000D01*
X152018827Y-98405315D01*
X151973072Y-98352511D01*
X151963128Y-98283353D01*
X151992153Y-98219797D01*
X152047548Y-98183069D01*
X152151232Y-98149380D01*
X152151235Y-98149379D01*
X152316096Y-98065378D01*
X152465787Y-97956621D01*
X152596621Y-97825787D01*
X152705378Y-97676096D01*
X152789379Y-97511235D01*
X152846555Y-97335264D01*
X152875500Y-97152514D01*
X152875500Y-96967486D01*
X152846555Y-96784736D01*
X152789379Y-96608765D01*
X152789379Y-96608764D01*
X152721920Y-96476370D01*
X152705378Y-96443904D01*
X152596621Y-96294213D01*
X152465787Y-96163379D01*
X152316096Y-96054622D01*
X152280149Y-96036306D01*
X152151235Y-95970620D01*
X152151232Y-95970619D01*
X151975269Y-95913446D01*
X151975265Y-95913445D01*
X151975264Y-95913445D01*
X151969126Y-95912472D01*
X151905994Y-95882545D01*
X151869062Y-95823234D01*
X151870058Y-95753371D01*
X151908667Y-95695138D01*
X151969126Y-95667527D01*
X151975264Y-95666555D01*
X152151235Y-95609379D01*
X152316096Y-95525378D01*
X152465787Y-95416621D01*
X152596621Y-95285787D01*
X152705378Y-95136096D01*
X152789379Y-94971235D01*
X152846555Y-94795264D01*
X152875500Y-94612514D01*
X152875500Y-94427486D01*
X152846555Y-94244736D01*
X152814974Y-94147540D01*
X152789380Y-94068767D01*
X152789379Y-94068764D01*
X152746577Y-93984763D01*
X152705378Y-93903904D01*
X152596621Y-93754213D01*
X152465787Y-93623379D01*
X152316096Y-93514622D01*
X152151235Y-93430620D01*
X152151232Y-93430619D01*
X151975269Y-93373446D01*
X151975265Y-93373445D01*
X151975264Y-93373445D01*
X151969126Y-93372472D01*
X151905994Y-93342545D01*
X151869062Y-93283234D01*
X151870058Y-93213371D01*
X151908667Y-93155138D01*
X151969126Y-93127527D01*
X151975264Y-93126555D01*
X152151235Y-93069379D01*
X152316096Y-92985378D01*
X152465787Y-92876621D01*
X152596621Y-92745787D01*
X152705378Y-92596096D01*
X152789379Y-92431235D01*
X152846555Y-92255264D01*
X152875500Y-92072514D01*
X152875500Y-91887486D01*
X152846555Y-91704736D01*
X152817967Y-91616750D01*
X152789380Y-91528767D01*
X152789379Y-91528764D01*
X152717377Y-91387454D01*
X152705378Y-91363904D01*
X152596621Y-91214213D01*
X152465787Y-91083379D01*
X152316096Y-90974622D01*
X152151235Y-90890620D01*
X152151232Y-90890619D01*
X151975269Y-90833446D01*
X151975265Y-90833445D01*
X151975264Y-90833445D01*
X151969126Y-90832472D01*
X151905994Y-90802545D01*
X151869062Y-90743234D01*
X151870058Y-90673371D01*
X151908667Y-90615138D01*
X151969126Y-90587527D01*
X151975264Y-90586555D01*
X152151235Y-90529379D01*
X152316096Y-90445378D01*
X152465787Y-90336621D01*
X152596621Y-90205787D01*
X152705378Y-90056096D01*
X152789379Y-89891235D01*
X152846555Y-89715264D01*
X152875500Y-89532514D01*
X152875500Y-89347486D01*
X152846555Y-89164736D01*
X152800191Y-89022042D01*
X152789380Y-88988767D01*
X152789379Y-88988764D01*
X152720486Y-88853555D01*
X152705378Y-88823904D01*
X152596621Y-88674213D01*
X152465787Y-88543379D01*
X152316096Y-88434622D01*
X152151235Y-88350620D01*
X152151232Y-88350619D01*
X151975269Y-88293446D01*
X151975265Y-88293445D01*
X151975264Y-88293445D01*
X151969126Y-88292472D01*
X151905994Y-88262545D01*
X151869062Y-88203234D01*
X151870058Y-88133371D01*
X151908667Y-88075138D01*
X151969126Y-88047527D01*
X151975264Y-88046555D01*
X152151235Y-87989379D01*
X152316096Y-87905378D01*
X152465787Y-87796621D01*
X152596621Y-87665787D01*
X152705378Y-87516096D01*
X152789379Y-87351235D01*
X152846555Y-87175264D01*
X152875500Y-86992514D01*
X152875500Y-86807486D01*
X152846555Y-86624736D01*
X152789379Y-86448765D01*
X152789379Y-86448764D01*
X152705377Y-86283903D01*
X152596621Y-86134213D01*
X152465787Y-86003379D01*
X152316096Y-85894622D01*
X152151235Y-85810620D01*
X152151232Y-85810619D01*
X151975265Y-85753445D01*
X151883889Y-85738972D01*
X151792514Y-85724500D01*
X151607486Y-85724500D01*
X151546569Y-85734148D01*
X151424734Y-85753445D01*
X151248767Y-85810619D01*
X151248764Y-85810620D01*
X151083903Y-85894622D01*
X150998499Y-85956672D01*
X150934213Y-86003379D01*
X150934211Y-86003381D01*
X150934210Y-86003381D01*
X150803381Y-86134210D01*
X150803381Y-86134211D01*
X150803379Y-86134213D01*
X150756672Y-86198499D01*
X150694622Y-86283903D01*
X150610620Y-86448764D01*
X150610619Y-86448767D01*
X150553445Y-86624734D01*
X150524500Y-86807486D01*
X132300500Y-86807486D01*
X132300500Y-64622230D01*
X132320185Y-64555191D01*
X132336819Y-64534549D01*
X132561132Y-64310236D01*
X132792952Y-64078416D01*
X132792952Y-64078415D01*
X132946381Y-63924986D01*
X146137501Y-63924986D01*
X146147994Y-64027697D01*
X146203141Y-64194119D01*
X146203143Y-64194124D01*
X146295184Y-64343345D01*
X146419154Y-64467315D01*
X146568375Y-64559356D01*
X146568380Y-64559358D01*
X146734802Y-64614505D01*
X146734809Y-64614506D01*
X146837519Y-64624999D01*
X146974999Y-64624999D01*
X146975000Y-64624998D01*
X146975000Y-63650000D01*
X146137501Y-63650000D01*
X146137501Y-63924986D01*
X132946381Y-63924986D01*
X133684548Y-63186819D01*
X133745871Y-63153334D01*
X133772229Y-63150500D01*
X136695396Y-63150500D01*
X136742844Y-63159937D01*
X136766503Y-63169737D01*
X136766508Y-63169738D01*
X136766511Y-63169739D01*
X136921153Y-63200499D01*
X136921156Y-63200500D01*
X136921158Y-63200500D01*
X137078844Y-63200500D01*
X137078845Y-63200499D01*
X137233497Y-63169737D01*
X137379179Y-63109394D01*
X137510289Y-63021789D01*
X137621789Y-62910289D01*
X137645359Y-62875013D01*
X146137500Y-62875013D01*
X146137500Y-63150000D01*
X146975000Y-63150000D01*
X146975000Y-62175000D01*
X146837527Y-62175000D01*
X146837512Y-62175001D01*
X146734802Y-62185494D01*
X146568380Y-62240641D01*
X146568375Y-62240643D01*
X146419154Y-62332684D01*
X146295184Y-62456654D01*
X146203143Y-62605875D01*
X146203141Y-62605880D01*
X146147994Y-62772302D01*
X146147993Y-62772309D01*
X146137500Y-62875013D01*
X137645359Y-62875013D01*
X137657851Y-62856317D01*
X137693496Y-62802973D01*
X137709390Y-62779185D01*
X137709390Y-62779184D01*
X137709394Y-62779179D01*
X137769737Y-62633497D01*
X137800500Y-62478842D01*
X137800500Y-62321158D01*
X137800500Y-62321155D01*
X137800499Y-62321153D01*
X137784394Y-62240187D01*
X137769737Y-62166503D01*
X137769735Y-62166498D01*
X137709397Y-62020827D01*
X137709390Y-62020814D01*
X137621789Y-61889711D01*
X137621786Y-61889707D01*
X137510292Y-61778213D01*
X137510288Y-61778210D01*
X137379185Y-61690609D01*
X137379172Y-61690602D01*
X137233501Y-61630264D01*
X137233489Y-61630261D01*
X137078845Y-61599500D01*
X137078842Y-61599500D01*
X136921158Y-61599500D01*
X136921155Y-61599500D01*
X136766511Y-61630260D01*
X136766506Y-61630262D01*
X136766504Y-61630262D01*
X136766503Y-61630263D01*
X136742844Y-61640062D01*
X136695396Y-61649500D01*
X133336080Y-61649500D01*
X133191092Y-61678340D01*
X133191082Y-61678343D01*
X133131952Y-61702836D01*
X133062483Y-61710305D01*
X133000004Y-61679030D01*
X132964352Y-61618941D01*
X132960500Y-61588275D01*
X132960500Y-57774986D01*
X141600001Y-57774986D01*
X141610494Y-57877697D01*
X141665641Y-58044119D01*
X141665643Y-58044124D01*
X141757684Y-58193345D01*
X141881654Y-58317315D01*
X142030875Y-58409356D01*
X142030880Y-58409358D01*
X142197302Y-58464505D01*
X142197309Y-58464506D01*
X142300019Y-58474999D01*
X142574999Y-58474999D01*
X143075000Y-58474999D01*
X143349972Y-58474999D01*
X143349986Y-58474998D01*
X143452697Y-58464505D01*
X143619119Y-58409358D01*
X143619124Y-58409356D01*
X143768345Y-58317315D01*
X143892315Y-58193345D01*
X143984356Y-58044124D01*
X143984358Y-58044119D01*
X144039505Y-57877697D01*
X144039506Y-57877690D01*
X144049999Y-57774986D01*
X144050000Y-57774973D01*
X144050000Y-57637500D01*
X143075000Y-57637500D01*
X143075000Y-58474999D01*
X142574999Y-58474999D01*
X142575000Y-58474998D01*
X142575000Y-57637500D01*
X141600001Y-57637500D01*
X141600001Y-57774986D01*
X132960500Y-57774986D01*
X132960500Y-56872229D01*
X132980185Y-56805190D01*
X132996819Y-56784548D01*
X135624548Y-54156819D01*
X135685871Y-54123334D01*
X135712229Y-54120500D01*
X137520396Y-54120500D01*
X137567844Y-54129937D01*
X137591503Y-54139737D01*
X137591508Y-54139738D01*
X137591511Y-54139739D01*
X137746153Y-54170499D01*
X137746156Y-54170500D01*
X137746158Y-54170500D01*
X137903844Y-54170500D01*
X137903845Y-54170499D01*
X138058497Y-54139737D01*
X138204179Y-54079394D01*
X138335289Y-53991789D01*
X138446789Y-53880289D01*
X138534394Y-53749179D01*
X138537095Y-53742655D01*
X138580932Y-53688251D01*
X138647224Y-53666181D01*
X138714925Y-53683456D01*
X138739340Y-53702421D01*
X141636985Y-56600066D01*
X141670470Y-56661389D01*
X141667010Y-56726751D01*
X141610494Y-56897302D01*
X141610493Y-56897309D01*
X141600000Y-57000013D01*
X141600000Y-57137500D01*
X144049999Y-57137500D01*
X144049999Y-57000028D01*
X144049998Y-57000013D01*
X144039506Y-56897304D01*
X143982989Y-56726752D01*
X143980587Y-56656924D01*
X144013012Y-56600067D01*
X144143919Y-56469161D01*
X144283610Y-56287112D01*
X144398344Y-56088388D01*
X144486158Y-55876386D01*
X144545548Y-55654739D01*
X144575499Y-55427234D01*
X144575499Y-55197766D01*
X144545548Y-54970261D01*
X144486158Y-54748613D01*
X144445721Y-54650989D01*
X144398348Y-54536620D01*
X144398343Y-54536611D01*
X144283610Y-54337888D01*
X144143919Y-54155839D01*
X144143914Y-54155833D01*
X140169168Y-50181086D01*
X140169163Y-50181082D01*
X140169162Y-50181081D01*
X140169161Y-50181080D01*
X140078136Y-50111235D01*
X140078135Y-50111234D01*
X139987122Y-50041396D01*
X139987116Y-50041392D01*
X139987112Y-50041389D01*
X139976458Y-50035238D01*
X139788391Y-49926657D01*
X139788376Y-49926650D01*
X139576387Y-49838842D01*
X139354739Y-49779452D01*
X139354733Y-49779451D01*
X139354732Y-49779451D01*
X139344862Y-49778151D01*
X139328271Y-49775967D01*
X139328270Y-49775966D01*
X139127244Y-49749501D01*
X139127239Y-49749500D01*
X139127234Y-49749500D01*
X139127227Y-49749500D01*
X137978443Y-49749500D01*
X137911404Y-49729815D01*
X137890762Y-49713181D01*
X136489762Y-48312180D01*
X136456277Y-48250857D01*
X136461261Y-48181165D01*
X136503133Y-48125232D01*
X136568597Y-48100815D01*
X136577443Y-48100499D01*
X138400002Y-48100499D01*
X138400008Y-48100499D01*
X138502797Y-48089999D01*
X138669334Y-48034814D01*
X138818656Y-47942712D01*
X138942712Y-47818656D01*
X139034814Y-47669334D01*
X139089999Y-47502797D01*
X139100500Y-47400009D01*
X139100499Y-45862332D01*
X150139500Y-45862332D01*
X150139500Y-46137667D01*
X150139501Y-46137684D01*
X150175438Y-46410655D01*
X150175439Y-46410660D01*
X150175440Y-46410666D01*
X150175441Y-46410668D01*
X150246704Y-46676630D01*
X150352075Y-46931017D01*
X150352080Y-46931028D01*
X150434861Y-47074407D01*
X150489751Y-47169479D01*
X150489753Y-47169482D01*
X150489754Y-47169483D01*
X150657370Y-47387926D01*
X150657376Y-47387933D01*
X150852066Y-47582623D01*
X150852072Y-47582628D01*
X151070521Y-47750249D01*
X151189007Y-47818657D01*
X151308971Y-47887919D01*
X151308976Y-47887921D01*
X151308979Y-47887923D01*
X151563368Y-47993295D01*
X151829334Y-48064560D01*
X152102326Y-48100500D01*
X152102333Y-48100500D01*
X152377667Y-48100500D01*
X152377674Y-48100500D01*
X152650666Y-48064560D01*
X152916632Y-47993295D01*
X153171021Y-47887923D01*
X153409479Y-47750249D01*
X153627928Y-47582628D01*
X153822628Y-47387928D01*
X153990249Y-47169479D01*
X154127923Y-46931021D01*
X154233295Y-46676632D01*
X154304560Y-46410666D01*
X154340500Y-46137674D01*
X154340500Y-45862326D01*
X154304560Y-45589334D01*
X154233295Y-45323368D01*
X154127923Y-45068979D01*
X154127921Y-45068976D01*
X154127919Y-45068971D01*
X154078732Y-44983778D01*
X153990249Y-44830521D01*
X153822628Y-44612072D01*
X153822623Y-44612066D01*
X153627933Y-44417376D01*
X153627926Y-44417370D01*
X153409483Y-44249754D01*
X153409482Y-44249753D01*
X153409479Y-44249751D01*
X153290995Y-44181344D01*
X153171028Y-44112080D01*
X153171017Y-44112075D01*
X152916630Y-44006704D01*
X152761676Y-43965185D01*
X152650666Y-43935440D01*
X152650660Y-43935439D01*
X152650655Y-43935438D01*
X152377684Y-43899501D01*
X152377679Y-43899500D01*
X152377674Y-43899500D01*
X152102326Y-43899500D01*
X152102320Y-43899500D01*
X152102315Y-43899501D01*
X151829344Y-43935438D01*
X151829337Y-43935439D01*
X151829334Y-43935440D01*
X151773125Y-43950500D01*
X151563369Y-44006704D01*
X151308982Y-44112075D01*
X151308971Y-44112080D01*
X151070516Y-44249754D01*
X150852073Y-44417370D01*
X150852066Y-44417376D01*
X150657376Y-44612066D01*
X150657370Y-44612073D01*
X150489754Y-44830516D01*
X150352080Y-45068971D01*
X150352075Y-45068982D01*
X150246704Y-45323369D01*
X150175441Y-45589331D01*
X150175438Y-45589344D01*
X150139501Y-45862315D01*
X150139500Y-45862332D01*
X139100499Y-45862332D01*
X139100499Y-44599992D01*
X139089999Y-44497203D01*
X139034814Y-44330666D01*
X138942712Y-44181344D01*
X138818656Y-44057288D01*
X138669334Y-43965186D01*
X138502797Y-43910001D01*
X138502795Y-43910000D01*
X138400010Y-43899500D01*
X135599998Y-43899500D01*
X135599981Y-43899501D01*
X135497203Y-43910000D01*
X135497200Y-43910001D01*
X135330668Y-43965185D01*
X135330663Y-43965187D01*
X135181342Y-44057289D01*
X135057289Y-44181342D01*
X134965187Y-44330663D01*
X134965186Y-44330666D01*
X134910001Y-44497203D01*
X134910001Y-44497204D01*
X134910000Y-44497204D01*
X134899500Y-44599983D01*
X134899500Y-47400001D01*
X134899501Y-47400018D01*
X134910000Y-47502796D01*
X134910001Y-47502799D01*
X134927795Y-47556496D01*
X134930197Y-47626324D01*
X134894465Y-47686366D01*
X134831945Y-47717559D01*
X134810089Y-47719500D01*
X131994706Y-47719500D01*
X131994700Y-47719500D01*
X131994695Y-47719501D01*
X131793668Y-47745966D01*
X131793668Y-47745967D01*
X131789655Y-47746495D01*
X131767203Y-47749451D01*
X131545552Y-47808842D01*
X131333563Y-47896650D01*
X131333548Y-47896657D01*
X131134829Y-48011387D01*
X131134826Y-48011389D01*
X131134827Y-48011390D01*
X130952773Y-48151085D01*
X126131084Y-52972773D01*
X126131078Y-52972780D01*
X126089982Y-53026338D01*
X126089980Y-53026342D01*
X126022876Y-53113793D01*
X125966448Y-53154995D01*
X125896702Y-53159150D01*
X125835781Y-53124937D01*
X125803029Y-53063220D01*
X125800500Y-53038306D01*
X125800500Y-40897648D01*
X140899500Y-40897648D01*
X140899500Y-41102351D01*
X140931522Y-41304534D01*
X140994781Y-41499223D01*
X141087715Y-41681613D01*
X141208028Y-41847213D01*
X141352786Y-41991971D01*
X141507749Y-42104556D01*
X141518390Y-42112287D01*
X141634607Y-42171503D01*
X141700776Y-42205218D01*
X141700778Y-42205218D01*
X141700781Y-42205220D01*
X141805137Y-42239127D01*
X141895465Y-42268477D01*
X141996557Y-42284488D01*
X142097648Y-42300500D01*
X142097649Y-42300500D01*
X142302351Y-42300500D01*
X142302352Y-42300500D01*
X142504534Y-42268477D01*
X142699219Y-42205220D01*
X142881610Y-42112287D01*
X142974590Y-42044732D01*
X143047213Y-41991971D01*
X143047215Y-41991968D01*
X143047219Y-41991966D01*
X143191966Y-41847219D01*
X143191968Y-41847215D01*
X143191971Y-41847213D01*
X143244732Y-41774590D01*
X143312287Y-41681610D01*
X143405220Y-41499219D01*
X143468477Y-41304534D01*
X143500500Y-41102352D01*
X143500500Y-40897648D01*
X145699500Y-40897648D01*
X145699500Y-41102351D01*
X145731522Y-41304534D01*
X145794781Y-41499223D01*
X145887715Y-41681613D01*
X146008028Y-41847213D01*
X146152786Y-41991971D01*
X146307749Y-42104556D01*
X146318390Y-42112287D01*
X146434607Y-42171503D01*
X146500776Y-42205218D01*
X146500778Y-42205218D01*
X146500781Y-42205220D01*
X146605137Y-42239127D01*
X146695465Y-42268477D01*
X146796557Y-42284488D01*
X146897648Y-42300500D01*
X146897649Y-42300500D01*
X147102351Y-42300500D01*
X147102352Y-42300500D01*
X147304534Y-42268477D01*
X147499219Y-42205220D01*
X147681610Y-42112287D01*
X147774590Y-42044732D01*
X147847213Y-41991971D01*
X147847215Y-41991968D01*
X147847219Y-41991966D01*
X147991966Y-41847219D01*
X147991968Y-41847215D01*
X147991971Y-41847213D01*
X148044732Y-41774590D01*
X148112287Y-41681610D01*
X148205220Y-41499219D01*
X148268477Y-41304534D01*
X148300500Y-41102352D01*
X148300500Y-40897648D01*
X148268477Y-40695466D01*
X148205220Y-40500781D01*
X148205218Y-40500778D01*
X148205218Y-40500776D01*
X148171503Y-40434607D01*
X148112287Y-40318390D01*
X148104556Y-40307749D01*
X147991971Y-40152786D01*
X147847213Y-40008028D01*
X147681613Y-39887715D01*
X147681612Y-39887714D01*
X147681610Y-39887713D01*
X147624653Y-39858691D01*
X147499223Y-39794781D01*
X147304534Y-39731522D01*
X147129995Y-39703878D01*
X147102352Y-39699500D01*
X146897648Y-39699500D01*
X146873329Y-39703351D01*
X146695465Y-39731522D01*
X146500776Y-39794781D01*
X146318386Y-39887715D01*
X146152786Y-40008028D01*
X146008028Y-40152786D01*
X145887715Y-40318386D01*
X145794781Y-40500776D01*
X145731522Y-40695465D01*
X145699500Y-40897648D01*
X143500500Y-40897648D01*
X143468477Y-40695466D01*
X143405220Y-40500781D01*
X143405218Y-40500778D01*
X143405218Y-40500776D01*
X143371503Y-40434607D01*
X143312287Y-40318390D01*
X143304556Y-40307749D01*
X143191971Y-40152786D01*
X143047213Y-40008028D01*
X142881613Y-39887715D01*
X142881612Y-39887714D01*
X142881610Y-39887713D01*
X142824653Y-39858691D01*
X142699223Y-39794781D01*
X142504534Y-39731522D01*
X142329995Y-39703878D01*
X142302352Y-39699500D01*
X142097648Y-39699500D01*
X142073329Y-39703351D01*
X141895465Y-39731522D01*
X141700776Y-39794781D01*
X141518386Y-39887715D01*
X141352786Y-40008028D01*
X141208028Y-40152786D01*
X141087715Y-40318386D01*
X140994781Y-40500776D01*
X140931522Y-40695465D01*
X140899500Y-40897648D01*
X125800500Y-40897648D01*
X125800500Y-33628711D01*
X126999500Y-33628711D01*
X126999500Y-33871288D01*
X127031161Y-34111785D01*
X127093947Y-34346104D01*
X127186773Y-34570205D01*
X127186776Y-34570212D01*
X127308064Y-34780289D01*
X127308066Y-34780292D01*
X127308067Y-34780293D01*
X127455733Y-34972736D01*
X127455739Y-34972743D01*
X127627256Y-35144260D01*
X127627262Y-35144265D01*
X127819711Y-35291936D01*
X128029788Y-35413224D01*
X128253900Y-35506054D01*
X128488211Y-35568838D01*
X128668586Y-35592584D01*
X128728711Y-35600500D01*
X128728712Y-35600500D01*
X128971289Y-35600500D01*
X129019388Y-35594167D01*
X129211789Y-35568838D01*
X129446100Y-35506054D01*
X129670212Y-35413224D01*
X129880289Y-35291936D01*
X130072738Y-35144265D01*
X130244265Y-34972738D01*
X130391936Y-34780289D01*
X130513224Y-34570212D01*
X130606054Y-34346100D01*
X130668838Y-34111789D01*
X130700500Y-33871288D01*
X130700500Y-33628712D01*
X130668838Y-33388211D01*
X130606054Y-33153900D01*
X130513224Y-32929788D01*
X130448403Y-32817514D01*
X141025000Y-32817514D01*
X141025000Y-33767500D01*
X142324999Y-33767500D01*
X142299979Y-33827902D01*
X142275000Y-33953481D01*
X142275000Y-34081519D01*
X142299979Y-34207098D01*
X142324999Y-34267500D01*
X141025000Y-34267500D01*
X141025000Y-35217485D01*
X141035493Y-35320189D01*
X141035494Y-35320196D01*
X141090641Y-35486618D01*
X141090643Y-35486623D01*
X141182684Y-35635844D01*
X141306655Y-35759815D01*
X141455876Y-35851856D01*
X141455881Y-35851858D01*
X141622303Y-35907005D01*
X141622310Y-35907006D01*
X141725014Y-35917499D01*
X141725027Y-35917500D01*
X142675000Y-35917500D01*
X142675000Y-34617501D01*
X142735402Y-34642521D01*
X142860981Y-34667500D01*
X142989019Y-34667500D01*
X143114598Y-34642521D01*
X143175000Y-34617501D01*
X143175000Y-35917500D01*
X144124973Y-35917500D01*
X144124985Y-35917499D01*
X144227689Y-35907006D01*
X144227696Y-35907005D01*
X144394118Y-35851858D01*
X144394123Y-35851856D01*
X144543344Y-35759815D01*
X144667315Y-35635844D01*
X144759356Y-35486623D01*
X144759358Y-35486618D01*
X144814505Y-35320196D01*
X144814506Y-35320189D01*
X144824999Y-35217485D01*
X144825000Y-35217472D01*
X144825000Y-34267500D01*
X143525001Y-34267500D01*
X143550021Y-34207098D01*
X143575000Y-34081519D01*
X143575000Y-33953481D01*
X143562958Y-33892941D01*
X146024500Y-33892941D01*
X146024500Y-34142058D01*
X146024501Y-34142075D01*
X146057017Y-34389061D01*
X146121498Y-34629707D01*
X146216830Y-34859861D01*
X146216837Y-34859876D01*
X146341400Y-35075626D01*
X146493060Y-35273274D01*
X146493066Y-35273281D01*
X146669218Y-35449433D01*
X146669225Y-35449439D01*
X146866873Y-35601099D01*
X147082623Y-35725662D01*
X147082638Y-35725669D01*
X147165075Y-35759815D01*
X147312793Y-35821002D01*
X147553435Y-35885482D01*
X147800435Y-35918000D01*
X147800442Y-35918000D01*
X148049558Y-35918000D01*
X148049565Y-35918000D01*
X148296565Y-35885482D01*
X148537207Y-35821002D01*
X148767373Y-35725664D01*
X148983127Y-35601099D01*
X149180776Y-35449438D01*
X149356938Y-35273276D01*
X149508599Y-35075627D01*
X149633164Y-34859873D01*
X149728502Y-34629707D01*
X149792982Y-34389065D01*
X149825500Y-34142065D01*
X149825500Y-33892935D01*
X149792982Y-33645935D01*
X149788367Y-33628711D01*
X160249500Y-33628711D01*
X160249500Y-33871288D01*
X160281161Y-34111785D01*
X160343947Y-34346104D01*
X160436773Y-34570205D01*
X160436776Y-34570212D01*
X160558064Y-34780289D01*
X160558066Y-34780292D01*
X160558067Y-34780293D01*
X160705733Y-34972736D01*
X160705739Y-34972743D01*
X160877256Y-35144260D01*
X160877262Y-35144265D01*
X161069711Y-35291936D01*
X161279788Y-35413224D01*
X161503900Y-35506054D01*
X161738211Y-35568838D01*
X161918586Y-35592584D01*
X161978711Y-35600500D01*
X161978712Y-35600500D01*
X162221289Y-35600500D01*
X162269388Y-35594167D01*
X162461789Y-35568838D01*
X162696100Y-35506054D01*
X162920212Y-35413224D01*
X163130289Y-35291936D01*
X163322738Y-35144265D01*
X163494265Y-34972738D01*
X163641936Y-34780289D01*
X163763224Y-34570212D01*
X163856054Y-34346100D01*
X163918838Y-34111789D01*
X163950500Y-33871288D01*
X163950500Y-33628712D01*
X163918838Y-33388211D01*
X163856054Y-33153900D01*
X163763224Y-32929788D01*
X163641936Y-32719711D01*
X163494265Y-32527262D01*
X163494260Y-32527256D01*
X163322743Y-32355739D01*
X163322736Y-32355733D01*
X163130293Y-32208067D01*
X163130292Y-32208066D01*
X163130289Y-32208064D01*
X162920212Y-32086776D01*
X162920205Y-32086773D01*
X162696104Y-31993947D01*
X162461785Y-31931161D01*
X162221289Y-31899500D01*
X162221288Y-31899500D01*
X161978712Y-31899500D01*
X161978711Y-31899500D01*
X161738214Y-31931161D01*
X161503895Y-31993947D01*
X161279794Y-32086773D01*
X161279785Y-32086777D01*
X161069706Y-32208067D01*
X160877263Y-32355733D01*
X160877256Y-32355739D01*
X160705739Y-32527256D01*
X160705733Y-32527263D01*
X160558067Y-32719706D01*
X160436777Y-32929785D01*
X160436773Y-32929794D01*
X160343947Y-33153895D01*
X160281161Y-33388214D01*
X160249500Y-33628711D01*
X149788367Y-33628711D01*
X149728502Y-33405293D01*
X149633164Y-33175127D01*
X149508599Y-32959373D01*
X149356938Y-32761724D01*
X149356933Y-32761718D01*
X149180781Y-32585566D01*
X149180774Y-32585560D01*
X148983126Y-32433900D01*
X148767376Y-32309337D01*
X148767361Y-32309330D01*
X148537207Y-32213998D01*
X148296561Y-32149517D01*
X148049575Y-32117001D01*
X148049570Y-32117000D01*
X148049565Y-32117000D01*
X147800435Y-32117000D01*
X147800429Y-32117000D01*
X147800424Y-32117001D01*
X147553438Y-32149517D01*
X147312792Y-32213998D01*
X147082638Y-32309330D01*
X147082623Y-32309337D01*
X146866873Y-32433900D01*
X146669225Y-32585560D01*
X146669218Y-32585566D01*
X146493066Y-32761718D01*
X146493060Y-32761725D01*
X146341400Y-32959373D01*
X146216837Y-33175123D01*
X146216830Y-33175138D01*
X146121498Y-33405292D01*
X146057017Y-33645938D01*
X146024501Y-33892924D01*
X146024500Y-33892941D01*
X143562958Y-33892941D01*
X143550021Y-33827902D01*
X143525001Y-33767500D01*
X144825000Y-33767500D01*
X144825000Y-32817527D01*
X144824999Y-32817514D01*
X144814506Y-32714810D01*
X144814505Y-32714803D01*
X144759358Y-32548381D01*
X144759356Y-32548376D01*
X144667315Y-32399155D01*
X144543344Y-32275184D01*
X144394123Y-32183143D01*
X144394118Y-32183141D01*
X144227696Y-32127994D01*
X144227689Y-32127993D01*
X144124985Y-32117500D01*
X143175000Y-32117500D01*
X143175000Y-33417498D01*
X143114598Y-33392479D01*
X142989019Y-33367500D01*
X142860981Y-33367500D01*
X142735402Y-33392479D01*
X142675000Y-33417498D01*
X142675000Y-32117500D01*
X141725014Y-32117500D01*
X141622310Y-32127993D01*
X141622303Y-32127994D01*
X141455881Y-32183141D01*
X141455876Y-32183143D01*
X141306655Y-32275184D01*
X141182684Y-32399155D01*
X141090643Y-32548376D01*
X141090641Y-32548381D01*
X141035494Y-32714803D01*
X141035493Y-32714810D01*
X141025000Y-32817514D01*
X130448403Y-32817514D01*
X130391936Y-32719711D01*
X130244265Y-32527262D01*
X130244260Y-32527256D01*
X130072743Y-32355739D01*
X130072736Y-32355733D01*
X129880293Y-32208067D01*
X129880292Y-32208066D01*
X129880289Y-32208064D01*
X129670212Y-32086776D01*
X129670205Y-32086773D01*
X129446104Y-31993947D01*
X129211785Y-31931161D01*
X128971289Y-31899500D01*
X128971288Y-31899500D01*
X128728712Y-31899500D01*
X128728711Y-31899500D01*
X128488214Y-31931161D01*
X128253895Y-31993947D01*
X128029794Y-32086773D01*
X128029785Y-32086777D01*
X127819706Y-32208067D01*
X127627263Y-32355733D01*
X127627256Y-32355739D01*
X127455739Y-32527256D01*
X127455733Y-32527263D01*
X127308067Y-32719706D01*
X127186777Y-32929785D01*
X127186773Y-32929794D01*
X127093947Y-33153895D01*
X127031161Y-33388214D01*
X126999500Y-33628711D01*
X125800500Y-33628711D01*
X125800500Y-29774500D01*
X125820185Y-29707461D01*
X125872989Y-29661706D01*
X125924500Y-29650500D01*
X165075500Y-29650500D01*
X165142539Y-29670185D01*
G37*
%TD.AperFunction*%
%TA.AperFunction,Conductor*%
G36*
X132428624Y-98427935D02*
G01*
X132442147Y-98425991D01*
X132462118Y-98435111D01*
X132483585Y-98439711D01*
X132501715Y-98453195D01*
X132505703Y-98455016D01*
X132511813Y-98460705D01*
X132511905Y-98460773D01*
X132512064Y-98460931D01*
X132596584Y-98545451D01*
X132598210Y-98546537D01*
X132603835Y-98552127D01*
X132634135Y-98601075D01*
X132640186Y-98619334D01*
X132732288Y-98768656D01*
X132856344Y-98892712D01*
X132859628Y-98894737D01*
X132859653Y-98894753D01*
X132861445Y-98896746D01*
X132862011Y-98897193D01*
X132861934Y-98897289D01*
X132906379Y-98946699D01*
X132917603Y-99015661D01*
X132889761Y-99079744D01*
X132859665Y-99105826D01*
X132856660Y-99107679D01*
X132856655Y-99107683D01*
X132732684Y-99231654D01*
X132640643Y-99380875D01*
X132640641Y-99380880D01*
X132585494Y-99547302D01*
X132585493Y-99547309D01*
X132579403Y-99606919D01*
X132553006Y-99671610D01*
X132495825Y-99711761D01*
X132426014Y-99714624D01*
X132368364Y-99681996D01*
X132336819Y-99650451D01*
X132303334Y-99589128D01*
X132300500Y-99562770D01*
X132300500Y-98548729D01*
X132306685Y-98527663D01*
X132308183Y-98505761D01*
X132316336Y-98494798D01*
X132320185Y-98481690D01*
X132336775Y-98467314D01*
X132349878Y-98449696D01*
X132362665Y-98444880D01*
X132372989Y-98435935D01*
X132394717Y-98432810D01*
X132415265Y-98425073D01*
X132428624Y-98427935D01*
G37*
%TD.AperFunction*%
%TD*%
M02*
