%TF.GenerationSoftware,KiCad,Pcbnew,10.0.3*%
%TF.CreationDate,2026-08-14T13:03:02+01:00*%
%TF.ProjectId,Power_Monitor_V2,506f7765-725f-44d6-9f6e-69746f725f56,rev?*%
%TF.SameCoordinates,Original*%
%TF.FileFunction,Legend,Top*%
%TF.FilePolarity,Positive*%
%FSLAX46Y46*%
G04 Gerber Fmt 4.6, Leading zero omitted, Abs format (unit mm)*
G04 Created by KiCad (PCBNEW 10.0.3) date 2026-08-14 13:03:02*
%MOMM*%
%LPD*%
G01*
G04 APERTURE LIST*
%ADD10C,0.200000*%
%ADD11C,0.300000*%
%ADD12C,0.150000*%
%ADD13C,0.120000*%
%ADD14C,0.100000*%
G04 APERTURE END LIST*
D10*
X130717219Y-94855326D02*
X129717219Y-94855326D01*
X129717219Y-94855326D02*
X129717219Y-94617231D01*
X129717219Y-94617231D02*
X129764838Y-94474374D01*
X129764838Y-94474374D02*
X129860076Y-94379136D01*
X129860076Y-94379136D02*
X129955314Y-94331517D01*
X129955314Y-94331517D02*
X130145790Y-94283898D01*
X130145790Y-94283898D02*
X130288647Y-94283898D01*
X130288647Y-94283898D02*
X130479123Y-94331517D01*
X130479123Y-94331517D02*
X130574361Y-94379136D01*
X130574361Y-94379136D02*
X130669600Y-94474374D01*
X130669600Y-94474374D02*
X130717219Y-94617231D01*
X130717219Y-94617231D02*
X130717219Y-94855326D01*
X130717219Y-93855326D02*
X130050552Y-93855326D01*
X129717219Y-93855326D02*
X129764838Y-93902945D01*
X129764838Y-93902945D02*
X129812457Y-93855326D01*
X129812457Y-93855326D02*
X129764838Y-93807707D01*
X129764838Y-93807707D02*
X129717219Y-93855326D01*
X129717219Y-93855326D02*
X129812457Y-93855326D01*
X130669600Y-93426755D02*
X130717219Y-93331517D01*
X130717219Y-93331517D02*
X130717219Y-93141041D01*
X130717219Y-93141041D02*
X130669600Y-93045803D01*
X130669600Y-93045803D02*
X130574361Y-92998184D01*
X130574361Y-92998184D02*
X130526742Y-92998184D01*
X130526742Y-92998184D02*
X130431504Y-93045803D01*
X130431504Y-93045803D02*
X130383885Y-93141041D01*
X130383885Y-93141041D02*
X130383885Y-93283898D01*
X130383885Y-93283898D02*
X130336266Y-93379136D01*
X130336266Y-93379136D02*
X130241028Y-93426755D01*
X130241028Y-93426755D02*
X130193409Y-93426755D01*
X130193409Y-93426755D02*
X130098171Y-93379136D01*
X130098171Y-93379136D02*
X130050552Y-93283898D01*
X130050552Y-93283898D02*
X130050552Y-93141041D01*
X130050552Y-93141041D02*
X130098171Y-93045803D01*
X130050552Y-92569612D02*
X131050552Y-92569612D01*
X130098171Y-92569612D02*
X130050552Y-92474374D01*
X130050552Y-92474374D02*
X130050552Y-92283898D01*
X130050552Y-92283898D02*
X130098171Y-92188660D01*
X130098171Y-92188660D02*
X130145790Y-92141041D01*
X130145790Y-92141041D02*
X130241028Y-92093422D01*
X130241028Y-92093422D02*
X130526742Y-92093422D01*
X130526742Y-92093422D02*
X130621980Y-92141041D01*
X130621980Y-92141041D02*
X130669600Y-92188660D01*
X130669600Y-92188660D02*
X130717219Y-92283898D01*
X130717219Y-92283898D02*
X130717219Y-92474374D01*
X130717219Y-92474374D02*
X130669600Y-92569612D01*
X130717219Y-91521993D02*
X130669600Y-91617231D01*
X130669600Y-91617231D02*
X130574361Y-91664850D01*
X130574361Y-91664850D02*
X129717219Y-91664850D01*
X130717219Y-90712469D02*
X130193409Y-90712469D01*
X130193409Y-90712469D02*
X130098171Y-90760088D01*
X130098171Y-90760088D02*
X130050552Y-90855326D01*
X130050552Y-90855326D02*
X130050552Y-91045802D01*
X130050552Y-91045802D02*
X130098171Y-91141040D01*
X130669600Y-90712469D02*
X130717219Y-90807707D01*
X130717219Y-90807707D02*
X130717219Y-91045802D01*
X130717219Y-91045802D02*
X130669600Y-91141040D01*
X130669600Y-91141040D02*
X130574361Y-91188659D01*
X130574361Y-91188659D02*
X130479123Y-91188659D01*
X130479123Y-91188659D02*
X130383885Y-91141040D01*
X130383885Y-91141040D02*
X130336266Y-91045802D01*
X130336266Y-91045802D02*
X130336266Y-90807707D01*
X130336266Y-90807707D02*
X130288647Y-90712469D01*
X130050552Y-90331516D02*
X130717219Y-90093421D01*
X130050552Y-89855326D02*
X130717219Y-90093421D01*
X130717219Y-90093421D02*
X130955314Y-90188659D01*
X130955314Y-90188659D02*
X131002933Y-90236278D01*
X131002933Y-90236278D02*
X131050552Y-90331516D01*
D11*
X164074801Y-68821428D02*
X164074801Y-68321428D01*
X163289087Y-68321428D02*
X164789087Y-68321428D01*
X164789087Y-68321428D02*
X164789087Y-69035714D01*
X163289087Y-69607142D02*
X164289087Y-69607142D01*
X164789087Y-69607142D02*
X164717658Y-69535714D01*
X164717658Y-69535714D02*
X164646230Y-69607142D01*
X164646230Y-69607142D02*
X164717658Y-69678571D01*
X164717658Y-69678571D02*
X164789087Y-69607142D01*
X164789087Y-69607142D02*
X164646230Y-69607142D01*
X163289087Y-70535714D02*
X163360516Y-70392857D01*
X163360516Y-70392857D02*
X163503373Y-70321428D01*
X163503373Y-70321428D02*
X164789087Y-70321428D01*
X163289087Y-71107142D02*
X164289087Y-71107142D01*
X164789087Y-71107142D02*
X164717658Y-71035714D01*
X164717658Y-71035714D02*
X164646230Y-71107142D01*
X164646230Y-71107142D02*
X164717658Y-71178571D01*
X164717658Y-71178571D02*
X164789087Y-71107142D01*
X164789087Y-71107142D02*
X164646230Y-71107142D01*
X164289087Y-71821428D02*
X162789087Y-71821428D01*
X164217658Y-71821428D02*
X164289087Y-71964286D01*
X164289087Y-71964286D02*
X164289087Y-72250000D01*
X164289087Y-72250000D02*
X164217658Y-72392857D01*
X164217658Y-72392857D02*
X164146230Y-72464286D01*
X164146230Y-72464286D02*
X164003373Y-72535714D01*
X164003373Y-72535714D02*
X163574801Y-72535714D01*
X163574801Y-72535714D02*
X163431944Y-72464286D01*
X163431944Y-72464286D02*
X163360516Y-72392857D01*
X163360516Y-72392857D02*
X163289087Y-72250000D01*
X163289087Y-72250000D02*
X163289087Y-71964286D01*
X163289087Y-71964286D02*
X163360516Y-71821428D01*
X163360516Y-73107143D02*
X163289087Y-73250000D01*
X163289087Y-73250000D02*
X163289087Y-73535714D01*
X163289087Y-73535714D02*
X163360516Y-73678571D01*
X163360516Y-73678571D02*
X163503373Y-73750000D01*
X163503373Y-73750000D02*
X163574801Y-73750000D01*
X163574801Y-73750000D02*
X163717658Y-73678571D01*
X163717658Y-73678571D02*
X163789087Y-73535714D01*
X163789087Y-73535714D02*
X163789087Y-73321429D01*
X163789087Y-73321429D02*
X163860516Y-73178571D01*
X163860516Y-73178571D02*
X164003373Y-73107143D01*
X164003373Y-73107143D02*
X164074801Y-73107143D01*
X164074801Y-73107143D02*
X164217658Y-73178571D01*
X164217658Y-73178571D02*
X164289087Y-73321429D01*
X164289087Y-73321429D02*
X164289087Y-73535714D01*
X164289087Y-73535714D02*
X164217658Y-73678571D01*
X164789087Y-75321429D02*
X164789087Y-76178572D01*
X163289087Y-75750000D02*
X164789087Y-75750000D01*
X163289087Y-77321429D02*
X164074801Y-77321429D01*
X164074801Y-77321429D02*
X164217658Y-77250000D01*
X164217658Y-77250000D02*
X164289087Y-77107143D01*
X164289087Y-77107143D02*
X164289087Y-76821429D01*
X164289087Y-76821429D02*
X164217658Y-76678571D01*
X163360516Y-77321429D02*
X163289087Y-77178571D01*
X163289087Y-77178571D02*
X163289087Y-76821429D01*
X163289087Y-76821429D02*
X163360516Y-76678571D01*
X163360516Y-76678571D02*
X163503373Y-76607143D01*
X163503373Y-76607143D02*
X163646230Y-76607143D01*
X163646230Y-76607143D02*
X163789087Y-76678571D01*
X163789087Y-76678571D02*
X163860516Y-76821429D01*
X163860516Y-76821429D02*
X163860516Y-77178571D01*
X163860516Y-77178571D02*
X163931944Y-77321429D01*
X163289087Y-78250000D02*
X163360516Y-78107143D01*
X163360516Y-78107143D02*
X163503373Y-78035714D01*
X163503373Y-78035714D02*
X164789087Y-78035714D01*
X164289087Y-79464286D02*
X163289087Y-79464286D01*
X164289087Y-78821428D02*
X163503373Y-78821428D01*
X163503373Y-78821428D02*
X163360516Y-78892857D01*
X163360516Y-78892857D02*
X163289087Y-79035714D01*
X163289087Y-79035714D02*
X163289087Y-79250000D01*
X163289087Y-79250000D02*
X163360516Y-79392857D01*
X163360516Y-79392857D02*
X163431944Y-79464286D01*
X163289087Y-80178571D02*
X164289087Y-80178571D01*
X164146230Y-80178571D02*
X164217658Y-80250000D01*
X164217658Y-80250000D02*
X164289087Y-80392857D01*
X164289087Y-80392857D02*
X164289087Y-80607143D01*
X164289087Y-80607143D02*
X164217658Y-80750000D01*
X164217658Y-80750000D02*
X164074801Y-80821429D01*
X164074801Y-80821429D02*
X163289087Y-80821429D01*
X164074801Y-80821429D02*
X164217658Y-80892857D01*
X164217658Y-80892857D02*
X164289087Y-81035714D01*
X164289087Y-81035714D02*
X164289087Y-81250000D01*
X164289087Y-81250000D02*
X164217658Y-81392857D01*
X164217658Y-81392857D02*
X164074801Y-81464286D01*
X164074801Y-81464286D02*
X163289087Y-81464286D01*
X163360516Y-82107143D02*
X163289087Y-82250000D01*
X163289087Y-82250000D02*
X163289087Y-82535714D01*
X163289087Y-82535714D02*
X163360516Y-82678571D01*
X163360516Y-82678571D02*
X163503373Y-82750000D01*
X163503373Y-82750000D02*
X163574801Y-82750000D01*
X163574801Y-82750000D02*
X163717658Y-82678571D01*
X163717658Y-82678571D02*
X163789087Y-82535714D01*
X163789087Y-82535714D02*
X163789087Y-82321429D01*
X163789087Y-82321429D02*
X163860516Y-82178571D01*
X163860516Y-82178571D02*
X164003373Y-82107143D01*
X164003373Y-82107143D02*
X164074801Y-82107143D01*
X164074801Y-82107143D02*
X164217658Y-82178571D01*
X164217658Y-82178571D02*
X164289087Y-82321429D01*
X164289087Y-82321429D02*
X164289087Y-82535714D01*
X164289087Y-82535714D02*
X164217658Y-82678571D01*
X160945600Y-67857144D02*
X160874171Y-68071430D01*
X160874171Y-68071430D02*
X160874171Y-68428572D01*
X160874171Y-68428572D02*
X160945600Y-68571430D01*
X160945600Y-68571430D02*
X161017028Y-68642858D01*
X161017028Y-68642858D02*
X161159885Y-68714287D01*
X161159885Y-68714287D02*
X161302742Y-68714287D01*
X161302742Y-68714287D02*
X161445600Y-68642858D01*
X161445600Y-68642858D02*
X161517028Y-68571430D01*
X161517028Y-68571430D02*
X161588457Y-68428572D01*
X161588457Y-68428572D02*
X161659885Y-68142858D01*
X161659885Y-68142858D02*
X161731314Y-68000001D01*
X161731314Y-68000001D02*
X161802742Y-67928572D01*
X161802742Y-67928572D02*
X161945600Y-67857144D01*
X161945600Y-67857144D02*
X162088457Y-67857144D01*
X162088457Y-67857144D02*
X162231314Y-67928572D01*
X162231314Y-67928572D02*
X162302742Y-68000001D01*
X162302742Y-68000001D02*
X162374171Y-68142858D01*
X162374171Y-68142858D02*
X162374171Y-68500001D01*
X162374171Y-68500001D02*
X162302742Y-68714287D01*
X161874171Y-70000001D02*
X160874171Y-70000001D01*
X161874171Y-69357143D02*
X161088457Y-69357143D01*
X161088457Y-69357143D02*
X160945600Y-69428572D01*
X160945600Y-69428572D02*
X160874171Y-69571429D01*
X160874171Y-69571429D02*
X160874171Y-69785715D01*
X160874171Y-69785715D02*
X160945600Y-69928572D01*
X160945600Y-69928572D02*
X161017028Y-70000001D01*
X160874171Y-70714286D02*
X161874171Y-70714286D01*
X161731314Y-70714286D02*
X161802742Y-70785715D01*
X161802742Y-70785715D02*
X161874171Y-70928572D01*
X161874171Y-70928572D02*
X161874171Y-71142858D01*
X161874171Y-71142858D02*
X161802742Y-71285715D01*
X161802742Y-71285715D02*
X161659885Y-71357144D01*
X161659885Y-71357144D02*
X160874171Y-71357144D01*
X161659885Y-71357144D02*
X161802742Y-71428572D01*
X161802742Y-71428572D02*
X161874171Y-71571429D01*
X161874171Y-71571429D02*
X161874171Y-71785715D01*
X161874171Y-71785715D02*
X161802742Y-71928572D01*
X161802742Y-71928572D02*
X161659885Y-72000001D01*
X161659885Y-72000001D02*
X160874171Y-72000001D01*
X160874171Y-72714286D02*
X161874171Y-72714286D01*
X161731314Y-72714286D02*
X161802742Y-72785715D01*
X161802742Y-72785715D02*
X161874171Y-72928572D01*
X161874171Y-72928572D02*
X161874171Y-73142858D01*
X161874171Y-73142858D02*
X161802742Y-73285715D01*
X161802742Y-73285715D02*
X161659885Y-73357144D01*
X161659885Y-73357144D02*
X160874171Y-73357144D01*
X161659885Y-73357144D02*
X161802742Y-73428572D01*
X161802742Y-73428572D02*
X161874171Y-73571429D01*
X161874171Y-73571429D02*
X161874171Y-73785715D01*
X161874171Y-73785715D02*
X161802742Y-73928572D01*
X161802742Y-73928572D02*
X161659885Y-74000001D01*
X161659885Y-74000001D02*
X160874171Y-74000001D01*
X160945600Y-75285715D02*
X160874171Y-75142858D01*
X160874171Y-75142858D02*
X160874171Y-74857144D01*
X160874171Y-74857144D02*
X160945600Y-74714286D01*
X160945600Y-74714286D02*
X161088457Y-74642858D01*
X161088457Y-74642858D02*
X161659885Y-74642858D01*
X161659885Y-74642858D02*
X161802742Y-74714286D01*
X161802742Y-74714286D02*
X161874171Y-74857144D01*
X161874171Y-74857144D02*
X161874171Y-75142858D01*
X161874171Y-75142858D02*
X161802742Y-75285715D01*
X161802742Y-75285715D02*
X161659885Y-75357144D01*
X161659885Y-75357144D02*
X161517028Y-75357144D01*
X161517028Y-75357144D02*
X161374171Y-74642858D01*
X160874171Y-76000000D02*
X161874171Y-76000000D01*
X161588457Y-76000000D02*
X161731314Y-76071429D01*
X161731314Y-76071429D02*
X161802742Y-76142858D01*
X161802742Y-76142858D02*
X161874171Y-76285715D01*
X161874171Y-76285715D02*
X161874171Y-76428572D01*
X162231314Y-78000000D02*
X162302742Y-78071428D01*
X162302742Y-78071428D02*
X162374171Y-78214286D01*
X162374171Y-78214286D02*
X162374171Y-78571428D01*
X162374171Y-78571428D02*
X162302742Y-78714286D01*
X162302742Y-78714286D02*
X162231314Y-78785714D01*
X162231314Y-78785714D02*
X162088457Y-78857143D01*
X162088457Y-78857143D02*
X161945600Y-78857143D01*
X161945600Y-78857143D02*
X161731314Y-78785714D01*
X161731314Y-78785714D02*
X160874171Y-77928571D01*
X160874171Y-77928571D02*
X160874171Y-78857143D01*
X162374171Y-79785714D02*
X162374171Y-79928571D01*
X162374171Y-79928571D02*
X162302742Y-80071428D01*
X162302742Y-80071428D02*
X162231314Y-80142857D01*
X162231314Y-80142857D02*
X162088457Y-80214285D01*
X162088457Y-80214285D02*
X161802742Y-80285714D01*
X161802742Y-80285714D02*
X161445600Y-80285714D01*
X161445600Y-80285714D02*
X161159885Y-80214285D01*
X161159885Y-80214285D02*
X161017028Y-80142857D01*
X161017028Y-80142857D02*
X160945600Y-80071428D01*
X160945600Y-80071428D02*
X160874171Y-79928571D01*
X160874171Y-79928571D02*
X160874171Y-79785714D01*
X160874171Y-79785714D02*
X160945600Y-79642857D01*
X160945600Y-79642857D02*
X161017028Y-79571428D01*
X161017028Y-79571428D02*
X161159885Y-79499999D01*
X161159885Y-79499999D02*
X161445600Y-79428571D01*
X161445600Y-79428571D02*
X161802742Y-79428571D01*
X161802742Y-79428571D02*
X162088457Y-79499999D01*
X162088457Y-79499999D02*
X162231314Y-79571428D01*
X162231314Y-79571428D02*
X162302742Y-79642857D01*
X162302742Y-79642857D02*
X162374171Y-79785714D01*
X162231314Y-80857142D02*
X162302742Y-80928570D01*
X162302742Y-80928570D02*
X162374171Y-81071428D01*
X162374171Y-81071428D02*
X162374171Y-81428570D01*
X162374171Y-81428570D02*
X162302742Y-81571428D01*
X162302742Y-81571428D02*
X162231314Y-81642856D01*
X162231314Y-81642856D02*
X162088457Y-81714285D01*
X162088457Y-81714285D02*
X161945600Y-81714285D01*
X161945600Y-81714285D02*
X161731314Y-81642856D01*
X161731314Y-81642856D02*
X160874171Y-80785713D01*
X160874171Y-80785713D02*
X160874171Y-81714285D01*
X162374171Y-82999999D02*
X162374171Y-82714284D01*
X162374171Y-82714284D02*
X162302742Y-82571427D01*
X162302742Y-82571427D02*
X162231314Y-82499999D01*
X162231314Y-82499999D02*
X162017028Y-82357141D01*
X162017028Y-82357141D02*
X161731314Y-82285713D01*
X161731314Y-82285713D02*
X161159885Y-82285713D01*
X161159885Y-82285713D02*
X161017028Y-82357141D01*
X161017028Y-82357141D02*
X160945600Y-82428570D01*
X160945600Y-82428570D02*
X160874171Y-82571427D01*
X160874171Y-82571427D02*
X160874171Y-82857141D01*
X160874171Y-82857141D02*
X160945600Y-82999999D01*
X160945600Y-82999999D02*
X161017028Y-83071427D01*
X161017028Y-83071427D02*
X161159885Y-83142856D01*
X161159885Y-83142856D02*
X161517028Y-83142856D01*
X161517028Y-83142856D02*
X161659885Y-83071427D01*
X161659885Y-83071427D02*
X161731314Y-82999999D01*
X161731314Y-82999999D02*
X161802742Y-82857141D01*
X161802742Y-82857141D02*
X161802742Y-82571427D01*
X161802742Y-82571427D02*
X161731314Y-82428570D01*
X161731314Y-82428570D02*
X161659885Y-82357141D01*
X161659885Y-82357141D02*
X161517028Y-82285713D01*
D10*
X149117219Y-96305326D02*
X148117219Y-96305326D01*
X148117219Y-96305326D02*
X148117219Y-95924374D01*
X148117219Y-95924374D02*
X148164838Y-95829136D01*
X148164838Y-95829136D02*
X148212457Y-95781517D01*
X148212457Y-95781517D02*
X148307695Y-95733898D01*
X148307695Y-95733898D02*
X148450552Y-95733898D01*
X148450552Y-95733898D02*
X148545790Y-95781517D01*
X148545790Y-95781517D02*
X148593409Y-95829136D01*
X148593409Y-95829136D02*
X148641028Y-95924374D01*
X148641028Y-95924374D02*
X148641028Y-96305326D01*
X149117219Y-95305326D02*
X148450552Y-95305326D01*
X148641028Y-95305326D02*
X148545790Y-95257707D01*
X148545790Y-95257707D02*
X148498171Y-95210088D01*
X148498171Y-95210088D02*
X148450552Y-95114850D01*
X148450552Y-95114850D02*
X148450552Y-95019612D01*
X149117219Y-94543421D02*
X149069600Y-94638659D01*
X149069600Y-94638659D02*
X149021980Y-94686278D01*
X149021980Y-94686278D02*
X148926742Y-94733897D01*
X148926742Y-94733897D02*
X148641028Y-94733897D01*
X148641028Y-94733897D02*
X148545790Y-94686278D01*
X148545790Y-94686278D02*
X148498171Y-94638659D01*
X148498171Y-94638659D02*
X148450552Y-94543421D01*
X148450552Y-94543421D02*
X148450552Y-94400564D01*
X148450552Y-94400564D02*
X148498171Y-94305326D01*
X148498171Y-94305326D02*
X148545790Y-94257707D01*
X148545790Y-94257707D02*
X148641028Y-94210088D01*
X148641028Y-94210088D02*
X148926742Y-94210088D01*
X148926742Y-94210088D02*
X149021980Y-94257707D01*
X149021980Y-94257707D02*
X149069600Y-94305326D01*
X149069600Y-94305326D02*
X149117219Y-94400564D01*
X149117219Y-94400564D02*
X149117219Y-94543421D01*
X148450552Y-93352945D02*
X149260076Y-93352945D01*
X149260076Y-93352945D02*
X149355314Y-93400564D01*
X149355314Y-93400564D02*
X149402933Y-93448183D01*
X149402933Y-93448183D02*
X149450552Y-93543421D01*
X149450552Y-93543421D02*
X149450552Y-93686278D01*
X149450552Y-93686278D02*
X149402933Y-93781516D01*
X149069600Y-93352945D02*
X149117219Y-93448183D01*
X149117219Y-93448183D02*
X149117219Y-93638659D01*
X149117219Y-93638659D02*
X149069600Y-93733897D01*
X149069600Y-93733897D02*
X149021980Y-93781516D01*
X149021980Y-93781516D02*
X148926742Y-93829135D01*
X148926742Y-93829135D02*
X148641028Y-93829135D01*
X148641028Y-93829135D02*
X148545790Y-93781516D01*
X148545790Y-93781516D02*
X148498171Y-93733897D01*
X148498171Y-93733897D02*
X148450552Y-93638659D01*
X148450552Y-93638659D02*
X148450552Y-93448183D01*
X148450552Y-93448183D02*
X148498171Y-93352945D01*
D12*
X132927380Y-64256009D02*
X133260713Y-64256009D01*
X133403570Y-64779819D02*
X132927380Y-64779819D01*
X132927380Y-64779819D02*
X132927380Y-63779819D01*
X132927380Y-63779819D02*
X133403570Y-63779819D01*
X133832142Y-64779819D02*
X133832142Y-63779819D01*
X133832142Y-63779819D02*
X134403570Y-64779819D01*
X134403570Y-64779819D02*
X134403570Y-63779819D01*
X134641666Y-64875057D02*
X135403570Y-64875057D01*
X135641666Y-64779819D02*
X135641666Y-63779819D01*
X135641666Y-63779819D02*
X136022618Y-63779819D01*
X136022618Y-63779819D02*
X136117856Y-63827438D01*
X136117856Y-63827438D02*
X136165475Y-63875057D01*
X136165475Y-63875057D02*
X136213094Y-63970295D01*
X136213094Y-63970295D02*
X136213094Y-64113152D01*
X136213094Y-64113152D02*
X136165475Y-64208390D01*
X136165475Y-64208390D02*
X136117856Y-64256009D01*
X136117856Y-64256009D02*
X136022618Y-64303628D01*
X136022618Y-64303628D02*
X135641666Y-64303628D01*
X137070237Y-64113152D02*
X137070237Y-64779819D01*
X136641666Y-64113152D02*
X136641666Y-64636961D01*
X136641666Y-64636961D02*
X136689285Y-64732200D01*
X136689285Y-64732200D02*
X136784523Y-64779819D01*
X136784523Y-64779819D02*
X136927380Y-64779819D01*
X136927380Y-64779819D02*
X137022618Y-64732200D01*
X137022618Y-64732200D02*
X137070237Y-64684580D01*
X137689285Y-64779819D02*
X137594047Y-64732200D01*
X137594047Y-64732200D02*
X137546428Y-64636961D01*
X137546428Y-64636961D02*
X137546428Y-63779819D01*
X138213095Y-64779819D02*
X138117857Y-64732200D01*
X138117857Y-64732200D02*
X138070238Y-64636961D01*
X138070238Y-64636961D02*
X138070238Y-63779819D01*
X138594048Y-63779819D02*
X138594048Y-64589342D01*
X138594048Y-64589342D02*
X138641667Y-64684580D01*
X138641667Y-64684580D02*
X138689286Y-64732200D01*
X138689286Y-64732200D02*
X138784524Y-64779819D01*
X138784524Y-64779819D02*
X138975000Y-64779819D01*
X138975000Y-64779819D02*
X139070238Y-64732200D01*
X139070238Y-64732200D02*
X139117857Y-64684580D01*
X139117857Y-64684580D02*
X139165476Y-64589342D01*
X139165476Y-64589342D02*
X139165476Y-63779819D01*
X139641667Y-64113152D02*
X139641667Y-65113152D01*
X139641667Y-64160771D02*
X139736905Y-64113152D01*
X139736905Y-64113152D02*
X139927381Y-64113152D01*
X139927381Y-64113152D02*
X140022619Y-64160771D01*
X140022619Y-64160771D02*
X140070238Y-64208390D01*
X140070238Y-64208390D02*
X140117857Y-64303628D01*
X140117857Y-64303628D02*
X140117857Y-64589342D01*
X140117857Y-64589342D02*
X140070238Y-64684580D01*
X140070238Y-64684580D02*
X140022619Y-64732200D01*
X140022619Y-64732200D02*
X139927381Y-64779819D01*
X139927381Y-64779819D02*
X139736905Y-64779819D01*
X139736905Y-64779819D02*
X139641667Y-64732200D01*
X141070238Y-64779819D02*
X140498810Y-64779819D01*
X140784524Y-64779819D02*
X140784524Y-63779819D01*
X140784524Y-63779819D02*
X140689286Y-63922676D01*
X140689286Y-63922676D02*
X140594048Y-64017914D01*
X140594048Y-64017914D02*
X140498810Y-64065533D01*
X143608333Y-64984580D02*
X143560714Y-65032200D01*
X143560714Y-65032200D02*
X143417857Y-65079819D01*
X143417857Y-65079819D02*
X143322619Y-65079819D01*
X143322619Y-65079819D02*
X143179762Y-65032200D01*
X143179762Y-65032200D02*
X143084524Y-64936961D01*
X143084524Y-64936961D02*
X143036905Y-64841723D01*
X143036905Y-64841723D02*
X142989286Y-64651247D01*
X142989286Y-64651247D02*
X142989286Y-64508390D01*
X142989286Y-64508390D02*
X143036905Y-64317914D01*
X143036905Y-64317914D02*
X143084524Y-64222676D01*
X143084524Y-64222676D02*
X143179762Y-64127438D01*
X143179762Y-64127438D02*
X143322619Y-64079819D01*
X143322619Y-64079819D02*
X143417857Y-64079819D01*
X143417857Y-64079819D02*
X143560714Y-64127438D01*
X143560714Y-64127438D02*
X143608333Y-64175057D01*
X144513095Y-64079819D02*
X144036905Y-64079819D01*
X144036905Y-64079819D02*
X143989286Y-64556009D01*
X143989286Y-64556009D02*
X144036905Y-64508390D01*
X144036905Y-64508390D02*
X144132143Y-64460771D01*
X144132143Y-64460771D02*
X144370238Y-64460771D01*
X144370238Y-64460771D02*
X144465476Y-64508390D01*
X144465476Y-64508390D02*
X144513095Y-64556009D01*
X144513095Y-64556009D02*
X144560714Y-64651247D01*
X144560714Y-64651247D02*
X144560714Y-64889342D01*
X144560714Y-64889342D02*
X144513095Y-64984580D01*
X144513095Y-64984580D02*
X144465476Y-65032200D01*
X144465476Y-65032200D02*
X144370238Y-65079819D01*
X144370238Y-65079819D02*
X144132143Y-65079819D01*
X144132143Y-65079819D02*
X144036905Y-65032200D01*
X144036905Y-65032200D02*
X143989286Y-64984580D01*
X132854819Y-60738094D02*
X131854819Y-60738094D01*
X131854819Y-60738094D02*
X131854819Y-60499999D01*
X131854819Y-60499999D02*
X131902438Y-60357142D01*
X131902438Y-60357142D02*
X131997676Y-60261904D01*
X131997676Y-60261904D02*
X132092914Y-60214285D01*
X132092914Y-60214285D02*
X132283390Y-60166666D01*
X132283390Y-60166666D02*
X132426247Y-60166666D01*
X132426247Y-60166666D02*
X132616723Y-60214285D01*
X132616723Y-60214285D02*
X132711961Y-60261904D01*
X132711961Y-60261904D02*
X132807200Y-60357142D01*
X132807200Y-60357142D02*
X132854819Y-60499999D01*
X132854819Y-60499999D02*
X132854819Y-60738094D01*
X131950057Y-59785713D02*
X131902438Y-59738094D01*
X131902438Y-59738094D02*
X131854819Y-59642856D01*
X131854819Y-59642856D02*
X131854819Y-59404761D01*
X131854819Y-59404761D02*
X131902438Y-59309523D01*
X131902438Y-59309523D02*
X131950057Y-59261904D01*
X131950057Y-59261904D02*
X132045295Y-59214285D01*
X132045295Y-59214285D02*
X132140533Y-59214285D01*
X132140533Y-59214285D02*
X132283390Y-59261904D01*
X132283390Y-59261904D02*
X132854819Y-59833332D01*
X132854819Y-59833332D02*
X132854819Y-59214285D01*
X161290476Y-106354819D02*
X161290476Y-105354819D01*
X161290476Y-105354819D02*
X161623809Y-106069104D01*
X161623809Y-106069104D02*
X161957142Y-105354819D01*
X161957142Y-105354819D02*
X161957142Y-106354819D01*
X162338095Y-105354819D02*
X162957142Y-105354819D01*
X162957142Y-105354819D02*
X162623809Y-105735771D01*
X162623809Y-105735771D02*
X162766666Y-105735771D01*
X162766666Y-105735771D02*
X162861904Y-105783390D01*
X162861904Y-105783390D02*
X162909523Y-105831009D01*
X162909523Y-105831009D02*
X162957142Y-105926247D01*
X162957142Y-105926247D02*
X162957142Y-106164342D01*
X162957142Y-106164342D02*
X162909523Y-106259580D01*
X162909523Y-106259580D02*
X162861904Y-106307200D01*
X162861904Y-106307200D02*
X162766666Y-106354819D01*
X162766666Y-106354819D02*
X162480952Y-106354819D01*
X162480952Y-106354819D02*
X162385714Y-106307200D01*
X162385714Y-106307200D02*
X162338095Y-106259580D01*
X133924999Y-105954819D02*
X134115475Y-105954819D01*
X134115475Y-105954819D02*
X134210713Y-106002438D01*
X134210713Y-106002438D02*
X134305951Y-106097676D01*
X134305951Y-106097676D02*
X134353570Y-106288152D01*
X134353570Y-106288152D02*
X134353570Y-106621485D01*
X134353570Y-106621485D02*
X134305951Y-106811961D01*
X134305951Y-106811961D02*
X134210713Y-106907200D01*
X134210713Y-106907200D02*
X134115475Y-106954819D01*
X134115475Y-106954819D02*
X133924999Y-106954819D01*
X133924999Y-106954819D02*
X133829761Y-106907200D01*
X133829761Y-106907200D02*
X133734523Y-106811961D01*
X133734523Y-106811961D02*
X133686904Y-106621485D01*
X133686904Y-106621485D02*
X133686904Y-106288152D01*
X133686904Y-106288152D02*
X133734523Y-106097676D01*
X133734523Y-106097676D02*
X133829761Y-106002438D01*
X133829761Y-106002438D02*
X133924999Y-105954819D01*
X135210713Y-106288152D02*
X135210713Y-106954819D01*
X134782142Y-106288152D02*
X134782142Y-106811961D01*
X134782142Y-106811961D02*
X134829761Y-106907200D01*
X134829761Y-106907200D02*
X134924999Y-106954819D01*
X134924999Y-106954819D02*
X135067856Y-106954819D01*
X135067856Y-106954819D02*
X135163094Y-106907200D01*
X135163094Y-106907200D02*
X135210713Y-106859580D01*
X135544047Y-106288152D02*
X135924999Y-106288152D01*
X135686904Y-105954819D02*
X135686904Y-106811961D01*
X135686904Y-106811961D02*
X135734523Y-106907200D01*
X135734523Y-106907200D02*
X135829761Y-106954819D01*
X135829761Y-106954819D02*
X135924999Y-106954819D01*
X136258333Y-106288152D02*
X136258333Y-107288152D01*
X136258333Y-106335771D02*
X136353571Y-106288152D01*
X136353571Y-106288152D02*
X136544047Y-106288152D01*
X136544047Y-106288152D02*
X136639285Y-106335771D01*
X136639285Y-106335771D02*
X136686904Y-106383390D01*
X136686904Y-106383390D02*
X136734523Y-106478628D01*
X136734523Y-106478628D02*
X136734523Y-106764342D01*
X136734523Y-106764342D02*
X136686904Y-106859580D01*
X136686904Y-106859580D02*
X136639285Y-106907200D01*
X136639285Y-106907200D02*
X136544047Y-106954819D01*
X136544047Y-106954819D02*
X136353571Y-106954819D01*
X136353571Y-106954819D02*
X136258333Y-106907200D01*
X137591666Y-106288152D02*
X137591666Y-106954819D01*
X137163095Y-106288152D02*
X137163095Y-106811961D01*
X137163095Y-106811961D02*
X137210714Y-106907200D01*
X137210714Y-106907200D02*
X137305952Y-106954819D01*
X137305952Y-106954819D02*
X137448809Y-106954819D01*
X137448809Y-106954819D02*
X137544047Y-106907200D01*
X137544047Y-106907200D02*
X137591666Y-106859580D01*
X137925000Y-106288152D02*
X138305952Y-106288152D01*
X138067857Y-105954819D02*
X138067857Y-106811961D01*
X138067857Y-106811961D02*
X138115476Y-106907200D01*
X138115476Y-106907200D02*
X138210714Y-106954819D01*
X138210714Y-106954819D02*
X138305952Y-106954819D01*
X139163095Y-106954819D02*
X138591667Y-106954819D01*
X138877381Y-106954819D02*
X138877381Y-105954819D01*
X138877381Y-105954819D02*
X138782143Y-106097676D01*
X138782143Y-106097676D02*
X138686905Y-106192914D01*
X138686905Y-106192914D02*
X138591667Y-106240533D01*
X144854819Y-98011904D02*
X145664342Y-98011904D01*
X145664342Y-98011904D02*
X145759580Y-97964285D01*
X145759580Y-97964285D02*
X145807200Y-97916666D01*
X145807200Y-97916666D02*
X145854819Y-97821428D01*
X145854819Y-97821428D02*
X145854819Y-97630952D01*
X145854819Y-97630952D02*
X145807200Y-97535714D01*
X145807200Y-97535714D02*
X145759580Y-97488095D01*
X145759580Y-97488095D02*
X145664342Y-97440476D01*
X145664342Y-97440476D02*
X144854819Y-97440476D01*
X144854819Y-97059523D02*
X144854819Y-96440476D01*
X144854819Y-96440476D02*
X145235771Y-96773809D01*
X145235771Y-96773809D02*
X145235771Y-96630952D01*
X145235771Y-96630952D02*
X145283390Y-96535714D01*
X145283390Y-96535714D02*
X145331009Y-96488095D01*
X145331009Y-96488095D02*
X145426247Y-96440476D01*
X145426247Y-96440476D02*
X145664342Y-96440476D01*
X145664342Y-96440476D02*
X145759580Y-96488095D01*
X145759580Y-96488095D02*
X145807200Y-96535714D01*
X145807200Y-96535714D02*
X145854819Y-96630952D01*
X145854819Y-96630952D02*
X145854819Y-96916666D01*
X145854819Y-96916666D02*
X145807200Y-97011904D01*
X145807200Y-97011904D02*
X145759580Y-97059523D01*
X143839285Y-101829819D02*
X143505952Y-101353628D01*
X143267857Y-101829819D02*
X143267857Y-100829819D01*
X143267857Y-100829819D02*
X143648809Y-100829819D01*
X143648809Y-100829819D02*
X143744047Y-100877438D01*
X143744047Y-100877438D02*
X143791666Y-100925057D01*
X143791666Y-100925057D02*
X143839285Y-101020295D01*
X143839285Y-101020295D02*
X143839285Y-101163152D01*
X143839285Y-101163152D02*
X143791666Y-101258390D01*
X143791666Y-101258390D02*
X143744047Y-101306009D01*
X143744047Y-101306009D02*
X143648809Y-101353628D01*
X143648809Y-101353628D02*
X143267857Y-101353628D01*
X144220238Y-101782200D02*
X144363095Y-101829819D01*
X144363095Y-101829819D02*
X144601190Y-101829819D01*
X144601190Y-101829819D02*
X144696428Y-101782200D01*
X144696428Y-101782200D02*
X144744047Y-101734580D01*
X144744047Y-101734580D02*
X144791666Y-101639342D01*
X144791666Y-101639342D02*
X144791666Y-101544104D01*
X144791666Y-101544104D02*
X144744047Y-101448866D01*
X144744047Y-101448866D02*
X144696428Y-101401247D01*
X144696428Y-101401247D02*
X144601190Y-101353628D01*
X144601190Y-101353628D02*
X144410714Y-101306009D01*
X144410714Y-101306009D02*
X144315476Y-101258390D01*
X144315476Y-101258390D02*
X144267857Y-101210771D01*
X144267857Y-101210771D02*
X144220238Y-101115533D01*
X144220238Y-101115533D02*
X144220238Y-101020295D01*
X144220238Y-101020295D02*
X144267857Y-100925057D01*
X144267857Y-100925057D02*
X144315476Y-100877438D01*
X144315476Y-100877438D02*
X144410714Y-100829819D01*
X144410714Y-100829819D02*
X144648809Y-100829819D01*
X144648809Y-100829819D02*
X144791666Y-100877438D01*
X145220238Y-101829819D02*
X145220238Y-100829819D01*
X145648809Y-101829819D02*
X145648809Y-101306009D01*
X145648809Y-101306009D02*
X145601190Y-101210771D01*
X145601190Y-101210771D02*
X145505952Y-101163152D01*
X145505952Y-101163152D02*
X145363095Y-101163152D01*
X145363095Y-101163152D02*
X145267857Y-101210771D01*
X145267857Y-101210771D02*
X145220238Y-101258390D01*
X146553571Y-101163152D02*
X146553571Y-101829819D01*
X146125000Y-101163152D02*
X146125000Y-101686961D01*
X146125000Y-101686961D02*
X146172619Y-101782200D01*
X146172619Y-101782200D02*
X146267857Y-101829819D01*
X146267857Y-101829819D02*
X146410714Y-101829819D01*
X146410714Y-101829819D02*
X146505952Y-101782200D01*
X146505952Y-101782200D02*
X146553571Y-101734580D01*
X147029762Y-101163152D02*
X147029762Y-101829819D01*
X147029762Y-101258390D02*
X147077381Y-101210771D01*
X147077381Y-101210771D02*
X147172619Y-101163152D01*
X147172619Y-101163152D02*
X147315476Y-101163152D01*
X147315476Y-101163152D02*
X147410714Y-101210771D01*
X147410714Y-101210771D02*
X147458333Y-101306009D01*
X147458333Y-101306009D02*
X147458333Y-101829819D01*
X147791667Y-101163152D02*
X148172619Y-101163152D01*
X147934524Y-100829819D02*
X147934524Y-101686961D01*
X147934524Y-101686961D02*
X147982143Y-101782200D01*
X147982143Y-101782200D02*
X148077381Y-101829819D01*
X148077381Y-101829819D02*
X148172619Y-101829819D01*
X149029762Y-101829819D02*
X148458334Y-101829819D01*
X148744048Y-101829819D02*
X148744048Y-100829819D01*
X148744048Y-100829819D02*
X148648810Y-100972676D01*
X148648810Y-100972676D02*
X148553572Y-101067914D01*
X148553572Y-101067914D02*
X148458334Y-101115533D01*
X136454819Y-90666666D02*
X135978628Y-90999999D01*
X136454819Y-91238094D02*
X135454819Y-91238094D01*
X135454819Y-91238094D02*
X135454819Y-90857142D01*
X135454819Y-90857142D02*
X135502438Y-90761904D01*
X135502438Y-90761904D02*
X135550057Y-90714285D01*
X135550057Y-90714285D02*
X135645295Y-90666666D01*
X135645295Y-90666666D02*
X135788152Y-90666666D01*
X135788152Y-90666666D02*
X135883390Y-90714285D01*
X135883390Y-90714285D02*
X135931009Y-90761904D01*
X135931009Y-90761904D02*
X135978628Y-90857142D01*
X135978628Y-90857142D02*
X135978628Y-91238094D01*
X136454819Y-89714285D02*
X136454819Y-90285713D01*
X136454819Y-89999999D02*
X135454819Y-89999999D01*
X135454819Y-89999999D02*
X135597676Y-90095237D01*
X135597676Y-90095237D02*
X135692914Y-90190475D01*
X135692914Y-90190475D02*
X135740533Y-90285713D01*
X138554819Y-90666666D02*
X138078628Y-90999999D01*
X138554819Y-91238094D02*
X137554819Y-91238094D01*
X137554819Y-91238094D02*
X137554819Y-90857142D01*
X137554819Y-90857142D02*
X137602438Y-90761904D01*
X137602438Y-90761904D02*
X137650057Y-90714285D01*
X137650057Y-90714285D02*
X137745295Y-90666666D01*
X137745295Y-90666666D02*
X137888152Y-90666666D01*
X137888152Y-90666666D02*
X137983390Y-90714285D01*
X137983390Y-90714285D02*
X138031009Y-90761904D01*
X138031009Y-90761904D02*
X138078628Y-90857142D01*
X138078628Y-90857142D02*
X138078628Y-91238094D01*
X137650057Y-90285713D02*
X137602438Y-90238094D01*
X137602438Y-90238094D02*
X137554819Y-90142856D01*
X137554819Y-90142856D02*
X137554819Y-89904761D01*
X137554819Y-89904761D02*
X137602438Y-89809523D01*
X137602438Y-89809523D02*
X137650057Y-89761904D01*
X137650057Y-89761904D02*
X137745295Y-89714285D01*
X137745295Y-89714285D02*
X137840533Y-89714285D01*
X137840533Y-89714285D02*
X137983390Y-89761904D01*
X137983390Y-89761904D02*
X138554819Y-90333332D01*
X138554819Y-90333332D02*
X138554819Y-89714285D01*
X130654819Y-78666666D02*
X130178628Y-78999999D01*
X130654819Y-79238094D02*
X129654819Y-79238094D01*
X129654819Y-79238094D02*
X129654819Y-78857142D01*
X129654819Y-78857142D02*
X129702438Y-78761904D01*
X129702438Y-78761904D02*
X129750057Y-78714285D01*
X129750057Y-78714285D02*
X129845295Y-78666666D01*
X129845295Y-78666666D02*
X129988152Y-78666666D01*
X129988152Y-78666666D02*
X130083390Y-78714285D01*
X130083390Y-78714285D02*
X130131009Y-78761904D01*
X130131009Y-78761904D02*
X130178628Y-78857142D01*
X130178628Y-78857142D02*
X130178628Y-79238094D01*
X129654819Y-78333332D02*
X129654819Y-77714285D01*
X129654819Y-77714285D02*
X130035771Y-78047618D01*
X130035771Y-78047618D02*
X130035771Y-77904761D01*
X130035771Y-77904761D02*
X130083390Y-77809523D01*
X130083390Y-77809523D02*
X130131009Y-77761904D01*
X130131009Y-77761904D02*
X130226247Y-77714285D01*
X130226247Y-77714285D02*
X130464342Y-77714285D01*
X130464342Y-77714285D02*
X130559580Y-77761904D01*
X130559580Y-77761904D02*
X130607200Y-77809523D01*
X130607200Y-77809523D02*
X130654819Y-77904761D01*
X130654819Y-77904761D02*
X130654819Y-78190475D01*
X130654819Y-78190475D02*
X130607200Y-78285713D01*
X130607200Y-78285713D02*
X130559580Y-78333332D01*
X151108333Y-63859580D02*
X151060714Y-63907200D01*
X151060714Y-63907200D02*
X150917857Y-63954819D01*
X150917857Y-63954819D02*
X150822619Y-63954819D01*
X150822619Y-63954819D02*
X150679762Y-63907200D01*
X150679762Y-63907200D02*
X150584524Y-63811961D01*
X150584524Y-63811961D02*
X150536905Y-63716723D01*
X150536905Y-63716723D02*
X150489286Y-63526247D01*
X150489286Y-63526247D02*
X150489286Y-63383390D01*
X150489286Y-63383390D02*
X150536905Y-63192914D01*
X150536905Y-63192914D02*
X150584524Y-63097676D01*
X150584524Y-63097676D02*
X150679762Y-63002438D01*
X150679762Y-63002438D02*
X150822619Y-62954819D01*
X150822619Y-62954819D02*
X150917857Y-62954819D01*
X150917857Y-62954819D02*
X151060714Y-63002438D01*
X151060714Y-63002438D02*
X151108333Y-63050057D01*
X151441667Y-62954819D02*
X152060714Y-62954819D01*
X152060714Y-62954819D02*
X151727381Y-63335771D01*
X151727381Y-63335771D02*
X151870238Y-63335771D01*
X151870238Y-63335771D02*
X151965476Y-63383390D01*
X151965476Y-63383390D02*
X152013095Y-63431009D01*
X152013095Y-63431009D02*
X152060714Y-63526247D01*
X152060714Y-63526247D02*
X152060714Y-63764342D01*
X152060714Y-63764342D02*
X152013095Y-63859580D01*
X152013095Y-63859580D02*
X151965476Y-63907200D01*
X151965476Y-63907200D02*
X151870238Y-63954819D01*
X151870238Y-63954819D02*
X151584524Y-63954819D01*
X151584524Y-63954819D02*
X151489286Y-63907200D01*
X151489286Y-63907200D02*
X151441667Y-63859580D01*
X131454819Y-40714286D02*
X130978628Y-41047619D01*
X131454819Y-41285714D02*
X130454819Y-41285714D01*
X130454819Y-41285714D02*
X130454819Y-40904762D01*
X130454819Y-40904762D02*
X130502438Y-40809524D01*
X130502438Y-40809524D02*
X130550057Y-40761905D01*
X130550057Y-40761905D02*
X130645295Y-40714286D01*
X130645295Y-40714286D02*
X130788152Y-40714286D01*
X130788152Y-40714286D02*
X130883390Y-40761905D01*
X130883390Y-40761905D02*
X130931009Y-40809524D01*
X130931009Y-40809524D02*
X130978628Y-40904762D01*
X130978628Y-40904762D02*
X130978628Y-41285714D01*
X131407200Y-39904762D02*
X131454819Y-40000000D01*
X131454819Y-40000000D02*
X131454819Y-40190476D01*
X131454819Y-40190476D02*
X131407200Y-40285714D01*
X131407200Y-40285714D02*
X131311961Y-40333333D01*
X131311961Y-40333333D02*
X130931009Y-40333333D01*
X130931009Y-40333333D02*
X130835771Y-40285714D01*
X130835771Y-40285714D02*
X130788152Y-40190476D01*
X130788152Y-40190476D02*
X130788152Y-40000000D01*
X130788152Y-40000000D02*
X130835771Y-39904762D01*
X130835771Y-39904762D02*
X130931009Y-39857143D01*
X130931009Y-39857143D02*
X131026247Y-39857143D01*
X131026247Y-39857143D02*
X131121485Y-40333333D01*
X131407200Y-39476190D02*
X131454819Y-39380952D01*
X131454819Y-39380952D02*
X131454819Y-39190476D01*
X131454819Y-39190476D02*
X131407200Y-39095238D01*
X131407200Y-39095238D02*
X131311961Y-39047619D01*
X131311961Y-39047619D02*
X131264342Y-39047619D01*
X131264342Y-39047619D02*
X131169104Y-39095238D01*
X131169104Y-39095238D02*
X131121485Y-39190476D01*
X131121485Y-39190476D02*
X131121485Y-39333333D01*
X131121485Y-39333333D02*
X131073866Y-39428571D01*
X131073866Y-39428571D02*
X130978628Y-39476190D01*
X130978628Y-39476190D02*
X130931009Y-39476190D01*
X130931009Y-39476190D02*
X130835771Y-39428571D01*
X130835771Y-39428571D02*
X130788152Y-39333333D01*
X130788152Y-39333333D02*
X130788152Y-39190476D01*
X130788152Y-39190476D02*
X130835771Y-39095238D01*
X131407200Y-38238095D02*
X131454819Y-38333333D01*
X131454819Y-38333333D02*
X131454819Y-38523809D01*
X131454819Y-38523809D02*
X131407200Y-38619047D01*
X131407200Y-38619047D02*
X131311961Y-38666666D01*
X131311961Y-38666666D02*
X130931009Y-38666666D01*
X130931009Y-38666666D02*
X130835771Y-38619047D01*
X130835771Y-38619047D02*
X130788152Y-38523809D01*
X130788152Y-38523809D02*
X130788152Y-38333333D01*
X130788152Y-38333333D02*
X130835771Y-38238095D01*
X130835771Y-38238095D02*
X130931009Y-38190476D01*
X130931009Y-38190476D02*
X131026247Y-38190476D01*
X131026247Y-38190476D02*
X131121485Y-38666666D01*
X130788152Y-37904761D02*
X130788152Y-37523809D01*
X130454819Y-37761904D02*
X131311961Y-37761904D01*
X131311961Y-37761904D02*
X131407200Y-37714285D01*
X131407200Y-37714285D02*
X131454819Y-37619047D01*
X131454819Y-37619047D02*
X131454819Y-37523809D01*
X131454819Y-36666666D02*
X131454819Y-37238094D01*
X131454819Y-36952380D02*
X130454819Y-36952380D01*
X130454819Y-36952380D02*
X130597676Y-37047618D01*
X130597676Y-37047618D02*
X130692914Y-37142856D01*
X130692914Y-37142856D02*
X130740533Y-37238094D01*
X160131009Y-40295238D02*
X160178628Y-40152381D01*
X160178628Y-40152381D02*
X160226247Y-40104762D01*
X160226247Y-40104762D02*
X160321485Y-40057143D01*
X160321485Y-40057143D02*
X160464342Y-40057143D01*
X160464342Y-40057143D02*
X160559580Y-40104762D01*
X160559580Y-40104762D02*
X160607200Y-40152381D01*
X160607200Y-40152381D02*
X160654819Y-40247619D01*
X160654819Y-40247619D02*
X160654819Y-40628571D01*
X160654819Y-40628571D02*
X159654819Y-40628571D01*
X159654819Y-40628571D02*
X159654819Y-40295238D01*
X159654819Y-40295238D02*
X159702438Y-40200000D01*
X159702438Y-40200000D02*
X159750057Y-40152381D01*
X159750057Y-40152381D02*
X159845295Y-40104762D01*
X159845295Y-40104762D02*
X159940533Y-40104762D01*
X159940533Y-40104762D02*
X160035771Y-40152381D01*
X160035771Y-40152381D02*
X160083390Y-40200000D01*
X160083390Y-40200000D02*
X160131009Y-40295238D01*
X160131009Y-40295238D02*
X160131009Y-40628571D01*
X160654819Y-39485714D02*
X160607200Y-39580952D01*
X160607200Y-39580952D02*
X160559580Y-39628571D01*
X160559580Y-39628571D02*
X160464342Y-39676190D01*
X160464342Y-39676190D02*
X160178628Y-39676190D01*
X160178628Y-39676190D02*
X160083390Y-39628571D01*
X160083390Y-39628571D02*
X160035771Y-39580952D01*
X160035771Y-39580952D02*
X159988152Y-39485714D01*
X159988152Y-39485714D02*
X159988152Y-39342857D01*
X159988152Y-39342857D02*
X160035771Y-39247619D01*
X160035771Y-39247619D02*
X160083390Y-39200000D01*
X160083390Y-39200000D02*
X160178628Y-39152381D01*
X160178628Y-39152381D02*
X160464342Y-39152381D01*
X160464342Y-39152381D02*
X160559580Y-39200000D01*
X160559580Y-39200000D02*
X160607200Y-39247619D01*
X160607200Y-39247619D02*
X160654819Y-39342857D01*
X160654819Y-39342857D02*
X160654819Y-39485714D01*
X160654819Y-38580952D02*
X160607200Y-38676190D01*
X160607200Y-38676190D02*
X160559580Y-38723809D01*
X160559580Y-38723809D02*
X160464342Y-38771428D01*
X160464342Y-38771428D02*
X160178628Y-38771428D01*
X160178628Y-38771428D02*
X160083390Y-38723809D01*
X160083390Y-38723809D02*
X160035771Y-38676190D01*
X160035771Y-38676190D02*
X159988152Y-38580952D01*
X159988152Y-38580952D02*
X159988152Y-38438095D01*
X159988152Y-38438095D02*
X160035771Y-38342857D01*
X160035771Y-38342857D02*
X160083390Y-38295238D01*
X160083390Y-38295238D02*
X160178628Y-38247619D01*
X160178628Y-38247619D02*
X160464342Y-38247619D01*
X160464342Y-38247619D02*
X160559580Y-38295238D01*
X160559580Y-38295238D02*
X160607200Y-38342857D01*
X160607200Y-38342857D02*
X160654819Y-38438095D01*
X160654819Y-38438095D02*
X160654819Y-38580952D01*
X159988152Y-37961904D02*
X159988152Y-37580952D01*
X159654819Y-37819047D02*
X160511961Y-37819047D01*
X160511961Y-37819047D02*
X160607200Y-37771428D01*
X160607200Y-37771428D02*
X160654819Y-37676190D01*
X160654819Y-37676190D02*
X160654819Y-37580952D01*
X160654819Y-36723809D02*
X160654819Y-37295237D01*
X160654819Y-37009523D02*
X159654819Y-37009523D01*
X159654819Y-37009523D02*
X159797676Y-37104761D01*
X159797676Y-37104761D02*
X159892914Y-37199999D01*
X159892914Y-37199999D02*
X159940533Y-37295237D01*
X136261905Y-49954819D02*
X136261905Y-48954819D01*
X136261905Y-48954819D02*
X136500000Y-48954819D01*
X136500000Y-48954819D02*
X136642857Y-49002438D01*
X136642857Y-49002438D02*
X136738095Y-49097676D01*
X136738095Y-49097676D02*
X136785714Y-49192914D01*
X136785714Y-49192914D02*
X136833333Y-49383390D01*
X136833333Y-49383390D02*
X136833333Y-49526247D01*
X136833333Y-49526247D02*
X136785714Y-49716723D01*
X136785714Y-49716723D02*
X136738095Y-49811961D01*
X136738095Y-49811961D02*
X136642857Y-49907200D01*
X136642857Y-49907200D02*
X136500000Y-49954819D01*
X136500000Y-49954819D02*
X136261905Y-49954819D01*
X137785714Y-49954819D02*
X137214286Y-49954819D01*
X137500000Y-49954819D02*
X137500000Y-48954819D01*
X137500000Y-48954819D02*
X137404762Y-49097676D01*
X137404762Y-49097676D02*
X137309524Y-49192914D01*
X137309524Y-49192914D02*
X137214286Y-49240533D01*
X136738095Y-43854819D02*
X136738095Y-42854819D01*
X137309523Y-43854819D02*
X136880952Y-43283390D01*
X137309523Y-42854819D02*
X136738095Y-43426247D01*
%TO.C,EN_PullUp1*%
D13*
X139945276Y-63322500D02*
X140454724Y-63322500D01*
X139945276Y-62277500D02*
X140454724Y-62277500D01*
%TO.C,C5*%
X143488748Y-63785000D02*
X144011252Y-63785000D01*
X143488748Y-62315000D02*
X144011252Y-62315000D01*
%TO.C,F1*%
D14*
X140100000Y-40050000D02*
X149100000Y-40050000D01*
X149100000Y-41950000D01*
X140100000Y-41950000D01*
X140100000Y-40050000D01*
%TO.C,U1*%
X136114000Y-50500000D02*
X153386000Y-50500000D01*
X153386000Y-62000000D01*
X136114000Y-62000000D01*
X136114000Y-50500000D01*
%TO.C,U2*%
D13*
X133900000Y-65800000D02*
X133900000Y-67300000D01*
X133900000Y-84200000D02*
X133900000Y-82700000D01*
X133900000Y-84200000D02*
X134900000Y-84200000D01*
X134900000Y-65800000D02*
X133900000Y-65800000D01*
X159750000Y-65800000D02*
X153550000Y-65800000D01*
X159750000Y-65800000D02*
X159750000Y-84200000D01*
X159750000Y-84200000D02*
X153550000Y-84200000D01*
X152875000Y-65800000D02*
X152875000Y-65300000D01*
X153375000Y-65800000D01*
X152875000Y-65800000D01*
G36*
X153375000Y-65800000D02*
G01*
X152875000Y-65800000D01*
X152875000Y-65300000D01*
X153375000Y-65800000D01*
G37*
%TO.C,D2*%
X134835000Y-59738748D02*
X134835000Y-60261252D01*
X133365000Y-59738748D02*
X133365000Y-60261252D01*
%TO.C,IO-0_PullUp1*%
X154697500Y-49254724D02*
X154697500Y-48745276D01*
X155742500Y-49254724D02*
X155742500Y-48745276D01*
%TO.C,Output1*%
X143225000Y-112762500D02*
X143665000Y-113372500D01*
X142785000Y-113372500D01*
X143225000Y-112762500D01*
G36*
X143665000Y-113372500D02*
G01*
X142785000Y-113372500D01*
X143225000Y-112762500D01*
X143665000Y-113372500D01*
G37*
X140105000Y-104722500D02*
X150845000Y-104722500D01*
X140105000Y-108342500D02*
X141345000Y-108342500D01*
X140105000Y-109342500D02*
X141345000Y-109342500D01*
X140105000Y-110642500D02*
X141345000Y-110642500D01*
X140105000Y-112762500D02*
X140105000Y-104722500D01*
X142925000Y-112762500D02*
X140105000Y-112762500D01*
X145105000Y-108342500D02*
X146413000Y-108342500D01*
X145105000Y-109342500D02*
X146413000Y-109342500D01*
X145105000Y-110642500D02*
X147682000Y-110642500D01*
X148768000Y-110642500D02*
X150845000Y-110642500D01*
X150037000Y-108342500D02*
X150845000Y-108342500D01*
X150037000Y-109342500D02*
X150845000Y-109342500D01*
X150845000Y-104722500D02*
X150845000Y-112762500D01*
X150845000Y-112762500D02*
X143525000Y-112762500D01*
%TO.C,U3*%
X141118494Y-95640000D02*
X141318494Y-95640000D01*
X141118494Y-98860000D02*
X141118494Y-95640000D01*
X141318494Y-98860000D02*
X141118494Y-98860000D01*
X144138494Y-95640000D02*
X144338494Y-95640000D01*
X144338494Y-95640000D02*
X144338494Y-98860000D01*
X144338494Y-98860000D02*
X144138494Y-98860000D01*
X144138494Y-95090000D02*
X144468494Y-94850000D01*
X144468494Y-95330000D01*
X144138494Y-95090000D01*
G36*
X144468494Y-95330000D02*
G01*
X144138494Y-95090000D01*
X144468494Y-94850000D01*
X144468494Y-95330000D01*
G37*
%TO.C,R1*%
X136000000Y-99180000D02*
X136000000Y-98230000D01*
X136000000Y-93440000D02*
X136000000Y-94390000D01*
X135080000Y-94390000D02*
X136920000Y-94390000D01*
X136920000Y-98230000D01*
X135080000Y-98230000D01*
X135080000Y-94390000D01*
%TO.C,R2*%
X138100000Y-99180000D02*
X138100000Y-98230000D01*
X138100000Y-93440000D02*
X138100000Y-94390000D01*
X137180000Y-94390000D02*
X139020000Y-94390000D01*
X139020000Y-98230000D01*
X137180000Y-98230000D01*
X137180000Y-94390000D01*
%TO.C,R3*%
X131327500Y-78737258D02*
X131327500Y-78262742D01*
X132372500Y-78737258D02*
X132372500Y-78262742D01*
%TO.C,Input1*%
X142925000Y-37937500D02*
X143365000Y-38547500D01*
X142485000Y-38547500D01*
X142925000Y-37937500D01*
G36*
X143365000Y-38547500D02*
G01*
X142485000Y-38547500D01*
X142925000Y-37937500D01*
X143365000Y-38547500D01*
G37*
X139805000Y-29897500D02*
X150545000Y-29897500D01*
X139805000Y-33517500D02*
X141045000Y-33517500D01*
X139805000Y-34517500D02*
X141045000Y-34517500D01*
X139805000Y-35817500D02*
X141045000Y-35817500D01*
X139805000Y-37937500D02*
X139805000Y-29897500D01*
X142625000Y-37937500D02*
X139805000Y-37937500D01*
X144805000Y-33517500D02*
X146113000Y-33517500D01*
X144805000Y-34517500D02*
X146113000Y-34517500D01*
X144805000Y-35817500D02*
X147382000Y-35817500D01*
X148468000Y-35817500D02*
X150545000Y-35817500D01*
X149737000Y-33517500D02*
X150545000Y-33517500D01*
X149737000Y-34517500D02*
X150545000Y-34517500D01*
X150545000Y-29897500D02*
X150545000Y-37937500D01*
X150545000Y-37937500D02*
X143225000Y-37937500D01*
%TO.C,C3*%
X148001248Y-62665000D02*
X148523752Y-62665000D01*
X148001248Y-64135000D02*
X148523752Y-64135000D01*
%TO.C,Reset1*%
X138664149Y-32734986D02*
X138229149Y-32734986D01*
X136629149Y-32734986D02*
X134229149Y-32734986D01*
X132629149Y-32734986D02*
X132194149Y-32734986D01*
X132194149Y-32734986D02*
X132194149Y-39154986D01*
X138664149Y-39154986D02*
X138664149Y-32734986D01*
X138229149Y-39154986D02*
X138664149Y-39154986D01*
X134229149Y-39154986D02*
X136629149Y-39154986D01*
X132194149Y-39154986D02*
X132499149Y-39154986D01*
%TO.C,Boot1*%
X158735000Y-32740000D02*
X158430000Y-32740000D01*
X156700000Y-32740000D02*
X154300000Y-32740000D01*
X152700000Y-32740000D02*
X152265000Y-32740000D01*
X152265000Y-32740000D02*
X152265000Y-39160000D01*
X158735000Y-39160000D02*
X158735000Y-32740000D01*
X158300000Y-39160000D02*
X158735000Y-39160000D01*
X154300000Y-39160000D02*
X156700000Y-39160000D01*
X152265000Y-39160000D02*
X152700000Y-39160000D01*
%TO.C,D1*%
X138840000Y-46000000D02*
X139750000Y-46000000D01*
X141175000Y-43280000D02*
X141175000Y-48720000D01*
X141295000Y-43280000D02*
X141295000Y-48720000D01*
X141415000Y-43280000D02*
X141415000Y-48720000D01*
X150400000Y-46000000D02*
X149490000Y-46000000D01*
X139750000Y-43280000D02*
X149490000Y-43280000D01*
X149490000Y-48720000D01*
X139750000Y-48720000D01*
X139750000Y-43280000D01*
%TO.C,U5*%
X152810000Y-100710000D02*
X151700000Y-100710000D01*
X152810000Y-99600000D02*
X152810000Y-100710000D01*
X152810000Y-98600000D02*
X152810000Y-85600000D01*
X152810000Y-98600000D02*
X150590000Y-98600000D01*
X152810000Y-85600000D02*
X150590000Y-85600000D01*
X150590000Y-98600000D02*
X150590000Y-85600000D01*
%TD*%
M02*
