%TF.GenerationSoftware,KiCad,Pcbnew,10.0.3*%
%TF.CreationDate,2026-08-14T13:03:02+01:00*%
%TF.ProjectId,Power_Monitor_V2,506f7765-725f-44d6-9f6e-69746f725f56,rev?*%
%TF.SameCoordinates,Original*%
%TF.FileFunction,Soldermask,Top*%
%TF.FilePolarity,Negative*%
%FSLAX46Y46*%
G04 Gerber Fmt 4.6, Leading zero omitted, Abs format (unit mm)*
G04 Created by KiCad (PCBNEW 10.0.3) date 2026-08-14 13:03:02*
%MOMM*%
%LPD*%
G01*
G04 APERTURE LIST*
G04 Aperture macros list*
%AMRoundRect*
0 Rectangle with rounded corners*
0 $1 Rounding radius*
0 $2 $3 $4 $5 $6 $7 $8 $9 X,Y pos of 4 corners*
0 Add a 4 corners polygon primitive as box body*
4,1,4,$2,$3,$4,$5,$6,$7,$8,$9,$2,$3,0*
0 Add four circle primitives for the rounded corners*
1,1,$1+$1,$2,$3*
1,1,$1+$1,$4,$5*
1,1,$1+$1,$6,$7*
1,1,$1+$1,$8,$9*
0 Add four rect primitives between the rounded corners*
20,1,$1+$1,$2,$3,$4,$5,0*
20,1,$1+$1,$4,$5,$6,$7,0*
20,1,$1+$1,$6,$7,$8,$9,0*
20,1,$1+$1,$8,$9,$2,$3,0*%
G04 Aperture macros list end*
%ADD10RoundRect,0.237500X-0.250000X-0.237500X0.250000X-0.237500X0.250000X0.237500X-0.250000X0.237500X0*%
%ADD11RoundRect,0.250000X-0.337500X-0.475000X0.337500X-0.475000X0.337500X0.475000X-0.337500X0.475000X0*%
%ADD12R,2.000000X2.000000*%
%ADD13C,2.000000*%
%ADD14C,1.600000*%
%ADD15RoundRect,0.270000X-0.630000X-0.630000X0.630000X-0.630000X0.630000X0.630000X-0.630000X0.630000X0*%
%ADD16R,0.900000X1.500000*%
%ADD17R,1.500000X0.900000*%
%ADD18C,0.600000*%
%ADD19R,3.900000X3.900000*%
%ADD20RoundRect,0.250000X-0.475000X0.337500X-0.475000X-0.337500X0.475000X-0.337500X0.475000X0.337500X0*%
%ADD21RoundRect,0.237500X0.237500X-0.250000X0.237500X0.250000X-0.237500X0.250000X-0.237500X-0.250000X0*%
%ADD22C,3.200000*%
%ADD23C,2.800000*%
%ADD24RoundRect,0.250001X-1.149999X-1.149999X1.149999X-1.149999X1.149999X1.149999X-1.149999X1.149999X0*%
%ADD25RoundRect,0.075000X-0.075000X0.650000X-0.075000X-0.650000X0.075000X-0.650000X0.075000X0.650000X0*%
%ADD26C,1.400000*%
%ADD27C,1.454000*%
%ADD28RoundRect,0.102000X0.625000X-0.625000X0.625000X0.625000X-0.625000X0.625000X-0.625000X-0.625000X0*%
%ADD29RoundRect,0.200000X0.275000X-0.200000X0.275000X0.200000X-0.275000X0.200000X-0.275000X-0.200000X0*%
%ADD30RoundRect,0.250000X-0.250000X1.300000X-0.250000X-1.300000X0.250000X-1.300000X0.250000X1.300000X0*%
%ADD31RoundRect,0.250000X0.250000X-1.300000X0.250000X1.300000X-0.250000X1.300000X-0.250000X-1.300000X0*%
%ADD32RoundRect,0.250000X-1.350000X-1.350000X1.350000X-1.350000X1.350000X1.350000X-1.350000X1.350000X0*%
%ADD33R,1.350000X1.350000*%
%ADD34C,1.350000*%
G04 APERTURE END LIST*
D10*
%TO.C,EN_PullUp1*%
X141112500Y-62800000D03*
X139287500Y-62800000D03*
%TD*%
D11*
%TO.C,C5*%
X144787500Y-63050000D03*
X142712500Y-63050000D03*
%TD*%
D12*
%TO.C,BZ1*%
X129900000Y-67000000D03*
D13*
X129900000Y-74600000D03*
%TD*%
D14*
%TO.C,F1*%
X147000000Y-41000000D03*
X142200000Y-41000000D03*
%TD*%
D15*
%TO.C,U1*%
X137250000Y-51500000D03*
X137250000Y-60500000D03*
X152250000Y-51500000D03*
X152250000Y-60500000D03*
%TD*%
D16*
%TO.C,U2*%
X152110000Y-66250000D03*
X150840000Y-66250000D03*
X149570000Y-66250000D03*
X148300000Y-66250000D03*
X147030000Y-66250000D03*
X145760000Y-66250000D03*
X144490000Y-66250000D03*
X143220000Y-66250000D03*
X141950000Y-66250000D03*
X140680000Y-66250000D03*
X139410000Y-66250000D03*
X138140000Y-66250000D03*
X136870000Y-66250000D03*
X135600000Y-66250000D03*
D17*
X134350000Y-68015000D03*
X134350000Y-69285000D03*
X134350000Y-70555000D03*
X134350000Y-71825000D03*
X134350000Y-73095000D03*
X134350000Y-74365000D03*
X134350000Y-75635000D03*
X134350000Y-76905000D03*
X134350000Y-78175000D03*
X134350000Y-79445000D03*
X134350000Y-80715000D03*
X134350000Y-81985000D03*
D16*
X135600000Y-83750000D03*
X136870000Y-83750000D03*
X138140000Y-83750000D03*
X139410000Y-83750000D03*
X140680000Y-83750000D03*
X141950000Y-83750000D03*
X143220000Y-83750000D03*
X144490000Y-83750000D03*
X145760000Y-83750000D03*
X147030000Y-83750000D03*
X148300000Y-83750000D03*
X149570000Y-83750000D03*
X150840000Y-83750000D03*
X152110000Y-83750000D03*
D18*
X145090000Y-72100000D03*
X143690000Y-72100000D03*
X145790000Y-72800000D03*
X144390000Y-72800000D03*
X142990000Y-72800000D03*
X145090000Y-73500000D03*
D19*
X144390000Y-73500000D03*
D18*
X143690000Y-73500000D03*
X145790000Y-74200000D03*
X144390000Y-74200000D03*
X142990000Y-74200000D03*
X145090000Y-74900000D03*
X143690000Y-74900000D03*
%TD*%
D20*
%TO.C,D2*%
X134100000Y-58962500D03*
X134100000Y-61037500D03*
%TD*%
D21*
%TO.C,IO-0_PullUp1*%
X155220000Y-49912500D03*
X155220000Y-48087500D03*
%TD*%
D22*
%TO.C,M3*%
X162100000Y-109650000D03*
%TD*%
D23*
%TO.C,Output1*%
X148225000Y-108842500D03*
D24*
X143225000Y-108842500D03*
%TD*%
D25*
%TO.C,U3*%
X143728494Y-95100000D03*
X143228494Y-95100000D03*
X142728494Y-95100000D03*
X142228494Y-95100000D03*
X141728494Y-95100000D03*
X141728494Y-99400000D03*
X142228494Y-99400000D03*
X142728494Y-99400000D03*
X143228494Y-99400000D03*
X143728494Y-99400000D03*
%TD*%
D26*
%TO.C,RShunt1*%
X140090000Y-103550000D03*
X147710000Y-103550000D03*
%TD*%
%TO.C,R1*%
X136000000Y-92500000D03*
X136000000Y-100120000D03*
%TD*%
%TO.C,R2*%
X138100000Y-92500000D03*
X138100000Y-100120000D03*
%TD*%
D27*
%TO.C,U4*%
X133900000Y-88590000D03*
X133900000Y-91130000D03*
X133900000Y-93670000D03*
D28*
X133900000Y-96210000D03*
%TD*%
D22*
%TO.C,REF\u002A\u002A*%
X128850000Y-109650000D03*
%TD*%
D29*
%TO.C,R3*%
X131850000Y-79325000D03*
X131850000Y-77675000D03*
%TD*%
D22*
%TO.C,REF\u002A\u002A*%
X162100000Y-33750000D03*
%TD*%
%TO.C,REF\u002A\u002A*%
X128850000Y-33750000D03*
%TD*%
D23*
%TO.C,Input1*%
X147925000Y-34017500D03*
D24*
X142925000Y-34017500D03*
%TD*%
D11*
%TO.C,C3*%
X147225000Y-63400000D03*
X149300000Y-63400000D03*
%TD*%
D30*
%TO.C,Reset1*%
X137429149Y-31494986D03*
X137429149Y-40394986D03*
X133429149Y-31494986D03*
X133429149Y-40394986D03*
%TD*%
D31*
%TO.C,Boot1*%
X153500000Y-40400000D03*
X153500000Y-31500000D03*
X157500000Y-40400000D03*
X157500000Y-31500000D03*
%TD*%
D32*
%TO.C,D1*%
X137000000Y-46000000D03*
D22*
X152240000Y-46000000D03*
%TD*%
D33*
%TO.C,U5*%
X151700000Y-99600000D03*
D34*
X151700000Y-97060000D03*
X151700000Y-91980000D03*
X151700000Y-89440000D03*
X151700000Y-94520000D03*
X151700000Y-86900000D03*
%TD*%
M02*
