M48
; DRILL file KiCad 10.0.3 date 2026-08-14T13:02:59
; FORMAT={-:-/ absolute / metric / decimal}
; #@! TF.CreationDate,2026-08-14T13:02:59+01:00
; #@! TF.GenerationSoftware,Kicad,Pcbnew,10.0.3
; #@! TF.FileFunction,Plated,1,2,PTH
FMAT,2
METRIC
; #@! TA.AperFunction,Plated,PTH,ViaDrill
T1C0.300
; #@! TA.AperFunction,Plated,PTH,ComponentDrill
T2C0.300
; #@! TA.AperFunction,Plated,PTH,ViaDrill
T3C0.500
; #@! TA.AperFunction,Plated,PTH,ComponentDrill
T4C0.700
; #@! TA.AperFunction,Plated,PTH,ComponentDrill
T5C0.800
; #@! TA.AperFunction,Plated,PTH,ComponentDrill
T6C0.900
; #@! TA.AperFunction,Plated,PTH,ComponentDrill
T7C1.000
; #@! TA.AperFunction,Plated,PTH,ComponentDrill
T8C1.300
; #@! TA.AperFunction,Plated,PTH,ComponentDrill
T9C1.600
%
G90
G05
T1
X132.3Y-98.7
X132.7Y-72.45
X135.7Y-33.55
X136.825Y-77.525
X137.0Y-62.4
X137.825Y-53.37
X139.475Y-39.25
X140.814Y-94.186
X141.55Y-100.9
X141.939Y-101.599
X142.25Y-93.5
X142.728Y-101.901
X144.475Y-101.075
X148.975Y-53.37
X152.8Y-62.6
X155.4Y-45.0
T2
X142.99Y-72.8
X142.99Y-74.2
X143.69Y-72.1
X143.69Y-73.5
X143.69Y-74.9
X144.39Y-72.8
X144.39Y-74.2
X145.09Y-72.1
X145.09Y-73.5
X145.09Y-74.9
X145.79Y-72.8
X145.79Y-74.2
T3
X150.84Y-64.59
T4
X136.0Y-92.5
X136.0Y-100.12
X138.1Y-92.5
X138.1Y-100.12
X140.09Y-103.55
X147.71Y-103.55
T5
X137.25Y-51.5
X142.2Y-41.0
X147.0Y-41.0
X151.7Y-86.9
X151.7Y-89.44
X151.7Y-91.98
X151.7Y-94.52
X151.7Y-97.06
X151.7Y-99.6
X152.25Y-51.5
X152.25Y-60.5
T6
X133.9Y-88.59
X133.9Y-91.13
X133.9Y-93.67
X133.9Y-96.21
T7
X129.9Y-67.0
X129.9Y-74.6
T8
X142.925Y-34.017
X143.225Y-108.843
X147.925Y-34.017
X148.225Y-108.843
T9
X137.0Y-46.0
X152.24Y-46.0
M30
