%TF.GenerationSoftware,KiCad,Pcbnew,10.0.3*%
%TF.CreationDate,2026-08-14T13:03:02+01:00*%
%TF.ProjectId,Power_Monitor_V2,506f7765-725f-44d6-9f6e-69746f725f56,rev?*%
%TF.SameCoordinates,Original*%
%TF.FileFunction,Soldermask,Bot*%
%TF.FilePolarity,Negative*%
%FSLAX46Y46*%
G04 Gerber Fmt 4.6, Leading zero omitted, Abs format (unit mm)*
G04 Created by KiCad (PCBNEW 10.0.3) date 2026-08-14 13:03:02*
%MOMM*%
%LPD*%
G01*
G04 APERTURE LIST*
G04 Aperture macros list*
%AMRoundRect*
0 Rectangle with rounded corners*
0 $1 Rounding radius*
0 $2 $3 $4 $5 $6 $7 $8 $9 X,Y pos of 4 corners*
0 Add a 4 corners polygon primitive as box body*
4,1,4,$2,$3,$4,$5,$6,$7,$8,$9,$2,$3,0*
0 Add four circle primitives for the rounded corners*
1,1,$1+$1,$2,$3*
1,1,$1+$1,$4,$5*
1,1,$1+$1,$6,$7*
1,1,$1+$1,$8,$9*
0 Add four rect primitives between the rounded corners*
20,1,$1+$1,$2,$3,$4,$5,0*
20,1,$1+$1,$4,$5,$6,$7,0*
20,1,$1+$1,$6,$7,$8,$9,0*
20,1,$1+$1,$8,$9,$2,$3,0*%
G04 Aperture macros list end*
%ADD10RoundRect,0.250000X-0.475000X0.337500X-0.475000X-0.337500X0.475000X-0.337500X0.475000X0.337500X0*%
%ADD11R,2.000000X2.000000*%
%ADD12C,2.000000*%
%ADD13RoundRect,0.250000X-0.337500X-0.475000X0.337500X-0.475000X0.337500X0.475000X-0.337500X0.475000X0*%
%ADD14C,1.600000*%
%ADD15RoundRect,0.270000X-0.630000X-0.630000X0.630000X-0.630000X0.630000X0.630000X-0.630000X0.630000X0*%
%ADD16C,3.200000*%
%ADD17C,2.800000*%
%ADD18RoundRect,0.250001X-1.149999X-1.149999X1.149999X-1.149999X1.149999X1.149999X-1.149999X1.149999X0*%
%ADD19C,1.400000*%
%ADD20RoundRect,0.250000X0.475000X-0.337500X0.475000X0.337500X-0.475000X0.337500X-0.475000X-0.337500X0*%
%ADD21C,1.454000*%
%ADD22RoundRect,0.102000X0.625000X-0.625000X0.625000X0.625000X-0.625000X0.625000X-0.625000X-0.625000X0*%
%ADD23RoundRect,0.250000X-1.350000X-1.350000X1.350000X-1.350000X1.350000X1.350000X-1.350000X1.350000X0*%
%ADD24R,1.350000X1.350000*%
%ADD25C,1.350000*%
G04 APERTURE END LIST*
D10*
%TO.C,C6*%
X142825000Y-57387500D03*
X142825000Y-55312500D03*
%TD*%
%TO.C,C7*%
X152375000Y-57387500D03*
X152375000Y-55312500D03*
%TD*%
D11*
%TO.C,BZ1*%
X129900000Y-67000000D03*
D12*
X129900000Y-74600000D03*
%TD*%
D13*
%TO.C,C4*%
X149300000Y-63400000D03*
X147225000Y-63400000D03*
%TD*%
D14*
%TO.C,F1*%
X147000000Y-41000000D03*
X142200000Y-41000000D03*
%TD*%
D15*
%TO.C,U1*%
X137250000Y-51500000D03*
X152250000Y-51500000D03*
X152250000Y-60500000D03*
%TD*%
D16*
%TO.C,M3*%
X162100000Y-109650000D03*
%TD*%
D17*
%TO.C,Output1*%
X148225000Y-108842500D03*
D18*
X143225000Y-108842500D03*
%TD*%
D19*
%TO.C,RShunt1*%
X140090000Y-103550000D03*
X147710000Y-103550000D03*
%TD*%
%TO.C,R1*%
X136000000Y-92500000D03*
X136000000Y-100120000D03*
%TD*%
%TO.C,R2*%
X138100000Y-92500000D03*
X138100000Y-100120000D03*
%TD*%
D20*
%TO.C,C1*%
X139950000Y-101537500D03*
X139950000Y-99462500D03*
%TD*%
D21*
%TO.C,U4*%
X133900000Y-88590000D03*
X133900000Y-91130000D03*
X133900000Y-93670000D03*
D22*
X133900000Y-96210000D03*
%TD*%
D20*
%TO.C,C2*%
X133800000Y-97962500D03*
X133800000Y-100037500D03*
%TD*%
D16*
%TO.C,REF\u002A\u002A*%
X128850000Y-109650000D03*
%TD*%
%TO.C,REF\u002A\u002A*%
X162100000Y-33750000D03*
%TD*%
%TO.C,REF\u002A\u002A*%
X128850000Y-33750000D03*
%TD*%
D17*
%TO.C,Input1*%
X147925000Y-34017500D03*
D18*
X142925000Y-34017500D03*
%TD*%
D23*
%TO.C,D1*%
X137000000Y-46000000D03*
D16*
X152240000Y-46000000D03*
%TD*%
D24*
%TO.C,U5*%
X151700000Y-99600000D03*
D25*
X151700000Y-97060000D03*
X151700000Y-91980000D03*
X151700000Y-89440000D03*
X151700000Y-94520000D03*
X151700000Y-86900000D03*
%TD*%
M02*
